<?xml version="1.0" standalone="no"?>
<!DOCTYPE svg PUBLIC "-//W3C//DTD SVG 20010904//EN"
 "http://www.w3.org/TR/2001/REC-SVG-20010904/DTD/svg10.dtd">
<svg version="1.0" xmlns="http://www.w3.org/2000/svg"
 width="2084.000000pt" height="2209.000000pt" viewBox="0 0 2084.000000 2209.000000"
 preserveAspectRatio="xMidYMid meet">
<metadata>
Created by potrace 1.15, written by Peter Selinger 2001-2017
</metadata>
<g transform="translate(0.000000,2209.000000) scale(0.100000,-0.100000)"
fill="#000000" stroke="none">
<path d="M2750 21640 c0 -18 -7 -20 -85 -20 -78 0 -85 -2 -85 -20 0 -18 -7
-20 -80 -20 -79 0 -80 0 -80 -25 0 -23 -4 -25 -45 -25 -38 0 -45 -3 -45 -20 0
-17 -7 -20 -40 -20 -33 0 -40 -3 -40 -20 0 -18 -7 -20 -65 -20 -58 0 -65 -2
-65 -20 0 -17 -7 -20 -40 -20 -33 0 -40 -3 -40 -20 0 -17 -7 -20 -40 -20 -33
0 -40 -3 -40 -20 0 -17 -7 -20 -45 -20 -41 0 -45 -2 -45 -25 0 -22 -4 -25 -40
-25 -33 0 -40 -3 -40 -20 0 -17 -7 -20 -40 -20 -33 0 -40 -3 -40 -20 0 -17 -7
-20 -45 -20 -38 0 -45 -3 -45 -20 0 -13 -7 -20 -20 -20 -13 0 -20 -7 -20 -20
0 -13 -7 -20 -20 -20 -13 0 -20 -7 -20 -20 0 -17 -7 -20 -40 -20 -36 0 -40 -2
-40 -25 0 -18 -5 -25 -20 -25 -13 0 -20 -7 -20 -20 0 -15 -7 -20 -25 -20 -18
0 -25 -5 -25 -20 0 -17 -7 -20 -40 -20 -33 0 -40 -3 -40 -20 0 -13 -7 -20 -20
-20 -13 0 -20 -7 -20 -20 0 -17 -7 -20 -40 -20 -33 0 -40 -3 -40 -20 0 -15 -7
-20 -25 -20 -20 0 -25 -5 -25 -25 0 -18 -5 -25 -20 -25 -13 0 -20 -7 -20 -20
0 -13 -7 -20 -20 -20 -13 0 -20 -7 -20 -20 0 -13 -7 -20 -20 -20 -13 0 -20 -7
-20 -20 0 -13 -7 -20 -20 -20 -13 0 -20 -7 -20 -20 0 -13 -7 -20 -20 -20 -13
0 -20 -7 -20 -20 0 -15 -7 -20 -25 -20 -20 0 -25 -5 -25 -25 0 -18 -5 -25 -20
-25 -13 0 -20 -7 -20 -20 0 -17 -7 -20 -40 -20 -33 0 -40 -3 -40 -20 0 -13 -7
-20 -20 -20 -17 0 -20 -7 -20 -40 0 -33 -3 -40 -20 -40 -13 0 -20 -7 -20 -20
0 -15 -7 -20 -25 -20 -20 0 -25 -5 -25 -25 0 -18 -5 -25 -20 -25 -13 0 -20 -7
-20 -20 0 -13 -7 -20 -20 -20 -13 0 -20 -7 -20 -20 0 -13 -7 -20 -20 -20 -17
0 -20 -7 -20 -40 0 -33 -3 -40 -20 -40 -13 0 -20 -7 -20 -20 0 -13 -7 -20 -20
-20 -17 0 -20 -7 -20 -45 0 -41 -2 -45 -25 -45 -18 0 -25 -5 -25 -20 0 -13 -7
-20 -20 -20 -13 0 -20 -7 -20 -20 0 -13 -7 -20 -20 -20 -17 0 -20 -7 -20 -40
0 -33 -3 -40 -20 -40 -17 0 -20 -7 -20 -45 0 -38 -3 -45 -20 -45 -18 0 -20 -7
-20 -80 0 -73 -2 -80 -20 -80 -19 0 -20 -7 -20 -105 l0 -105 -25 0 c-25 0 -25
-1 -25 -85 0 -78 -2 -85 -20 -85 -18 0 -20 -7 -20 -60 0 -53 -2 -60 -20 -60
-18 0 -20 -7 -20 -65 0 -58 -2 -65 -20 -65 -20 0 -20 -7 -20 -1395 0 -1388 0
-1395 20 -1395 19 0 20 -7 20 -145 0 -138 1 -145 20 -145 18 0 20 -7 20 -85 0
-78 2 -85 20 -85 17 0 20 -7 20 -40 0 -36 3 -40 25 -40 23 0 25 -4 25 -45 0
-38 3 -45 20 -45 13 0 20 -7 20 -20 0 -13 7 -20 20 -20 17 0 20 -7 20 -40 0
-33 3 -40 20 -40 13 0 20 -7 20 -20 0 -13 7 -20 20 -20 13 0 20 -7 20 -20 0
-13 7 -20 20 -20 17 0 20 -7 20 -45 0 -41 2 -45 25 -45 18 0 25 -5 25 -20 0
-13 7 -20 20 -20 17 0 20 -7 20 -40 0 -33 3 -40 20 -40 18 0 20 -7 20 -65 0
-58 2 -65 20 -65 18 0 20 -7 20 -60 0 -53 2 -60 20 -60 18 0 20 -7 20 -65 0
-58 2 -65 20 -65 18 0 20 -7 20 -60 0 -57 1 -60 25 -60 23 0 25 -4 25 -45 0
-38 3 -45 20 -45 18 0 20 -7 20 -60 0 -53 2 -60 20 -60 18 0 20 -7 20 -85 0
-78 2 -85 20 -85 19 0 20 -7 20 -105 0 -98 1 -105 20 -105 20 0 20 -7 20 -290
0 -283 0 -290 -20 -290 -19 0 -20 -7 -20 -165 0 -158 -1 -165 -20 -165 -18 0
-20 -7 -20 -85 0 -78 -2 -85 -20 -85 -17 0 -20 -7 -20 -40 0 -33 -3 -40 -20
-40 -17 0 -20 -7 -20 -45 0 -41 -2 -45 -25 -45 -24 0 -25 -3 -25 -60 0 -53 -2
-60 -20 -60 -17 0 -20 -7 -20 -40 l0 -40 -40 0 c-36 0 -40 -2 -40 -25 0 -18
-5 -25 -20 -25 -13 0 -20 -7 -20 -20 0 -13 -7 -20 -20 -20 -13 0 -20 -7 -20
-20 0 -15 -7 -20 -25 -20 -18 0 -25 -5 -25 -20 0 -13 -7 -20 -20 -20 -13 0
-20 -7 -20 -20 0 -13 -7 -20 -20 -20 -13 0 -20 -7 -20 -20 0 -18 -7 -20 -60
-20 -57 0 -60 -1 -60 -25 0 -25 -1 -25 -85 -25 l-85 0 0 -435 c0 -428 0 -435
20 -435 17 0 20 -7 20 -40 0 -33 3 -40 20 -40 15 0 20 -7 20 -25 0 -18 5 -25
20 -25 17 0 20 -7 20 -40 0 -36 3 -40 25 -40 23 0 25 -4 25 -40 0 -33 3 -40
20 -40 17 0 20 -7 20 -45 0 -38 3 -45 20 -45 17 0 20 -7 20 -40 0 -33 3 -40
20 -40 13 0 20 -7 20 -20 0 -13 7 -20 20 -20 13 0 20 -7 20 -20 0 -13 7 -20
20 -20 17 0 20 -7 20 -45 0 -41 2 -45 25 -45 18 0 25 -5 25 -20 0 -13 7 -20
20 -20 13 0 20 -7 20 -20 0 -13 7 -20 20 -20 17 0 20 -7 20 -40 0 -33 3 -40
20 -40 13 0 20 -7 20 -20 0 -13 7 -20 20 -20 15 0 20 -7 20 -25 0 -18 5 -25
20 -25 18 0 20 -7 20 -60 0 -57 1 -60 25 -60 24 0 25 -2 25 -65 0 -58 2 -65
20 -65 17 0 20 -7 20 -40 0 -33 3 -40 20 -40 18 0 20 -7 20 -60 0 -53 2 -60
20 -60 18 0 20 -7 20 -65 0 -58 2 -65 20 -65 17 0 20 -7 20 -40 0 -33 3 -40
20 -40 17 0 20 -7 20 -45 0 -41 2 -45 25 -45 23 0 25 -4 25 -40 0 -33 3 -40
20 -40 18 0 20 -7 20 -60 0 -53 2 -60 20 -60 17 0 20 -7 20 -45 0 -38 3 -45
20 -45 17 0 20 -7 20 -40 0 -33 3 -40 20 -40 13 0 20 -7 20 -20 0 -13 7 -20
20 -20 17 0 20 -7 20 -45 0 -41 2 -45 25 -45 23 0 25 -4 25 -40 0 -33 3 -40
20 -40 13 0 20 -7 20 -20 0 -13 7 -20 20 -20 17 0 20 -7 20 -40 0 -33 3 -40
20 -40 17 0 20 -7 20 -45 0 -38 3 -45 20 -45 13 0 20 -7 20 -20 0 -13 7 -20
20 -20 17 0 20 -7 20 -40 0 -36 3 -40 25 -40 23 0 25 -4 25 -45 0 -38 3 -45
20 -45 13 0 20 -7 20 -20 0 -13 7 -20 20 -20 13 0 20 -7 20 -20 0 -13 7 -20
20 -20 17 0 20 -7 20 -40 0 -33 3 -40 20 -40 17 0 20 -7 20 -45 0 -38 3 -45
20 -45 17 0 20 -7 20 -40 0 -36 3 -40 25 -40 18 0 25 -5 25 -20 0 -13 7 -20
20 -20 17 0 20 -7 20 -40 0 -33 3 -40 20 -40 15 0 20 -7 20 -25 0 -18 5 -25
20 -25 13 0 20 -7 20 -20 0 -13 7 -20 20 -20 13 0 20 -7 20 -20 0 -13 7 -20
20 -20 17 0 20 -7 20 -40 0 -36 3 -40 25 -40 23 0 25 -4 25 -45 0 -38 3 -45
20 -45 13 0 20 -7 20 -20 0 -13 7 -20 20 -20 13 0 20 -7 20 -20 0 -13 7 -20
20 -20 17 0 20 -7 20 -40 0 -33 3 -40 20 -40 13 0 20 -7 20 -20 0 -17 7 -20
45 -20 41 0 45 -2 45 -25 0 -18 5 -25 20 -25 17 0 20 -7 20 -40 0 -33 3 -40
20 -40 17 0 20 -7 20 -40 0 -33 -3 -40 -20 -40 -13 0 -20 -7 -20 -20 0 -13 7
-20 20 -20 15 0 20 -7 20 -25 0 -22 4 -25 40 -25 l40 0 0 -60 0 -60 65 0 c58
0 65 -2 65 -20 0 -13 -7 -20 -20 -20 -13 0 -20 -7 -20 -20 0 -13 7 -20 20 -20
15 0 20 -7 20 -25 0 -18 5 -25 20 -25 13 0 20 -7 20 -20 0 -13 7 -20 20 -20
13 0 20 -7 20 -20 0 -13 7 -20 20 -20 13 0 20 -7 20 -20 0 -13 7 -20 20 -20
13 0 20 -7 20 -20 0 -15 7 -20 25 -20 18 0 25 -5 25 -20 0 -17 7 -20 40 -20
36 0 40 -2 40 -25 0 -25 1 -25 85 -25 78 0 85 -2 85 -20 0 -18 7 -20 80 -20
73 0 80 -2 80 -20 0 -19 7 -20 125 -20 118 0 125 1 125 20 0 18 7 20 65 20 58
0 65 2 65 20 0 17 7 20 40 20 36 0 40 3 40 25 l0 25 -145 0 -145 0 0 -25 c0
-18 -5 -25 -20 -25 -15 0 -20 7 -20 25 0 18 -5 25 -20 25 -13 0 -20 7 -20 20
0 17 -7 20 -45 20 -38 0 -45 3 -45 20 0 13 -7 20 -20 20 -13 0 -20 -7 -20 -20
0 -17 -7 -20 -40 -20 -33 0 -40 3 -40 20 0 13 -7 20 -20 20 -13 0 -20 7 -20
20 0 19 7 20 100 20 93 0 100 1 100 20 0 18 -7 20 -60 20 -53 0 -60 2 -60 20
0 18 -7 20 -65 20 -63 0 -65 1 -65 25 0 25 -1 25 -80 25 -79 0 -80 0 -80 -25
0 -18 5 -25 20 -25 17 0 20 -7 20 -40 0 -33 -3 -40 -20 -40 -13 0 -20 7 -20
20 0 13 -7 20 -20 20 -13 0 -20 7 -20 20 0 15 -7 20 -25 20 -20 0 -25 5 -25
25 0 20 5 25 25 25 23 0 25 4 25 40 0 36 -2 40 -25 40 -18 0 -25 5 -25 20 0
18 -7 20 -60 20 -53 0 -60 2 -60 20 0 18 -7 20 -65 20 -58 0 -65 2 -65 20 0
13 -7 20 -20 20 -15 0 -20 7 -20 25 0 18 -5 25 -20 25 -18 0 -20 7 -20 60 l0
60 40 0 40 0 0 -40 0 -40 45 0 c38 0 45 3 45 20 0 13 7 20 20 20 13 0 20 -7
20 -20 0 -13 7 -20 20 -20 13 0 20 -7 20 -20 0 -17 7 -20 40 -20 36 0 40 -2
40 -25 0 -20 5 -25 25 -25 18 0 25 -5 25 -20 0 -18 7 -20 80 -20 73 0 80 -2
80 -20 0 -18 7 -20 85 -20 78 0 85 -2 85 -20 0 -13 7 -20 20 -20 13 0 20 7 20
20 0 13 7 20 20 20 13 0 20 7 20 20 0 13 -7 20 -20 20 -13 0 -20 7 -20 20 0
17 -7 20 -40 20 l-40 0 0 45 0 45 80 0 c73 0 80 -2 80 -20 0 -18 7 -20 85 -20
84 0 85 0 85 -25 0 -18 5 -25 20 -25 13 0 20 -7 20 -20 0 -18 7 -20 85 -20 78
0 85 2 85 20 0 17 7 20 40 20 33 0 40 -3 40 -20 0 -13 7 -20 20 -20 13 0 20
-7 20 -20 0 -17 7 -20 45 -20 l45 0 0 65 c0 58 2 65 20 65 13 0 20 7 20 20 0
17 7 20 40 20 33 0 40 3 40 20 0 18 7 20 65 20 58 0 65 2 65 20 0 13 7 20 20
20 17 0 20 7 20 40 0 33 3 40 20 40 15 0 20 7 20 25 0 18 -5 25 -20 25 -13 0
-20 7 -20 20 0 17 -7 20 -40 20 -33 0 -40 3 -40 20 0 19 -7 20 -150 20 -143 0
-150 1 -150 20 0 17 -7 20 -40 20 -33 0 -40 3 -40 20 0 17 -7 20 -40 20 -33 0
-40 3 -40 20 0 17 -7 20 -45 20 -41 0 -45 2 -45 25 0 25 1 25 85 25 84 0 85 0
85 -25 0 -25 1 -25 85 -25 78 0 85 -2 85 -20 0 -19 7 -20 185 -20 178 0 185 1
185 20 0 17 7 20 45 20 41 0 45 2 45 25 0 23 4 25 40 25 33 0 40 3 40 20 0 17
7 20 40 20 33 0 40 3 40 20 0 13 7 20 20 20 13 0 20 7 20 20 0 15 7 20 25 20
18 0 25 5 25 20 0 13 7 20 20 20 13 0 20 7 20 20 0 13 7 20 20 20 15 0 20 7
20 25 0 18 5 25 20 25 13 0 20 7 20 20 0 13 7 20 20 20 18 0 20 7 20 60 0 53
2 60 20 60 19 0 20 7 20 170 l0 170 25 0 c23 0 25 4 25 40 l0 40 40 0 c33 0
40 3 40 20 0 13 7 20 20 20 13 0 20 7 20 20 0 18 7 20 65 20 l65 0 0 45 c0 38
3 45 20 45 13 0 20 7 20 20 0 13 7 20 20 20 13 0 20 7 20 20 0 13 7 20 20 20
18 0 20 7 20 60 0 53 2 60 20 60 13 0 20 -7 20 -20 0 -13 7 -20 20 -20 19 0
20 -7 20 -105 l0 -105 25 0 25 0 0 -125 c0 -118 1 -125 20 -125 13 0 20 -7 20
-20 0 -13 7 -20 20 -20 17 0 20 -7 20 -40 0 -33 3 -40 20 -40 19 0 20 -7 20
-165 0 -158 1 -165 20 -165 19 0 20 -7 20 -105 0 -98 1 -105 20 -105 13 0 20
-7 20 -20 0 -13 -7 -20 -20 -20 -17 0 -20 -7 -20 -45 0 -38 -3 -45 -20 -45
-19 0 -20 -7 -20 -250 l0 -250 65 0 c58 0 65 -2 65 -20 0 -13 7 -20 20 -20 13
0 20 -7 20 -20 0 -18 7 -20 80 -20 73 0 80 2 80 20 0 15 7 20 25 20 18 0 25 5
25 20 0 17 7 20 40 20 33 0 40 3 40 20 0 19 7 20 105 20 l105 0 0 25 c0 25 1
25 80 25 79 0 80 0 80 -25 0 -23 4 -25 45 -25 l45 0 0 -40 c0 -33 3 -40 20
-40 17 0 20 -7 20 -40 l0 -40 60 0 c53 0 60 -2 60 -20 0 -19 7 -20 105 -20
l105 0 0 -25 c0 -18 5 -25 20 -25 18 0 20 -7 20 -60 0 -57 1 -60 25 -60 18 0
25 -5 25 -20 0 -13 7 -20 20 -20 19 0 20 7 20 105 0 98 1 105 20 105 13 0 20
7 20 20 0 17 7 20 40 20 33 0 40 3 40 20 0 19 7 20 105 20 l105 0 0 185 c0
178 -1 185 -20 185 -15 0 -20 7 -20 25 l0 25 -165 0 c-158 0 -165 1 -165 20 0
15 -7 20 -25 20 -24 0 -25 3 -25 60 0 53 -2 60 -20 60 -18 0 -20 7 -20 65 0
58 -2 65 -20 65 -18 0 -20 7 -20 80 0 73 -2 80 -20 80 -19 0 -20 7 -20 105 0
98 1 105 20 105 13 0 20 7 20 20 0 13 7 20 20 20 15 0 20 7 20 25 l0 25 125 0
125 0 0 -25 c0 -18 5 -25 20 -25 18 0 20 7 20 85 0 78 -2 85 -20 85 -13 0 -20
7 -20 20 0 13 -7 20 -20 20 -17 0 -20 7 -20 45 l0 45 -40 0 c-33 0 -40 3 -40
20 0 13 -7 20 -20 20 -13 0 -20 7 -20 20 0 17 -7 20 -45 20 -38 0 -45 3 -45
20 0 19 -7 20 -105 20 -98 0 -105 -1 -105 -20 0 -17 -7 -20 -40 -20 l-40 0 0
40 c0 33 -3 40 -20 40 -13 0 -20 -7 -20 -20 0 -13 -7 -20 -20 -20 -13 0 -20 7
-20 20 0 13 -7 20 -20 20 -17 0 -20 -7 -20 -40 0 -33 3 -40 20 -40 13 0 20 -7
20 -20 0 -13 -7 -20 -20 -20 -13 0 -20 -7 -20 -20 0 -15 -7 -20 -25 -20 l-25
0 0 -105 0 -105 25 0 c18 0 25 -5 25 -20 0 -18 7 -20 60 -20 l60 0 0 -45 c0
-38 3 -45 20 -45 13 0 20 -7 20 -20 0 -13 7 -20 20 -20 17 0 20 -7 20 -40 0
-36 3 -40 25 -40 18 0 25 -5 25 -20 0 -13 7 -20 20 -20 18 0 20 -7 20 -65 0
-58 2 -65 20 -65 18 0 20 -7 20 -85 0 -78 2 -85 20 -85 19 0 20 -7 20 -125 l0
-125 -145 0 -145 0 0 25 c0 18 -5 25 -20 25 -18 0 -20 7 -20 60 0 53 -2 60
-20 60 -13 0 -20 7 -20 20 0 18 -7 20 -65 20 -58 0 -65 2 -65 20 0 19 -7 20
-145 20 l-145 0 0 25 c0 24 -2 25 -65 25 -58 0 -65 2 -65 20 0 13 -7 20 -20
20 -17 0 -20 7 -20 40 0 33 -3 40 -20 40 -19 0 -20 7 -20 125 0 118 -1 125
-20 125 -19 0 -20 7 -20 145 0 138 -1 145 -20 145 -18 0 -20 7 -20 65 0 58 2
65 20 65 13 0 20 7 20 20 0 13 7 20 20 20 13 0 20 7 20 20 0 18 7 20 65 20 58
0 65 -2 65 -20 0 -13 7 -20 20 -20 17 0 20 -7 20 -40 0 -33 3 -40 20 -40 15 0
20 -7 20 -25 0 -22 4 -25 40 -25 36 0 40 3 40 25 0 23 4 25 45 25 38 0 45 3
45 20 0 13 7 20 20 20 13 0 20 7 20 20 0 17 7 20 40 20 l40 0 0 40 c0 33 -3
40 -20 40 -18 0 -20 7 -20 65 0 58 -2 65 -20 65 -18 0 -20 7 -20 60 0 53 -2
60 -20 60 -17 0 -20 7 -20 45 l0 45 -150 0 c-143 0 -150 1 -150 20 0 13 -7 20
-20 20 -17 0 -20 7 -20 40 l0 40 -40 0 c-33 0 -40 -3 -40 -20 0 -18 -7 -20
-65 -20 -58 0 -65 2 -65 20 0 18 -7 20 -60 20 -53 0 -60 -2 -60 -20 0 -13 -7
-20 -20 -20 -13 0 -20 -7 -20 -20 0 -13 -7 -20 -20 -20 -17 0 -20 -7 -20 -45
l0 -45 -45 0 c-41 0 -45 2 -45 25 0 18 5 25 20 25 13 0 20 7 20 20 0 13 -7 20
-20 20 -18 0 -20 7 -20 80 0 73 2 80 20 80 17 0 20 7 20 45 0 41 2 45 25 45
23 0 25 4 25 40 0 36 -2 40 -25 40 -18 0 -25 5 -25 20 0 15 7 20 25 20 18 0
25 5 25 20 0 13 7 20 20 20 17 0 20 -7 20 -40 l0 -40 60 0 60 0 0 40 c0 33 3
40 20 40 18 0 20 7 20 65 0 63 1 65 25 65 25 0 25 1 25 85 0 78 2 85 20 85 19
0 20 7 20 125 0 118 1 125 20 125 13 0 20 7 20 20 0 13 7 20 20 20 13 0 20 7
20 20 0 13 7 20 20 20 18 0 20 7 20 60 0 53 2 60 20 60 17 0 20 7 20 45 0 41
2 45 25 45 18 0 25 5 25 20 0 17 7 20 40 20 33 0 40 3 40 20 0 13 7 20 20 20
13 0 20 7 20 20 0 13 7 20 20 20 13 0 20 7 20 20 0 17 7 20 45 20 41 0 45 2
45 25 0 18 5 25 20 25 13 0 20 7 20 20 0 13 7 20 20 20 13 0 20 7 20 20 0 17
7 20 40 20 33 0 40 3 40 20 0 13 7 20 20 20 13 0 20 7 20 20 0 17 7 20 45 20
38 0 45 3 45 20 0 20 7 20 290 20 l290 0 0 25 0 25 125 0 125 0 0 -25 0 -25
480 0 480 0 0 25 c0 25 1 25 85 25 78 0 85 2 85 20 0 13 7 20 20 20 18 0 20 7
20 60 0 53 -2 60 -20 60 -13 0 -20 7 -20 20 0 19 -7 20 -105 20 l-105 0 0 25
c0 24 -2 25 -65 25 -58 0 -65 2 -65 20 0 17 -7 20 -40 20 l-40 0 0 60 0 60
-65 0 c-58 0 -65 2 -65 20 0 13 -7 20 -20 20 -15 0 -20 7 -20 25 0 18 -5 25
-20 25 -18 0 -20 7 -20 80 l0 80 -40 0 c-33 0 -40 -3 -40 -20 0 -17 -7 -20
-45 -20 -38 0 -45 3 -45 20 0 13 -7 20 -20 20 -13 0 -20 -7 -20 -20 0 -13 -7
-20 -20 -20 -13 0 -20 7 -20 20 0 18 -7 20 -60 20 l-60 0 0 -40 c0 -36 -2 -40
-25 -40 -22 0 -25 4 -25 40 l0 40 -40 0 c-33 0 -40 3 -40 20 0 13 7 20 20 20
17 0 20 7 20 45 l0 45 -40 0 c-33 0 -40 3 -40 20 0 18 -7 20 -85 20 -78 0 -85
2 -85 20 0 19 -7 20 -125 20 l-125 0 0 40 c0 33 3 40 20 40 13 0 20 -7 20 -20
0 -15 7 -20 25 -20 23 0 25 4 25 45 l0 45 -65 0 c-58 0 -65 2 -65 20 0 13 7
20 20 20 13 0 20 7 20 20 0 13 7 20 20 20 13 0 20 7 20 20 0 13 -7 20 -20 20
-18 0 -20 7 -20 65 l0 65 -40 0 c-33 0 -40 3 -40 20 0 13 7 20 20 20 13 0 20
7 20 20 0 13 -7 20 -20 20 -13 0 -20 7 -20 20 0 13 -7 20 -20 20 -17 0 -20 7
-20 40 0 33 -3 40 -20 40 -19 0 -20 7 -20 105 l0 105 -25 0 -25 0 0 125 0 125
45 0 c38 0 45 3 45 20 0 17 -7 20 -45 20 -41 0 -45 2 -45 25 0 20 5 25 25 25
18 0 25 5 25 20 0 13 7 20 20 20 13 0 20 7 20 20 0 17 -7 20 -45 20 -38 0 -45
3 -45 20 0 13 -7 20 -20 20 -13 0 -20 7 -20 20 0 13 -7 20 -20 20 -13 0 -20 7
-20 20 0 17 -7 20 -40 20 l-40 0 0 45 0 45 -45 0 c-38 0 -45 -3 -45 -20 0 -13
-7 -20 -20 -20 -18 0 -20 7 -20 60 0 53 -2 60 -20 60 -13 0 -20 7 -20 20 0 13
-7 20 -20 20 -17 0 -20 7 -20 45 0 38 3 45 20 45 18 0 20 7 20 60 0 53 2 60
20 60 13 0 20 -7 20 -20 0 -18 7 -20 85 -20 78 0 85 -2 85 -20 0 -17 7 -20 40
-20 33 0 40 -3 40 -20 0 -13 7 -20 20 -20 15 0 20 -7 20 -25 0 -23 4 -25 45
-25 l45 0 0 65 0 65 -85 0 c-78 0 -85 2 -85 20 0 18 -7 20 -85 20 -78 0 -85 2
-85 20 0 18 7 20 85 20 l85 0 0 85 0 85 40 0 40 0 0 -40 0 -40 45 0 c38 0 45
3 45 20 0 13 -7 20 -20 20 -13 0 -20 7 -20 20 0 13 7 20 20 20 13 0 20 7 20
20 0 17 7 20 40 20 33 0 40 3 40 20 0 17 7 20 40 20 33 0 40 3 40 20 0 17 -7
20 -40 20 -36 0 -40 3 -40 25 0 18 5 25 20 25 13 0 20 7 20 20 0 13 7 20 20
20 13 0 20 7 20 20 0 17 7 20 45 20 l45 0 0 40 c0 33 -3 40 -20 40 -17 0 -20
7 -20 45 0 41 -2 45 -25 45 -18 0 -25 5 -25 20 0 15 7 20 25 20 18 0 25 5 25
20 0 13 7 20 20 20 13 0 20 7 20 20 0 13 7 20 20 20 13 0 20 7 20 20 0 13 -7
20 -20 20 -13 0 -20 7 -20 20 0 13 -7 20 -20 20 -15 0 -20 7 -20 25 0 18 5 25
20 25 18 0 20 7 20 80 0 73 2 80 20 80 13 0 20 7 20 20 0 13 7 20 20 20 15 0
20 7 20 25 0 23 -4 25 -40 25 -33 0 -40 3 -40 20 0 13 -7 20 -20 20 -13 0 -20
-7 -20 -20 0 -17 -7 -20 -45 -20 -38 0 -45 3 -45 20 0 13 -7 20 -20 20 -13 0
-20 7 -20 20 0 13 -7 20 -20 20 -13 0 -20 7 -20 20 0 13 -7 20 -20 20 -13 0
-20 7 -20 20 0 13 -7 20 -20 20 -13 0 -20 7 -20 20 0 15 -7 20 -25 20 -23 0
-25 4 -25 45 0 38 -3 45 -20 45 -13 0 -20 7 -20 20 0 13 -7 20 -20 20 -17 0
-20 7 -20 40 0 33 -3 40 -20 40 -13 0 -20 -7 -20 -20 0 -13 -7 -20 -20 -20
-18 0 -20 7 -20 85 0 78 2 85 20 85 17 0 20 7 20 40 0 33 -3 40 -20 40 -13 0
-20 7 -20 20 0 13 7 20 20 20 19 0 20 7 20 105 0 98 1 105 20 105 18 0 20 7
20 85 0 78 2 85 20 85 17 0 20 7 20 40 0 33 3 40 20 40 17 0 20 7 20 40 0 36
3 40 25 40 23 0 25 4 25 45 0 38 3 45 20 45 13 0 20 7 20 20 0 17 7 20 40 20
33 0 40 3 40 20 0 19 7 20 105 20 98 0 105 1 105 20 0 13 7 20 20 20 13 0 20
7 20 20 0 18 7 20 85 20 l85 0 0 45 0 45 60 0 c53 0 60 2 60 20 0 13 7 20 20
20 13 0 20 7 20 20 0 17 7 20 45 20 l45 0 0 40 c0 33 3 40 20 40 17 0 20 7 20
45 0 38 -3 45 -20 45 -17 0 -20 7 -20 40 0 33 3 40 20 40 13 0 20 7 20 20 0
17 7 20 40 20 33 0 40 -3 40 -20 0 -17 7 -20 45 -20 38 0 45 3 45 20 0 18 7
20 60 20 l60 0 0 45 0 45 105 0 105 0 0 -25 c0 -18 -5 -25 -20 -25 -13 0 -20
-7 -20 -20 0 -13 -7 -20 -20 -20 -13 0 -20 7 -20 20 0 15 -7 20 -25 20 -22 0
-25 -4 -25 -40 l0 -40 45 0 45 0 0 -40 0 -40 -65 0 c-58 0 -65 -2 -65 -20 0
-13 -7 -20 -20 -20 -15 0 -20 -7 -20 -25 0 -22 -4 -25 -40 -25 l-40 0 0 -40
c0 -33 -3 -40 -20 -40 -17 0 -20 7 -20 40 l0 40 -45 0 c-38 0 -45 -3 -45 -20
0 -13 7 -20 20 -20 18 0 20 -7 20 -60 l0 -60 -40 0 c-33 0 -40 3 -40 20 0 17
-7 20 -40 20 l-40 0 0 -40 0 -40 60 0 60 0 0 -85 c0 -78 -2 -85 -20 -85 -18 0
-20 -7 -20 -65 0 -58 2 -65 20 -65 15 0 20 7 20 25 0 18 5 25 20 25 18 0 20
-7 20 -65 0 -63 1 -65 25 -65 18 0 25 -5 25 -20 0 -13 7 -20 20 -20 17 0 20
-7 20 -40 l0 -40 60 0 c57 0 60 -1 60 -25 0 -18 5 -25 20 -25 17 0 20 -7 20
-40 l0 -40 45 0 45 0 0 -40 0 -40 40 0 40 0 0 -45 0 -45 65 0 65 0 0 -60 c0
-53 2 -60 20 -60 13 0 20 -7 20 -20 0 -17 7 -20 40 -20 33 0 40 3 40 20 0 13
7 20 20 20 13 0 20 7 20 20 0 13 7 20 20 20 17 0 20 7 20 40 l0 40 65 0 c58 0
65 -2 65 -20 0 -13 7 -20 20 -20 13 0 20 7 20 20 0 13 7 20 20 20 13 0 20 -7
20 -20 0 -18 7 -20 65 -20 58 0 65 2 65 20 0 13 7 20 20 20 19 0 20 7 20 105
0 98 -1 105 -20 105 -17 0 -20 7 -20 45 0 38 -3 45 -20 45 -13 0 -20 7 -20 20
0 15 -7 20 -25 20 -22 0 -25 4 -25 40 0 33 -3 40 -20 40 -19 0 -20 7 -20 145
0 138 1 145 20 145 17 0 20 7 20 45 0 41 2 45 25 45 23 0 25 4 25 40 l0 40 40
0 c33 0 40 3 40 20 0 13 7 20 20 20 13 0 20 7 20 20 0 13 7 20 20 20 13 0 20
7 20 20 0 13 7 20 20 20 15 0 20 7 20 25 0 20 5 25 25 25 l25 0 0 165 0 165
-45 0 -45 0 0 105 0 105 45 0 45 0 0 40 c0 33 3 40 20 40 13 0 20 7 20 20 0
13 7 20 20 20 13 0 20 -7 20 -20 0 -17 7 -20 40 -20 33 0 40 -3 40 -20 0 -13
7 -20 20 -20 13 0 20 7 20 20 0 15 7 20 25 20 18 0 25 5 25 20 0 13 7 20 20
20 13 0 20 -7 20 -20 0 -13 7 -20 20 -20 13 0 20 -7 20 -20 0 -13 7 -20 20
-20 13 0 20 -7 20 -20 0 -13 7 -20 20 -20 13 0 20 -7 20 -20 0 -13 7 -20 20
-20 18 0 20 7 20 60 0 57 1 60 25 60 23 0 25 4 25 40 0 33 3 40 20 40 19 0 20
7 20 125 0 118 -1 125 -20 125 -17 0 -20 7 -20 45 0 41 -2 45 -25 45 -22 0
-25 4 -25 40 0 33 -3 40 -20 40 -19 0 -20 7 -20 125 0 118 -1 125 -20 125 -17
0 -20 7 -20 40 0 33 3 40 20 40 17 0 20 7 20 45 0 38 -3 45 -20 45 -19 0 -20
7 -20 105 0 98 -1 105 -20 105 -13 0 -20 7 -20 20 0 13 -7 20 -20 20 -18 0
-20 7 -20 80 0 73 -2 80 -20 80 -19 0 -20 7 -20 170 l0 170 -25 0 c-24 0 -25
3 -25 60 0 53 -2 60 -20 60 -13 0 -20 7 -20 20 0 13 -7 20 -20 20 -18 0 -20 7
-20 65 0 58 -2 65 -20 65 -13 0 -20 7 -20 20 0 13 -7 20 -20 20 -18 0 -20 7
-20 65 0 58 -2 65 -20 65 -13 0 -20 7 -20 20 0 15 -7 20 -25 20 -22 0 -25 4
-25 40 0 33 -3 40 -20 40 -13 0 -20 7 -20 20 0 13 -7 20 -20 20 -13 0 -20 7
-20 20 0 13 -7 20 -20 20 -15 0 -20 7 -20 25 0 18 -5 25 -20 25 -13 0 -20 7
-20 20 0 13 -7 20 -20 20 -13 0 -20 7 -20 20 0 15 -7 20 -25 20 -24 0 -25 3
-25 60 0 53 -2 60 -20 60 -15 0 -20 7 -20 25 0 18 -5 25 -20 25 -13 0 -20 7
-20 20 0 13 -7 20 -20 20 -13 0 -20 7 -20 20 0 13 -7 20 -20 20 -13 0 -20 7
-20 20 0 13 -7 20 -20 20 -13 0 -20 7 -20 20 0 17 -7 20 -45 20 -38 0 -45 3
-45 20 0 13 -7 20 -20 20 -15 0 -20 7 -20 25 0 18 -5 25 -20 25 -13 0 -20 7
-20 20 0 17 -7 20 -40 20 l-40 0 0 40 c0 36 -2 40 -25 40 -18 0 -25 5 -25 20
0 13 -7 20 -20 20 -13 0 -20 7 -20 20 0 13 -7 20 -20 20 -17 0 -20 7 -20 45 0
38 -3 45 -20 45 -13 0 -20 7 -20 20 0 13 -7 20 -20 20 -13 0 -20 7 -20 20 0
13 -7 20 -20 20 -13 0 -20 7 -20 20 0 15 -7 20 -25 20 -18 0 -25 5 -25 20 0
13 -7 20 -20 20 -15 0 -20 7 -20 25 0 18 -5 25 -20 25 -13 0 -20 7 -20 20 0
13 -7 20 -20 20 -13 0 -20 7 -20 20 0 13 -7 20 -20 20 -13 0 -20 7 -20 20 0
13 -7 20 -20 20 -13 0 -20 7 -20 20 0 15 -7 20 -25 20 -18 0 -25 5 -25 20 0
13 -7 20 -20 20 -15 0 -20 7 -20 25 0 23 -4 25 -40 25 -33 0 -40 3 -40 20 0
13 -7 20 -20 20 -13 0 -20 7 -20 20 0 13 -7 20 -20 20 -13 0 -20 7 -20 20 0
17 -7 20 -45 20 -38 0 -45 3 -45 20 0 17 -7 20 -40 20 -33 0 -40 3 -40 20 0
13 -7 20 -20 20 -15 0 -20 7 -20 25 0 24 -2 25 -65 25 -58 0 -65 2 -65 20 0
13 -7 20 -20 20 -13 0 -20 7 -20 20 0 18 -7 20 -60 20 -53 0 -60 2 -60 20 0
15 -7 20 -25 20 -18 0 -25 5 -25 20 0 18 -7 20 -60 20 -53 0 -60 2 -60 20 0
13 -7 20 -20 20 -15 0 -20 7 -20 25 0 25 -1 25 -85 25 -78 0 -85 2 -85 20 0
19 -7 20 -105 20 -98 0 -105 1 -105 20 0 18 -7 20 -80 20 -73 0 -80 2 -80 20
0 17 -7 20 -45 20 -38 0 -45 3 -45 20 0 18 -7 20 -80 20 -73 0 -80 2 -80 20 0
19 -7 20 -250 20 l-250 0 0 25 0 25 -150 0 c-143 0 -150 1 -150 20 0 19 -7 20
-125 20 -118 0 -125 1 -125 20 0 20 -7 20 -290 20 -283 0 -290 0 -290 -20 0
-17 -7 -20 -40 -20 -33 0 -40 3 -40 20 0 20 -7 20 -605 20 -598 0 -605 0 -605
-20z m5250 -4795 l0 -65 -65 0 c-58 0 -65 -2 -65 -20 0 -17 -7 -20 -40 -20
-33 0 -40 -3 -40 -20 0 -13 -7 -20 -20 -20 -17 0 -20 7 -20 40 0 33 3 40 20
40 15 0 20 7 20 25 0 23 4 25 40 25 33 0 40 3 40 20 0 17 7 20 45 20 38 0 45
3 45 20 0 13 7 20 20 20 18 0 20 -7 20 -65z m-4250 -935 c0 -33 3 -40 20 -40
19 0 20 -7 20 -145 0 -138 -1 -145 -20 -145 -17 0 -20 -7 -20 -45 l0 -45 60 0
c53 0 60 2 60 20 0 15 7 20 25 20 18 0 25 -5 25 -20 0 -18 7 -20 60 -20 53 0
60 -2 60 -20 0 -13 -7 -20 -20 -20 -13 0 -20 -7 -20 -20 0 -18 -7 -20 -65 -20
-58 0 -65 -2 -65 -20 0 -13 -7 -20 -20 -20 -13 0 -20 7 -20 20 0 13 -7 20 -20
20 -17 0 -20 -7 -20 -40 0 -33 -3 -40 -20 -40 -15 0 -20 -7 -20 -25 0 -18 -5
-25 -20 -25 -19 0 -20 -7 -20 -185 0 -178 1 -185 20 -185 13 0 20 -7 20 -20 0
-13 -7 -20 -20 -20 -13 0 -20 -7 -20 -20 0 -13 -7 -20 -20 -20 -19 0 -20 7
-20 100 l0 100 -25 0 c-20 0 -25 5 -25 25 0 18 -5 25 -20 25 -18 0 -20 7 -20
80 0 73 -2 80 -20 80 -13 0 -20 7 -20 20 0 13 7 20 20 20 15 0 20 7 20 25 0
23 4 25 45 25 38 0 45 3 45 20 0 15 -7 20 -25 20 -25 0 -25 1 -25 80 l0 80 45
0 c41 0 45 2 45 25 0 24 -2 25 -65 25 -58 0 -65 2 -65 20 0 13 -7 20 -20 20
-19 0 -20 7 -20 125 0 118 1 125 20 125 13 0 20 -7 20 -20 0 -13 7 -20 20 -20
13 0 20 7 20 20 0 15 7 20 25 20 18 0 25 5 25 20 0 13 7 20 20 20 13 0 20 7
20 20 0 13 7 20 20 20 17 0 20 -7 20 -40z m4250 -60 c0 -13 7 -20 20 -20 18 0
20 -7 20 -65 l0 -65 -40 0 c-33 0 -40 3 -40 20 0 13 -7 20 -20 20 -18 0 -20 7
-20 65 l0 65 40 0 c33 0 40 -3 40 -20z m-3460 -670 c0 -17 7 -20 40 -20 l40 0
0 -40 c0 -36 3 -40 25 -40 23 0 25 -4 25 -45 0 -38 3 -45 20 -45 13 0 20 7 20
20 0 13 7 20 20 20 15 0 20 7 20 25 0 18 5 25 20 25 18 0 20 -7 20 -65 0 -58
2 -65 20 -65 18 0 20 -7 20 -60 0 -53 2 -60 20 -60 15 0 20 -7 20 -25 0 -20 5
-25 25 -25 23 0 25 -4 25 -40 0 -36 -2 -40 -25 -40 -18 0 -25 -5 -25 -20 0
-15 7 -20 25 -20 18 0 25 -5 25 -20 0 -13 7 -20 20 -20 13 0 20 -7 20 -20 0
-13 -7 -20 -20 -20 -15 0 -20 -7 -20 -25 0 -20 -5 -25 -25 -25 -25 0 -25 -1
-25 -80 0 -73 -2 -80 -20 -80 -13 0 -20 -7 -20 -20 0 -13 -7 -20 -20 -20 -18
0 -20 -7 -20 -65 l0 -65 -40 0 -40 0 0 -40 c0 -33 -3 -40 -20 -40 -13 0 -20
-7 -20 -20 0 -15 -7 -20 -25 -20 -20 0 -25 -5 -25 -25 0 -18 -5 -25 -20 -25
-13 0 -20 -7 -20 -20 0 -13 -7 -20 -20 -20 -17 0 -20 -7 -20 -40 0 -33 -3 -40
-20 -40 -17 0 -20 7 -20 40 l0 40 -40 0 c-33 0 -40 -3 -40 -20 0 -13 7 -20 20
-20 17 0 20 -7 20 -40 l0 -40 -45 0 -45 0 0 -45 0 -45 -80 0 c-79 0 -80 0 -80
25 0 18 -5 25 -20 25 -18 0 -20 7 -20 80 0 79 0 80 -25 80 -18 0 -25 5 -25 20
0 13 -7 20 -20 20 -15 0 -20 7 -20 25 0 18 -5 25 -20 25 -13 0 -20 7 -20 20 0
18 -7 20 -60 20 l-60 0 0 40 0 40 -45 0 -45 0 0 65 c0 58 -2 65 -20 65 -13 0
-20 7 -20 20 0 13 -7 20 -20 20 -17 0 -20 7 -20 40 0 33 -3 40 -20 40 -13 0
-20 7 -20 20 0 13 -7 20 -20 20 -17 0 -20 7 -20 45 l0 45 40 0 c33 0 40 3 40
20 0 13 -7 20 -20 20 -18 0 -20 7 -20 60 l0 60 40 0 c33 0 40 -3 40 -20 0 -13
7 -20 20 -20 17 0 20 -7 20 -40 0 -33 3 -40 20 -40 13 0 20 -7 20 -20 0 -15 7
-20 25 -20 20 0 25 -5 25 -25 0 -22 4 -25 40 -25 33 0 40 -3 40 -20 0 -17 7
-20 40 -20 33 0 40 -3 40 -20 0 -18 7 -20 65 -20 58 0 65 -2 65 -20 0 -18 7
-20 80 -20 73 0 80 -2 80 -20 0 -15 7 -20 25 -20 18 0 25 -5 25 -20 0 -13 7
-20 20 -20 15 0 20 -7 20 -25 0 -25 1 -25 80 -25 79 0 80 0 80 25 0 20 5 25
25 25 18 0 25 5 25 20 0 13 7 20 20 20 19 0 20 7 20 105 0 98 -1 105 -20 105
-17 0 -20 7 -20 40 0 36 -2 40 -25 40 -18 0 -25 5 -25 20 0 13 -7 20 -20 20
-17 0 -20 7 -20 40 0 33 -3 40 -20 40 -18 0 -20 7 -20 65 0 58 -2 65 -20 65
-17 0 -20 7 -20 40 0 33 -3 40 -20 40 -18 0 -20 7 -20 85 0 78 2 85 20 85 13
0 20 7 20 20 0 13 7 20 20 20 13 0 20 -7 20 -20z m-3370 -5060 c0 -33 3 -40
20 -40 15 0 20 -7 20 -25 0 -18 5 -25 20 -25 17 0 20 -7 20 -40 0 -33 3 -40
20 -40 17 0 20 -7 20 -40 0 -33 -3 -40 -20 -40 -13 0 -20 7 -20 20 0 13 -7 20
-20 20 -13 0 -20 7 -20 20 0 13 -7 20 -20 20 -17 0 -20 7 -20 40 l0 40 -45 0
-45 0 0 65 0 65 45 0 45 0 0 -40z m200 -335 c0 -41 2 -45 25 -45 18 0 25 -5
25 -20 0 -13 7 -20 20 -20 17 0 20 -7 20 -40 0 -33 3 -40 20 -40 17 0 20 -7
20 -45 0 -38 3 -45 20 -45 13 0 20 -7 20 -20 0 -13 7 -20 20 -20 13 0 20 -7
20 -20 0 -13 7 -20 20 -20 13 0 20 -7 20 -20 0 -15 7 -20 25 -20 23 0 25 -4
25 -40 0 -33 3 -40 20 -40 15 0 20 -7 20 -25 0 -18 5 -25 20 -25 17 0 20 -7
20 -40 0 -33 3 -40 20 -40 13 0 20 -7 20 -20 0 -13 7 -20 20 -20 13 0 20 -7
20 -20 0 -13 7 -20 20 -20 13 0 20 -7 20 -20 0 -15 7 -20 25 -20 20 0 25 -5
25 -25 0 -18 5 -25 20 -25 13 0 20 -7 20 -20 0 -13 7 -20 20 -20 13 0 20 -7
20 -20 0 -13 7 -20 20 -20 17 0 20 -7 20 -40 l0 -40 40 0 c33 0 40 -3 40 -20
0 -15 7 -20 25 -20 23 0 25 -4 25 -45 l0 -45 40 0 c33 0 40 -3 40 -20 0 -17 7
-20 40 -20 33 0 40 -3 40 -20 0 -13 7 -20 20 -20 17 0 20 -7 20 -40 l0 -40 45
0 c41 0 45 -2 45 -25 0 -22 4 -25 40 -25 33 0 40 -3 40 -20 0 -13 7 -20 20
-20 13 0 20 -7 20 -20 0 -17 7 -20 45 -20 38 0 45 -3 45 -20 0 -13 7 -20 20
-20 13 0 20 -7 20 -20 0 -13 7 -20 20 -20 13 0 20 -7 20 -20 0 -18 7 -20 60
-20 57 0 60 -1 60 -25 0 -23 4 -25 45 -25 38 0 45 -3 45 -20 0 -17 7 -20 40
-20 33 0 40 -3 40 -20 0 -17 7 -20 40 -20 33 0 40 -3 40 -20 0 -17 7 -20 45
-20 38 0 45 -3 45 -20 0 -18 7 -20 60 -20 l60 0 0 -65 c0 -58 -2 -65 -20 -65
-13 0 -20 7 -20 20 0 17 -7 20 -40 20 -36 0 -40 3 -40 25 0 24 -2 25 -65 25
-58 0 -65 2 -65 20 0 19 -7 20 -105 20 -98 0 -105 1 -105 20 0 13 -7 20 -20
20 -17 0 -20 7 -20 40 l0 40 -40 0 c-33 0 -40 3 -40 20 0 13 -7 20 -20 20 -15
0 -20 7 -20 25 0 23 -4 25 -45 25 -38 0 -45 3 -45 20 0 13 -7 20 -20 20 -13 0
-20 7 -20 20 0 13 -7 20 -20 20 -13 0 -20 -7 -20 -20 0 -13 -7 -20 -20 -20
-13 0 -20 7 -20 20 0 13 -7 20 -20 20 -13 0 -20 7 -20 20 0 18 -7 20 -65 20
l-65 0 0 40 0 40 -40 0 -40 0 0 45 c0 38 -3 45 -20 45 -13 0 -20 7 -20 20 0
13 -7 20 -20 20 -13 0 -20 7 -20 20 0 17 -7 20 -45 20 -38 0 -45 3 -45 20 0
13 -7 20 -20 20 -13 0 -20 7 -20 20 0 13 -7 20 -20 20 -15 0 -20 7 -20 25 0
18 -5 25 -20 25 -17 0 -20 7 -20 40 l0 40 -45 0 -45 0 0 40 c0 33 -3 40 -20
40 -18 0 -20 7 -20 65 l0 65 -40 0 -40 0 0 40 c0 33 -3 40 -20 40 -13 0 -20 7
-20 20 0 13 -7 20 -20 20 -13 0 -20 7 -20 20 0 17 -7 20 -45 20 l-45 0 0 65
c0 58 -2 65 -20 65 -17 0 -20 7 -20 40 0 33 -3 40 -20 40 -13 0 -20 7 -20 20
0 13 -7 20 -20 20 -15 0 -20 7 -20 25 0 23 -4 25 -45 25 l-45 0 0 80 c0 73 -2
80 -20 80 -17 0 -20 7 -20 45 0 38 3 45 20 45 17 0 20 -7 20 -45z"/>
<path d="M8330 14620 l0 -40 -40 0 -40 0 0 -45 c0 -38 -3 -45 -20 -45 -20 0
-20 -7 -20 -270 0 -263 0 -270 20 -270 13 0 20 -7 20 -20 0 -13 7 -20 20 -20
13 0 20 -7 20 -20 0 -13 7 -20 20 -20 13 0 20 -7 20 -20 0 -13 7 -20 20 -20
15 0 20 -7 20 -25 0 -25 1 -25 85 -25 78 0 85 -2 85 -20 0 -17 7 -20 40 -20
33 0 40 3 40 20 0 17 7 20 45 20 41 0 45 2 45 25 l0 25 230 0 c223 0 230 1
230 20 0 18 7 20 60 20 53 0 60 2 60 20 0 17 7 20 40 20 33 0 40 3 40 20 0 17
7 20 45 20 38 0 45 3 45 20 0 13 7 20 20 20 13 0 20 7 20 20 0 13 7 20 20 20
17 0 20 7 20 45 0 38 -3 45 -20 45 -17 0 -20 -7 -20 -45 0 -38 -3 -45 -20 -45
-13 0 -20 -7 -20 -20 0 -17 -7 -20 -45 -20 -38 0 -45 3 -45 20 0 15 7 20 25
20 20 0 25 5 25 25 0 18 5 25 20 25 13 0 20 7 20 20 0 13 -7 20 -20 20 -17 0
-20 7 -20 40 0 36 -2 40 -25 40 -18 0 -25 -5 -25 -20 0 -13 -7 -20 -20 -20
-17 0 -20 7 -20 40 0 33 -3 40 -20 40 -13 0 -20 -7 -20 -20 0 -17 -7 -20 -40
-20 -33 0 -40 -3 -40 -20 0 -13 -7 -20 -20 -20 -13 0 -20 7 -20 20 0 15 -7 20
-25 20 -18 0 -25 -5 -25 -20 0 -17 -7 -20 -40 -20 -33 0 -40 -3 -40 -20 0 -18
-7 -20 -85 -20 -78 0 -85 -2 -85 -20 0 -17 -7 -20 -40 -20 -33 0 -40 3 -40 20
0 13 7 20 20 20 13 0 20 7 20 20 0 13 -7 20 -20 20 -13 0 -20 7 -20 20 0 18
-7 20 -60 20 -53 0 -60 2 -60 20 0 15 -7 20 -25 20 -18 0 -25 -5 -25 -20 0
-18 -7 -20 -60 -20 -53 0 -60 2 -60 20 0 13 -7 20 -20 20 -13 0 -20 7 -20 20
0 13 -7 20 -20 20 -18 0 -20 7 -20 85 0 84 0 85 -25 85 -22 0 -25 4 -25 40 0
33 -3 40 -20 40 -15 0 -20 7 -20 25 0 18 5 25 20 25 17 0 20 7 20 40 0 33 -3
40 -20 40 -17 0 -20 -7 -20 -40z"/>
<path d="M12017 13838 c-54 -129 -1787 -4427 -1787 -4432 0 -3 245 -6 545 -6
508 0 545 1 553 18 5 9 80 209 167 445 l158 427 851 0 851 0 164 -445 164
-445 294 0 293 0 0 636 0 635 -219 542 c-192 475 -1055 2611 -1068 2645 -4 9
-109 12 -479 12 l-474 0 -13 -32z m738 -1993 c131 -341 240 -628 243 -637 4
-17 -24 -18 -492 -18 -348 0 -496 3 -496 11 0 8 407 1076 476 1248 11 29 19
39 24 30 4 -8 114 -293 245 -634z"/>
<path d="M8580 13140 c0 -19 -7 -20 -105 -20 -98 0 -105 -1 -105 -20 0 -19 -7
-20 -145 -20 l-145 0 0 -45 0 -45 -40 0 -40 0 0 -40 c0 -33 -3 -40 -20 -40
-19 0 -20 -7 -20 -105 l0 -105 145 0 c138 0 145 1 145 20 0 17 7 20 40 20 l40
0 0 45 0 45 45 0 c38 0 45 3 45 20 0 17 7 20 40 20 33 0 40 -3 40 -20 0 -13 7
-20 20 -20 13 0 20 7 20 20 0 13 7 20 20 20 18 0 20 7 20 60 0 53 2 60 20 60
13 0 20 7 20 20 0 15 7 20 25 20 24 0 25 2 25 65 l0 65 -45 0 c-38 0 -45 -3
-45 -20z"/>
<path d="M14307 11983 c-4 -3 -7 -586 -7 -1295 l0 -1288 265 0 265 0 0 85 c0
47 3 85 6 85 3 0 30 -22 59 -48 188 -172 508 -213 762 -97 39 18 91 46 115 63
47 32 139 121 169 163 18 25 18 26 -15 71 -145 205 -177 511 -76 750 15 37 47
95 70 129 l41 61 -27 40 c-88 127 -274 240 -450 274 -211 40 -463 -18 -599
-138 l-45 -40 0 596 0 596 -263 0 c-145 0 -267 -3 -270 -7z m1025 -1481 c167
-74 246 -266 188 -455 -50 -161 -223 -259 -400 -227 -117 21 -204 85 -256 187
-26 53 -29 66 -28 163 0 123 17 171 85 245 81 88 153 116 279 111 58 -2 100
-10 132 -24z"/>
<path d="M19130 11275 l0 -285 -110 0 -110 0 0 -205 0 -205 109 0 109 0 4
-372 c4 -314 7 -382 22 -433 58 -203 170 -318 352 -361 134 -31 346 -7 496 58
41 18 48 24 42 42 -4 11 -33 106 -65 210 -32 104 -60 190 -62 192 -2 3 -24 -5
-48 -16 -49 -22 -109 -26 -141 -9 -11 6 -28 29 -39 52 -17 38 -19 69 -19 340
l0 297 160 0 160 0 -2 203 -3 202 -157 3 -158 3 -2 282 -3 282 -267 3 -268 2
0 -285z"/>
<path d="M16625 10984 c-417 -58 -725 -319 -786 -668 -17 -101 -7 -293 21
-381 85 -270 291 -457 595 -542 94 -26 112 -28 295 -28 213 0 275 11 427 74
114 47 284 167 298 211 3 9 -6 43 -19 76 -51 125 -56 180 -56 628 l0 416 -47
35 c-76 57 -221 123 -329 151 -76 19 -130 26 -234 29 -74 2 -148 2 -165 -1z
m276 -486 c109 -50 177 -139 200 -262 46 -249 -157 -456 -408 -417 -120 19
-200 73 -254 173 -33 61 -34 66 -34 178 0 112 1 117 34 178 33 60 85 113 141
142 91 48 227 51 321 8z"/>
<path d="M17433 10428 c4 -575 6 -588 76 -735 53 -110 131 -188 243 -242 156
-75 289 -96 571 -88 226 5 334 26 462 87 85 40 192 140 233 217 66 124 72 170
72 540 l0 333 -110 0 -110 0 0 200 0 200 -150 0 -150 0 0 -399 c0 -522 -12
-605 -100 -685 -52 -46 -99 -60 -206 -60 -82 0 -98 3 -150 29 -43 22 -66 42
-86 75 -52 84 -58 143 -58 613 l0 427 -271 0 -270 0 4 -512z"/>
<path d="M0 9700 c0 -243 1 -250 20 -250 13 0 20 7 20 20 0 19 7 20 145 20
138 0 145 -1 145 -20 0 -17 7 -20 45 -20 l45 0 0 40 c0 36 -2 40 -25 40 -24 0
-25 2 -25 65 0 58 -2 65 -20 65 -13 0 -20 7 -20 20 0 13 -7 20 -20 20 -17 0
-20 7 -20 40 0 33 -3 40 -20 40 -17 0 -20 7 -20 45 0 38 -3 45 -20 45 -13 0
-20 7 -20 20 0 13 -7 20 -20 20 -13 0 -20 7 -20 20 0 18 -7 20 -85 20 l-85 0
0 -250z"/>
<path d="M5750 9805 c0 -18 -5 -25 -20 -25 -13 0 -20 -7 -20 -20 0 -13 7 -20
20 -20 17 0 20 -7 20 -40 0 -33 3 -40 20 -40 17 0 20 -7 20 -40 0 -33 3 -40
20 -40 17 0 20 -7 20 -45 0 -38 3 -45 20 -45 13 0 20 -7 20 -20 0 -17 7 -20
45 -20 38 0 45 3 45 20 0 13 7 20 20 20 13 0 20 7 20 20 0 17 7 20 40 20 36 0
40 3 40 25 0 18 5 25 20 25 17 0 20 7 20 40 l0 40 -40 0 c-33 0 -40 3 -40 20
0 13 -7 20 -20 20 -13 0 -20 7 -20 20 0 17 -7 20 -40 20 -33 0 -40 3 -40 20 0
15 -7 20 -25 20 -20 0 -25 5 -25 25 0 24 -3 25 -60 25 -57 0 -60 -1 -60 -25z"/>
<path d="M0 8910 l0 -210 60 0 c53 0 60 2 60 20 0 18 7 20 65 20 l65 0 0 65
c0 58 -2 65 -20 65 -17 0 -20 7 -20 40 0 33 -3 40 -20 40 -13 0 -20 7 -20 20
0 15 -7 20 -25 20 -18 0 -25 5 -25 20 0 17 -7 20 -40 20 l-40 0 0 45 c0 38 -3
45 -20 45 -19 0 -20 -7 -20 -210z"/>
<path d="M6870 9075 c0 -41 2 -45 25 -45 23 0 25 -4 25 -40 0 -33 3 -40 20
-40 13 0 20 -7 20 -20 0 -13 7 -20 20 -20 17 0 20 -7 20 -40 0 -33 3 -40 20
-40 18 0 20 -7 20 -65 0 -58 2 -65 20 -65 18 0 20 -7 20 -60 0 -53 2 -60 20
-60 17 0 20 -7 20 -45 0 -41 2 -45 25 -45 24 0 25 -3 25 -60 0 -53 2 -60 20
-60 18 0 20 -7 20 -65 0 -58 2 -65 20 -65 19 0 20 -7 20 -165 0 -158 1 -165
20 -165 19 0 20 -7 20 -125 0 -118 -1 -125 -20 -125 -18 0 -20 -7 -20 -65 0
-58 2 -65 20 -65 17 0 20 -7 20 -40 0 -33 -3 -40 -20 -40 -19 0 -20 -7 -20
-185 0 -178 -1 -185 -20 -185 -19 0 -20 -7 -20 -230 0 -223 -1 -230 -20 -230
-18 0 -20 -7 -20 -65 l0 -65 40 0 c33 0 40 3 40 20 0 13 7 20 20 20 17 0 20 7
20 45 0 38 3 45 20 45 18 0 20 7 20 60 0 53 2 60 20 60 17 0 20 7 20 45 0 41
2 45 25 45 23 0 25 4 25 40 0 33 3 40 20 40 18 0 20 7 20 60 0 53 2 60 20 60
18 0 20 7 20 85 0 78 2 85 20 85 20 0 20 7 20 375 0 368 0 375 -20 375 -19 0
-20 7 -20 210 0 203 -1 210 -20 210 -18 0 -20 7 -20 60 0 53 -2 60 -20 60 -17
0 -20 7 -20 45 0 41 -2 45 -25 45 -18 0 -25 5 -25 20 0 13 -7 20 -20 20 -17 0
-20 7 -20 40 0 33 -3 40 -20 40 -13 0 -20 7 -20 20 0 13 -7 20 -20 20 -17 0
-20 7 -20 45 0 38 -3 45 -20 45 -13 0 -20 7 -20 20 0 13 -7 20 -20 20 -13 0
-20 7 -20 20 0 15 -7 20 -25 20 -18 0 -25 5 -25 20 0 13 -7 20 -20 20 -13 0
-20 7 -20 20 0 13 -7 20 -20 20 -13 0 -20 7 -20 20 0 13 -7 20 -20 20 -15 0
-20 7 -20 25 0 23 -4 25 -40 25 -33 0 -40 3 -40 20 0 15 -7 20 -25 20 -23 0
-25 -4 -25 -45z"/>
<path d="M420 8515 c0 -58 2 -65 20 -65 13 0 20 -7 20 -20 0 -13 7 -20 20 -20
17 0 20 -7 20 -40 0 -33 3 -40 20 -40 15 0 20 -7 20 -25 0 -18 5 -25 20 -25
18 0 20 -7 20 -60 l0 -60 -40 0 c-33 0 -40 -3 -40 -20 0 -13 -7 -20 -20 -20
-13 0 -20 -7 -20 -20 0 -17 -7 -20 -45 -20 l-45 0 0 -45 c0 -41 2 -45 25 -45
18 0 25 -5 25 -20 0 -17 7 -20 40 -20 33 0 40 -3 40 -20 0 -17 7 -20 40 -20
33 0 40 -3 40 -20 0 -13 7 -20 20 -20 13 0 20 -7 20 -20 0 -17 7 -20 45 -20
41 0 45 -2 45 -25 0 -18 5 -25 20 -25 13 0 20 -7 20 -20 0 -13 7 -20 20 -20
13 0 20 7 20 20 0 17 7 20 40 20 36 0 40 3 40 25 0 20 5 25 25 25 23 0 25 4
25 40 0 33 3 40 20 40 13 0 20 7 20 20 0 13 -7 20 -20 20 -13 0 -20 7 -20 20
0 17 -7 20 -45 20 -38 0 -45 3 -45 20 0 19 7 20 230 20 l230 0 0 25 c0 24 2
25 65 25 58 0 65 2 65 20 0 15 -7 20 -25 20 -18 0 -25 5 -25 20 0 13 -7 20
-20 20 -17 0 -20 7 -20 40 0 33 -3 40 -20 40 -17 0 -20 7 -20 45 0 38 -3 45
-20 45 -13 0 -20 7 -20 20 0 13 -7 20 -20 20 -17 0 -20 7 -20 40 0 33 -3 40
-20 40 -13 0 -20 7 -20 20 0 15 -7 20 -25 20 -18 0 -25 5 -25 20 0 19 -7 20
-250 20 l-250 0 0 25 0 25 -100 0 -100 0 0 -65z"/>
<path d="M0 7765 l0 -185 60 0 c57 0 60 -1 60 -25 0 -23 4 -25 45 -25 38 0 45
-3 45 -20 0 -18 7 -20 60 -20 53 0 60 -2 60 -20 0 -17 7 -20 45 -20 38 0 45
-3 45 -20 0 -17 7 -20 40 -20 33 0 40 -3 40 -20 0 -17 7 -20 40 -20 33 0 40
-3 40 -20 0 -17 7 -20 45 -20 41 0 45 -2 45 -25 0 -24 3 -25 60 -25 53 0 60
-2 60 -20 0 -13 7 -20 20 -20 13 0 20 -7 20 -20 0 -17 -7 -20 -40 -20 -33 0
-40 3 -40 20 0 18 -7 20 -65 20 -58 0 -65 2 -65 20 0 17 -7 20 -40 20 -36 0
-40 3 -40 25 0 25 -1 25 -85 25 -78 0 -85 2 -85 20 0 18 -7 20 -60 20 -53 0
-60 2 -60 20 0 18 -7 20 -85 20 -78 0 -85 2 -85 20 0 17 -7 20 -40 20 l-40 0
0 -185 0 -185 60 0 c57 0 60 -1 60 -25 0 -25 1 -25 85 -25 78 0 85 -2 85 -20
0 -18 7 -20 65 -20 58 0 65 -2 65 -20 0 -17 7 -20 40 -20 33 0 40 -3 40 -20 0
-18 7 -20 60 -20 53 0 60 -2 60 -20 0 -17 7 -20 45 -20 38 0 45 -3 45 -20 0
-17 7 -20 40 -20 36 0 40 -2 40 -25 0 -18 5 -25 20 -25 13 0 20 -7 20 -20 0
-17 7 -20 45 -20 38 0 45 -3 45 -20 0 -17 7 -20 40 -20 33 0 40 -3 40 -20 0
-17 7 -20 40 -20 33 0 40 -3 40 -20 0 -17 7 -20 45 -20 38 0 45 -3 45 -20 0
-13 7 -20 20 -20 15 0 20 -7 20 -25 0 -22 4 -25 40 -25 33 0 40 -3 40 -20 0
-17 7 -20 40 -20 33 0 40 -3 40 -20 0 -15 7 -20 25 -20 18 0 25 -5 25 -20 0
-13 7 -20 20 -20 13 0 20 -7 20 -20 0 -13 7 -20 20 -20 13 0 20 -7 20 -20 0
-17 7 -20 40 -20 36 0 40 -2 40 -25 0 -18 5 -25 20 -25 13 0 20 -7 20 -20 0
-15 7 -20 25 -20 18 0 25 -5 25 -20 0 -13 7 -20 20 -20 13 0 20 -7 20 -20 0
-17 7 -20 40 -20 33 0 40 3 40 20 0 13 -7 20 -20 20 -17 0 -20 7 -20 40 0 33
-3 40 -20 40 -17 0 -20 7 -20 45 0 38 -3 45 -20 45 -13 0 -20 7 -20 20 0 15
-7 20 -25 20 -22 0 -25 4 -25 40 0 33 -3 40 -20 40 -13 0 -20 7 -20 20 0 13
-7 20 -20 20 -15 0 -20 7 -20 25 0 18 -5 25 -20 25 -13 0 -20 7 -20 20 0 13
-7 20 -20 20 -17 0 -20 7 -20 40 0 33 -3 40 -20 40 -13 0 -20 7 -20 20 0 15
-7 20 -25 20 -18 0 -25 5 -25 20 0 13 -7 20 -20 20 -15 0 -20 7 -20 25 0 18
-5 25 -20 25 -13 0 -20 7 -20 20 0 13 -7 20 -20 20 -17 0 -20 7 -20 40 0 33 3
40 20 40 17 0 20 7 20 40 0 33 -3 40 -20 40 -17 0 -20 7 -20 45 0 38 -3 45
-20 45 -13 0 -20 7 -20 20 0 13 -7 20 -20 20 -17 0 -20 7 -20 40 0 36 -2 40
-25 40 -18 0 -25 5 -25 20 0 13 -7 20 -20 20 -15 0 -20 7 -20 25 0 18 -5 25
-20 25 -17 0 -20 7 -20 40 0 33 -3 40 -20 40 -13 0 -20 7 -20 20 0 13 -7 20
-20 20 -13 0 -20 7 -20 20 0 13 -7 20 -20 20 -13 0 -20 7 -20 20 0 17 -7 20
-45 20 -41 0 -45 2 -45 25 0 18 -5 25 -20 25 -13 0 -20 7 -20 20 0 17 -7 20
-40 20 -33 0 -40 3 -40 20 0 17 -7 20 -45 20 -38 0 -45 3 -45 20 0 17 -7 20
-40 20 -33 0 -40 3 -40 20 0 18 -7 20 -60 20 -53 0 -60 2 -60 20 0 15 -7 20
-25 20 -20 0 -25 5 -25 25 0 24 -3 25 -60 25 -53 0 -60 2 -60 20 0 17 -7 20
-40 20 -33 0 -40 3 -40 20 0 17 -7 20 -45 20 -38 0 -45 3 -45 20 0 17 -7 20
-40 20 l-40 0 0 -185z"/>
<path d="M7870 7805 c0 -63 1 -65 25 -65 l25 0 0 -145 c0 -138 1 -145 20 -145
19 0 20 -7 20 -145 0 -138 -1 -145 -20 -145 -19 0 -20 -7 -20 -190 l0 -190
-25 0 -25 0 0 -100 c0 -93 -1 -100 -20 -100 -18 0 -20 -7 -20 -65 0 -58 -2
-65 -20 -65 -18 0 -20 -7 -20 -60 0 -53 -2 -60 -20 -60 -17 0 -20 -7 -20 -45
0 -38 -3 -45 -20 -45 -17 0 -20 -7 -20 -40 0 -33 -3 -40 -20 -40 -13 0 -20 -7
-20 -20 0 -15 -7 -20 -25 -20 -18 0 -25 -5 -25 -20 0 -13 -7 -20 -20 -20 -15
0 -20 -7 -20 -25 0 -18 -5 -25 -20 -25 -13 0 -20 -7 -20 -20 0 -13 -7 -20 -20
-20 -13 0 -20 -7 -20 -20 0 -13 -7 -20 -20 -20 -13 0 -20 -7 -20 -20 0 -13 -7
-20 -20 -20 -13 0 -20 -7 -20 -20 0 -15 -7 -20 -25 -20 -18 0 -25 -5 -25 -20
0 -13 -7 -20 -20 -20 -15 0 -20 -7 -20 -25 0 -18 -5 -25 -20 -25 -13 0 -20 -7
-20 -20 0 -17 -7 -20 -40 -20 -33 0 -40 -3 -40 -20 0 -13 -7 -20 -20 -20 -13
0 -20 -7 -20 -20 0 -15 -7 -20 -25 -20 -18 0 -25 -5 -25 -20 0 -13 -7 -20 -20
-20 -13 0 -20 -7 -20 -20 0 -13 -7 -20 -20 -20 -15 0 -20 -7 -20 -25 0 -18 -5
-25 -20 -25 -19 0 -20 -7 -20 -100 0 -93 -1 -100 -20 -100 -15 0 -20 -7 -20
-25 0 -24 3 -25 60 -25 57 0 60 1 60 25 0 18 5 25 20 25 13 0 20 7 20 20 0 15
7 20 25 20 18 0 25 5 25 20 0 13 7 20 20 20 13 0 20 7 20 20 0 13 7 20 20 20
13 0 20 7 20 20 0 13 7 20 20 20 13 0 20 7 20 20 0 17 7 20 40 20 36 0 40 3
40 25 0 20 5 25 25 25 18 0 25 5 25 20 0 13 7 20 20 20 13 0 20 7 20 20 0 13
7 20 20 20 13 0 20 7 20 20 0 13 7 20 20 20 17 0 20 7 20 40 0 33 3 40 20 40
15 0 20 7 20 25 0 18 5 25 20 25 13 0 20 7 20 20 0 15 7 20 25 20 18 0 25 5
25 20 0 13 7 20 20 20 17 0 20 7 20 40 0 33 3 40 20 40 13 0 20 7 20 20 0 13
7 20 20 20 15 0 20 7 20 25 0 18 5 25 20 25 17 0 20 7 20 40 0 33 3 40 20 40
17 0 20 7 20 40 0 36 3 40 25 40 23 0 25 4 25 45 0 38 3 45 20 45 18 0 20 7
20 60 0 53 2 60 20 60 18 0 20 7 20 65 0 58 2 65 20 65 19 0 20 7 20 125 0
118 1 125 20 125 19 0 20 7 20 165 0 158 1 165 20 165 17 0 20 7 20 40 0 33
-3 40 -20 40 -19 0 -20 7 -20 170 0 163 -1 170 -20 170 -17 0 -20 7 -20 40 0
33 -3 40 -20 40 -17 0 -20 7 -20 40 0 33 -3 40 -20 40 -17 0 -20 7 -20 45 0
38 -3 45 -20 45 -13 0 -20 7 -20 20 0 15 -7 20 -25 20 -24 0 -25 -2 -25 -65z"/>
<path d="M1080 7760 c0 -13 7 -20 20 -20 17 0 20 -7 20 -40 0 -36 3 -40 25
-40 23 0 25 -4 25 -40 0 -33 3 -40 20 -40 15 0 20 -7 20 -25 0 -18 5 -25 20
-25 13 0 20 -7 20 -20 0 -13 7 -20 20 -20 17 0 20 -7 20 -40 0 -33 3 -40 20
-40 17 0 20 -7 20 -40 0 -33 3 -40 20 -40 17 0 20 -7 20 -45 0 -41 2 -45 25
-45 18 0 25 -5 25 -20 0 -13 7 -20 20 -20 17 0 20 -7 20 -40 0 -33 3 -40 20
-40 17 0 20 -7 20 -45 0 -38 3 -45 20 -45 13 0 20 -7 20 -20 0 -13 -7 -20 -20
-20 -13 0 -20 -7 -20 -20 0 -13 -7 -20 -20 -20 -13 0 -20 -7 -20 -20 0 -13 7
-20 20 -20 13 0 20 -7 20 -20 0 -13 7 -20 20 -20 13 0 20 -7 20 -20 0 -13 7
-20 20 -20 17 0 20 -7 20 -45 0 -38 3 -45 20 -45 17 0 20 -7 20 -40 0 -36 3
-40 25 -40 23 0 25 -4 25 -40 l0 -40 60 0 c57 0 60 -1 60 -25 0 -18 5 -25 20
-25 17 0 20 -7 20 -40 0 -33 3 -40 20 -40 17 0 20 -7 20 -40 0 -36 3 -40 25
-40 18 0 25 -5 25 -20 0 -13 7 -20 20 -20 17 0 20 -7 20 -45 0 -38 3 -45 20
-45 17 0 20 -7 20 -40 0 -33 3 -40 20 -40 18 0 20 7 20 60 0 53 -2 60 -20 60
-18 0 -20 7 -20 65 0 58 -2 65 -20 65 -18 0 -20 7 -20 60 l0 60 105 0 105 0 0
25 0 25 100 0 c93 0 100 1 100 20 0 13 -7 20 -20 20 -17 0 -20 7 -20 40 0 33
-3 40 -20 40 -13 0 -20 7 -20 20 0 13 -7 20 -20 20 -13 0 -20 7 -20 20 0 13
-7 20 -20 20 -17 0 -20 7 -20 45 0 38 -3 45 -20 45 -13 0 -20 7 -20 20 0 15
-7 20 -25 20 -18 0 -25 5 -25 20 0 13 -7 20 -20 20 -13 0 -20 7 -20 20 0 13
-7 20 -20 20 -13 0 -20 7 -20 20 0 17 -7 20 -40 20 -36 0 -40 3 -40 25 0 24
-2 25 -65 25 -58 0 -65 2 -65 20 0 18 -7 20 -60 20 -53 0 -60 2 -60 20 0 13
-7 20 -20 20 -13 0 -20 7 -20 20 0 17 -7 20 -45 20 l-45 0 0 40 c0 33 -3 40
-20 40 -15 0 -20 7 -20 25 0 18 -5 25 -20 25 -13 0 -20 7 -20 20 0 13 -7 20
-20 20 -17 0 -20 7 -20 40 0 33 -3 40 -20 40 -13 0 -20 7 -20 20 0 15 -7 20
-25 20 -18 0 -25 5 -25 20 0 13 -7 20 -20 20 -15 0 -20 7 -20 25 0 18 -5 25
-20 25 -17 0 -20 7 -20 40 0 33 -3 40 -20 40 -13 0 -20 7 -20 20 0 13 -7 20
-20 20 -13 0 -20 7 -20 20 0 13 -7 20 -20 20 -13 0 -20 7 -20 20 0 17 -7 20
-45 20 -38 0 -45 -3 -45 -20z"/>
<path d="M4580 7410 c0 -203 1 -210 20 -210 20 0 20 -7 20 -310 0 -303 0 -310
-20 -310 -19 0 -20 -7 -20 -230 0 -223 -1 -230 -20 -230 -18 0 -20 -7 -20 -85
0 -78 -2 -85 -20 -85 -13 0 -20 -7 -20 -20 0 -13 7 -20 20 -20 17 0 20 -7 20
-40 0 -33 3 -40 20 -40 15 0 20 -7 20 -25 0 -18 5 -25 20 -25 13 0 20 -7 20
-20 0 -15 7 -20 25 -20 18 0 25 5 25 20 0 13 7 20 20 20 15 0 20 7 20 25 0 18
5 25 20 25 19 0 20 7 20 125 0 118 1 125 20 125 19 0 20 7 20 125 0 118 -1
125 -20 125 -20 0 -20 7 -20 270 0 263 0 270 -20 270 -19 0 -20 7 -20 230 0
223 -1 230 -20 230 -19 0 -20 7 -20 145 l0 145 -45 0 -45 0 0 -210z"/>
<path d="M5290 6615 c0 -118 -1 -125 -20 -125 -19 0 -20 -7 -20 -105 0 -98 -1
-105 -20 -105 -19 0 -20 -7 -20 -125 0 -118 -1 -125 -20 -125 -18 0 -20 -7
-20 -80 l0 -80 40 0 40 0 0 185 0 185 105 0 c98 0 105 -1 105 -20 0 -19 7 -20
145 -20 138 0 145 -1 145 -20 0 -19 7 -20 185 -20 178 0 185 1 185 20 0 18 7
20 65 20 l65 0 0 -40 c0 -33 3 -40 20 -40 13 0 20 -7 20 -20 0 -18 7 -20 85
-20 84 0 85 0 85 -25 0 -18 5 -25 20 -25 15 0 20 7 20 25 l0 25 125 0 c118 0
125 1 125 20 0 18 7 20 85 20 78 0 85 2 85 20 0 13 7 20 20 20 17 0 20 7 20
40 l0 40 40 0 40 0 0 170 0 170 -105 0 -105 0 0 -25 c0 -18 -5 -25 -20 -25
-15 0 -20 7 -20 25 0 23 -4 25 -40 25 -36 0 -40 -2 -40 -25 0 -18 -5 -25 -20
-25 -15 0 -20 7 -20 25 0 24 -2 25 -65 25 -63 0 -65 -1 -65 -25 l0 -25 -125 0
-125 0 0 25 c0 18 -5 25 -20 25 -13 0 -20 7 -20 20 0 17 -7 20 -40 20 -33 0
-40 3 -40 20 0 19 -7 20 -170 20 -163 0 -170 1 -170 20 0 18 -7 20 -80 20 -73
0 -80 2 -80 20 0 19 -7 20 -190 20 l-190 0 0 -125z"/>
<path d="M0 6120 l0 -250 40 0 c33 0 40 3 40 20 0 17 7 20 45 20 38 0 45 -3
45 -20 0 -13 7 -20 20 -20 13 0 20 7 20 20 0 20 7 20 480 20 473 0 480 0 480
-20 0 -19 7 -20 125 -20 118 0 125 -1 125 -20 0 -19 7 -20 100 -20 l100 0 0
-25 0 -25 105 0 105 0 0 25 c0 18 -5 25 -20 25 -17 0 -20 7 -20 40 0 33 -3 40
-20 40 -13 0 -20 7 -20 20 0 13 -7 20 -20 20 -13 0 -20 7 -20 20 0 13 -7 20
-20 20 -13 0 -20 7 -20 20 0 15 -7 20 -25 20 -20 0 -25 5 -25 25 0 18 -5 25
-20 25 -13 0 -20 7 -20 20 0 17 -7 20 -40 20 -33 0 -40 3 -40 20 0 13 -7 20
-20 20 -13 0 -20 7 -20 20 0 17 -7 20 -45 20 -38 0 -45 3 -45 20 0 13 -7 20
-20 20 -13 0 -20 7 -20 20 0 18 -7 20 -60 20 -57 0 -60 1 -60 25 l0 25 -125 0
c-118 0 -125 1 -125 20 0 20 -7 20 -480 20 l-480 0 0 -250z"/>
<path d="M2080 5845 c0 -58 2 -65 20 -65 19 0 20 -7 20 -100 l0 -100 -40 0
c-36 0 -40 -2 -40 -25 0 -18 5 -25 20 -25 18 0 20 -7 20 -60 0 -53 2 -60 20
-60 19 0 20 -7 20 -105 0 -98 -1 -105 -20 -105 -17 0 -20 -7 -20 -40 0 -33 3
-40 20 -40 13 0 20 -7 20 -20 0 -18 7 -20 65 -20 63 0 65 -1 65 -25 0 -22 4
-25 40 -25 l40 0 0 -60 c0 -53 2 -60 20 -60 18 0 20 -7 20 -85 0 -84 0 -85 25
-85 18 0 25 -5 25 -20 0 -15 -7 -20 -25 -20 -24 0 -25 -3 -25 -60 0 -57 1 -60
25 -60 l25 0 0 -105 c0 -98 1 -105 20 -105 18 0 20 -7 20 -65 0 -58 2 -65 20
-65 13 0 20 -7 20 -20 0 -18 7 -20 60 -20 53 0 60 -2 60 -20 0 -19 7 -20 150
-20 143 0 150 -1 150 -20 0 -19 7 -20 125 -20 118 0 125 -1 125 -20 0 -19 7
-20 165 -20 158 0 165 1 165 20 0 19 7 20 145 20 138 0 145 1 145 20 0 19 7
20 105 20 98 0 105 1 105 20 0 19 7 20 125 20 118 0 125 1 125 20 0 18 7 20
85 20 78 0 85 2 85 20 0 18 7 20 80 20 79 0 80 0 80 25 0 23 4 25 45 25 38 0
45 3 45 20 0 17 7 20 40 20 33 0 40 3 40 20 0 17 7 20 40 20 33 0 40 3 40 20
0 17 7 20 45 20 38 0 45 3 45 20 0 13 7 20 20 20 13 0 20 7 20 20 0 13 7 20
20 20 18 0 20 7 20 85 0 78 2 85 20 85 18 0 20 7 20 65 0 58 2 65 20 65 17 0
20 7 20 40 l0 40 -40 0 c-33 0 -40 -3 -40 -20 0 -13 -7 -20 -20 -20 -13 0 -20
-7 -20 -20 0 -17 -7 -20 -45 -20 l-45 0 0 -45 c0 -38 -3 -45 -20 -45 -13 0
-20 -7 -20 -20 0 -13 -7 -20 -20 -20 -18 0 -20 -7 -20 -60 0 -53 -2 -60 -20
-60 -17 0 -20 -7 -20 -45 l0 -45 -40 0 -40 0 0 45 c0 41 -2 45 -25 45 -18 0
-25 5 -25 20 0 13 -7 20 -20 20 -13 0 -20 7 -20 20 0 17 -7 20 -40 20 -33 0
-40 -3 -40 -20 0 -19 -7 -20 -210 -20 -203 0 -210 -1 -210 -20 0 -19 -7 -20
-165 -20 l-165 0 0 -25 0 -25 -355 0 -355 0 0 25 0 25 -105 0 c-98 0 -105 1
-105 20 0 18 -7 20 -60 20 -53 0 -60 2 -60 20 0 18 -7 20 -65 20 -58 0 -65 2
-65 20 0 13 -7 20 -20 20 -13 0 -20 7 -20 20 0 13 -7 20 -20 20 -17 0 -20 7
-20 45 0 38 -3 45 -20 45 -13 0 -20 7 -20 20 0 13 7 20 20 20 17 0 20 7 20 40
0 33 -3 40 -20 40 -18 0 -20 7 -20 85 0 78 -2 85 -20 85 -17 0 -20 7 -20 40 0
33 3 40 20 40 17 0 20 7 20 40 l0 40 540 0 540 0 0 25 c0 24 2 25 65 25 l65 0
0 40 0 40 -45 0 c-38 0 -45 3 -45 20 0 13 -7 20 -20 20 -13 0 -20 7 -20 20 0
13 -7 20 -20 20 -13 0 -20 7 -20 20 0 13 -7 20 -20 20 -15 0 -20 7 -20 25 0
18 -5 25 -20 25 -13 0 -20 7 -20 20 0 17 -7 20 -45 20 -38 0 -45 3 -45 20 0
18 -7 20 -60 20 -53 0 -60 2 -60 20 0 20 -7 20 -270 20 -263 0 -270 0 -270 20
0 19 -7 20 -105 20 -98 0 -105 1 -105 20 0 18 -7 20 -65 20 -63 0 -65 1 -65
25 0 24 -3 25 -60 25 -53 0 -60 2 -60 20 0 17 -7 20 -45 20 -38 0 -45 3 -45
20 0 13 -7 20 -20 20 -18 0 -20 -7 -20 -65z"/>
<path d="M7790 5510 c0 -13 -7 -20 -20 -20 -13 0 -20 -7 -20 -20 0 -13 -7 -20
-20 -20 -13 0 -20 -7 -20 -20 0 -13 -7 -20 -20 -20 -17 0 -20 -7 -20 -40 0
-36 -2 -40 -25 -40 -20 0 -25 -5 -25 -25 0 -18 -5 -25 -20 -25 -17 0 -20 -7
-20 -40 0 -33 -3 -40 -20 -40 -13 0 -20 -7 -20 -20 0 -13 -7 -20 -20 -20 -13
0 -20 -7 -20 -20 0 -13 -7 -20 -20 -20 -13 0 -20 -7 -20 -20 0 -18 -7 -20 -65
-20 -63 0 -65 -1 -65 -25 0 -24 -3 -25 -60 -25 -53 0 -60 -2 -60 -20 0 -17 -7
-20 -45 -20 -38 0 -45 -3 -45 -20 0 -17 -7 -20 -40 -20 -33 0 -40 -3 -40 -20
0 -17 -7 -20 -40 -20 -33 0 -40 -3 -40 -20 0 -13 -7 -20 -20 -20 -13 0 -20 -7
-20 -20 0 -17 -7 -20 -45 -20 -41 0 -45 -2 -45 -25 0 -18 -5 -25 -20 -25 -13
0 -20 -7 -20 -20 0 -13 -7 -20 -20 -20 -13 0 -20 -7 -20 -20 0 -13 -7 -20 -20
-20 -13 0 -20 -7 -20 -20 0 -13 -7 -20 -20 -20 -13 0 -20 -7 -20 -20 0 -15 -7
-20 -25 -20 -24 0 -25 -2 -25 -65 0 -58 -2 -65 -20 -65 -13 0 -20 -7 -20 -20
0 -13 7 -20 20 -20 13 0 20 -7 20 -20 0 -15 7 -20 25 -20 18 0 25 5 25 20 0
18 7 20 80 20 73 0 80 2 80 20 0 18 7 20 65 20 58 0 65 2 65 20 0 17 7 20 40
20 36 0 40 3 40 25 0 23 4 25 40 25 33 0 40 3 40 20 0 17 7 20 45 20 38 0 45
3 45 20 0 13 7 20 20 20 13 0 20 7 20 20 0 13 7 20 20 20 13 0 20 7 20 20 0
13 7 20 20 20 17 0 20 7 20 45 0 38 3 45 20 45 13 0 20 7 20 20 0 15 7 20 25
20 18 0 25 5 25 20 0 18 7 20 60 20 53 0 60 2 60 20 0 13 7 20 20 20 13 0 20
7 20 20 0 17 7 20 45 20 38 0 45 3 45 20 0 13 7 20 20 20 15 0 20 7 20 25 0
18 5 25 20 25 15 0 20 -7 20 -25 0 -18 5 -25 20 -25 18 0 20 7 20 65 0 58 2
65 20 65 19 0 20 7 20 145 0 138 1 145 20 145 17 0 20 7 20 40 l0 40 -40 0
c-33 0 -40 -3 -40 -20z"/>
<path d="M5170 5305 l0 -105 -25 0 c-24 0 -25 -3 -25 -60 0 -53 -2 -60 -20
-60 -15 0 -20 -7 -20 -25 0 -18 5 -25 20 -25 13 0 20 -7 20 -20 0 -15 7 -20
25 -20 18 0 25 -5 25 -20 0 -19 7 -20 165 -20 158 0 165 -1 165 -20 0 -19 7
-20 125 -20 118 0 125 -1 125 -20 0 -20 7 -20 375 -20 368 0 375 0 375 -20 0
-18 7 -20 60 -20 53 0 60 2 60 20 0 17 7 20 45 20 38 0 45 3 45 20 0 13 7 20
20 20 18 0 20 7 20 85 0 78 2 85 20 85 19 0 20 7 20 100 0 93 -1 100 -20 100
-13 0 -20 -7 -20 -20 0 -18 -7 -20 -85 -20 -78 0 -85 2 -85 20 0 19 -7 20
-230 20 l-230 0 0 25 0 25 -125 0 c-118 0 -125 1 -125 20 0 17 -7 20 -40 20
-33 0 -40 3 -40 20 0 20 -7 20 -310 20 l-310 0 0 -105z"/>
<path d="M1250 5100 c0 -20 -7 -20 -270 -20 l-270 0 0 -25 0 -25 -170 0 c-163
0 -170 -1 -170 -20 0 -19 -7 -20 -100 -20 -93 0 -100 -1 -100 -20 0 -18 -7
-20 -85 -20 l-85 0 0 -270 0 -270 60 0 c53 0 60 2 60 20 0 19 7 20 170 20 163
0 170 1 170 20 0 19 7 20 105 20 98 0 105 1 105 20 0 18 7 20 80 20 79 0 80 0
80 25 l0 25 105 0 c98 0 105 1 105 20 0 19 7 20 125 20 118 0 125 1 125 20 0
19 7 20 125 20 118 0 125 1 125 20 0 18 7 20 65 20 58 0 65 2 65 20 0 19 7 20
225 20 l225 0 0 85 c0 78 -2 85 -20 85 -13 0 -20 7 -20 20 0 13 -7 20 -20 20
-17 0 -20 7 -20 40 l0 40 -60 0 c-57 0 -60 1 -60 25 0 23 -4 25 -45 25 -38 0
-45 3 -45 20 0 20 -7 20 -290 20 -283 0 -290 0 -290 -20z"/>
<path d="M5580 4180 c0 -13 -7 -20 -20 -20 -13 0 -20 -7 -20 -20 0 -19 -7 -20
-230 -20 -223 0 -230 1 -230 20 0 17 -7 20 -40 20 -33 0 -40 -3 -40 -20 0 -17
-7 -20 -40 -20 -33 0 -40 -3 -40 -20 0 -15 -7 -20 -25 -20 l-25 0 0 -105 c0
-98 -1 -105 -20 -105 -18 0 -20 -7 -20 -65 l0 -65 45 0 c38 0 45 -3 45 -20 0
-13 7 -20 20 -20 18 0 20 -7 20 -60 0 -53 -2 -60 -20 -60 -17 0 -20 -7 -20
-45 0 -41 -2 -45 -25 -45 -18 0 -25 -5 -25 -20 0 -18 7 -20 65 -20 l65 0 0
-60 c0 -53 -2 -60 -20 -60 -15 0 -20 -7 -20 -25 0 -18 -5 -25 -20 -25 -17 0
-20 -7 -20 -40 0 -33 3 -40 20 -40 13 0 20 -7 20 -20 0 -18 7 -20 80 -20 73 0
80 2 80 20 0 15 7 20 25 20 18 0 25 -5 25 -20 0 -17 7 -20 40 -20 33 0 40 -3
40 -20 0 -13 7 -20 20 -20 13 0 20 7 20 20 0 18 7 20 65 20 58 0 65 2 65 20 0
13 7 20 20 20 17 0 20 7 20 40 0 33 -3 40 -20 40 -15 0 -20 7 -20 25 0 20 -5
25 -25 25 -24 0 -25 3 -25 60 0 57 1 60 25 60 18 0 25 5 25 20 0 13 7 20 20
20 13 0 20 7 20 20 0 13 7 20 20 20 18 0 20 7 20 85 0 78 2 85 20 85 13 0 20
7 20 20 0 17 7 20 40 20 33 0 40 -3 40 -20 0 -18 7 -20 65 -20 58 0 65 -2 65
-20 0 -19 7 -20 105 -20 98 0 105 -1 105 -20 0 -13 7 -20 20 -20 13 0 20 7 20
20 0 17 7 20 40 20 33 0 40 3 40 20 0 13 7 20 20 20 13 0 20 7 20 20 0 18 7
20 85 20 78 0 85 -2 85 -20 0 -13 7 -20 20 -20 13 0 20 7 20 20 0 13 7 20 20
20 19 0 20 -7 20 -125 0 -118 -1 -125 -20 -125 -18 0 -20 -7 -20 -60 0 -53 2
-60 20 -60 18 0 20 7 20 60 l0 60 65 0 c58 0 65 2 65 20 0 17 7 20 40 20 36 0
40 3 40 25 l0 25 105 0 c98 0 105 1 105 20 0 13 7 20 20 20 13 0 20 7 20 20 0
13 7 20 20 20 13 0 20 7 20 20 0 15 7 20 25 20 23 0 25 4 25 40 0 33 3 40 20
40 15 0 20 7 20 25 0 18 5 25 20 25 17 0 20 7 20 40 0 33 3 40 20 40 13 0 20
7 20 20 0 13 7 20 20 20 13 0 20 7 20 20 0 13 7 20 20 20 17 0 20 7 20 45 l0
45 -40 0 c-36 0 -40 -2 -40 -25 0 -24 -3 -25 -60 -25 -57 0 -60 1 -60 25 0 24
-2 25 -65 25 -63 0 -65 -1 -65 -25 0 -18 -5 -25 -20 -25 -13 0 -20 -7 -20 -20
0 -13 -7 -20 -20 -20 -13 0 -20 -7 -20 -20 0 -17 -7 -20 -45 -20 -38 0 -45 -3
-45 -20 0 -13 -7 -20 -20 -20 -13 0 -20 -7 -20 -20 0 -18 -7 -20 -60 -20 l-60
0 0 40 c0 33 3 40 20 40 18 0 20 7 20 85 l0 85 -105 0 c-98 0 -105 1 -105 20
0 18 -7 20 -60 20 l-60 0 0 -40 c0 -36 -2 -40 -25 -40 -20 0 -25 -5 -25 -25 0
-22 -4 -25 -40 -25 -36 0 -40 3 -40 25 0 25 -1 25 -85 25 -78 0 -85 2 -85 20
0 17 -7 20 -40 20 l-40 0 0 40 0 40 -105 0 c-98 0 -105 -1 -105 -20z"/>
<path d="M2210 3970 c0 -19 -7 -20 -105 -20 -98 0 -105 -1 -105 -20 0 -18 -7
-20 -65 -20 -58 0 -65 -2 -65 -20 0 -17 -7 -20 -40 -20 -33 0 -40 -3 -40 -20
0 -18 -7 -20 -60 -20 -57 0 -60 -1 -60 -25 l0 -25 -105 0 c-98 0 -105 -1 -105
-20 0 -18 -7 -20 -85 -20 -78 0 -85 -2 -85 -20 0 -18 -7 -20 -60 -20 -53 0
-60 -2 -60 -20 0 -19 -7 -20 -105 -20 -98 0 -105 -1 -105 -20 0 -19 -7 -20
-125 -20 -118 0 -125 -1 -125 -20 0 -19 -7 -20 -250 -20 l-250 0 0 -25 0 -25
-105 0 -105 0 0 -270 0 -270 85 0 c78 0 85 -2 85 -20 0 -15 -7 -20 -25 -20
-18 0 -25 -5 -25 -20 0 -17 -7 -20 -40 -20 -33 0 -40 -3 -40 -20 0 -13 -7 -20
-20 -20 -20 0 -20 -7 -20 -295 l0 -295 40 0 c36 0 40 3 40 25 0 23 4 25 45 25
38 0 45 3 45 20 0 17 7 20 40 20 33 0 40 3 40 20 0 13 7 20 20 20 13 0 20 7
20 20 0 18 7 20 65 20 58 0 65 2 65 20 0 17 7 20 40 20 33 0 40 3 40 20 0 18
7 20 60 20 57 0 60 1 60 25 0 24 2 25 65 25 58 0 65 2 65 20 0 17 7 20 40 20
33 0 40 3 40 20 0 17 7 20 45 20 38 0 45 3 45 20 0 17 7 20 40 20 33 0 40 3
40 20 0 17 7 20 40 20 33 0 40 3 40 20 0 17 7 20 45 20 41 0 45 2 45 25 0 24
3 25 60 25 53 0 60 2 60 20 0 17 7 20 40 20 33 0 40 3 40 20 0 15 7 20 25 20
18 0 25 5 25 20 0 17 7 20 40 20 33 0 40 3 40 20 0 17 7 20 40 20 33 0 40 3
40 20 0 17 7 20 45 20 41 0 45 2 45 25 0 18 5 25 20 25 13 0 20 7 20 20 0 17
7 20 40 20 33 0 40 3 40 20 0 13 7 20 20 20 13 0 20 7 20 20 0 13 7 20 20 20
13 0 20 7 20 20 0 19 -7 20 -125 20 -118 0 -125 1 -125 20 0 15 7 20 25 20 20
0 25 5 25 25 0 23 4 25 40 25 33 0 40 3 40 20 0 17 7 20 40 20 33 0 40 3 40
20 0 17 7 20 45 20 38 0 45 3 45 20 0 17 7 20 40 20 33 0 40 3 40 20 0 13 7
20 20 20 13 0 20 7 20 20 0 13 7 20 20 20 15 0 20 7 20 25 0 18 5 25 20 25 13
0 20 7 20 20 0 15 7 20 25 20 18 0 25 5 25 20 0 13 7 20 20 20 13 0 20 7 20
20 0 13 7 20 20 20 13 0 20 7 20 20 0 13 7 20 20 20 17 0 20 7 20 45 0 38 3
45 20 45 17 0 20 7 20 40 0 33 3 40 20 40 17 0 20 7 20 40 l0 40 -80 0 c-73 0
-80 -2 -80 -20z"/>
<path d="M4750 3640 c0 -17 -7 -20 -40 -20 -33 0 -40 -3 -40 -20 0 -15 -7 -20
-25 -20 -20 0 -25 -5 -25 -25 0 -22 -4 -25 -40 -25 -33 0 -40 -3 -40 -20 0
-17 -7 -20 -40 -20 -33 0 -40 -3 -40 -20 0 -18 -7 -20 -65 -20 -58 0 -65 -2
-65 -20 0 -18 -7 -20 -80 -20 -73 0 -80 -2 -80 -20 0 -19 -7 -20 -170 -20
-163 0 -170 -1 -170 -20 0 -13 -7 -20 -20 -20 -13 0 -20 7 -20 20 0 17 -7 20
-40 20 -33 0 -40 -3 -40 -20 0 -13 -7 -20 -20 -20 -13 0 -20 7 -20 20 0 20 -7
20 -275 20 l-275 0 0 -45 c0 -41 2 -45 25 -45 18 0 25 -5 25 -20 0 -15 -7 -20
-25 -20 -18 0 -25 -5 -25 -20 0 -17 -7 -20 -40 -20 -33 0 -40 -3 -40 -20 0
-13 -7 -20 -20 -20 -13 0 -20 -7 -20 -20 0 -17 -7 -20 -40 -20 -33 0 -40 -3
-40 -20 0 -15 -7 -20 -25 -20 -20 0 -25 -5 -25 -25 0 -18 -5 -25 -20 -25 -13
0 -20 -7 -20 -20 0 -13 -7 -20 -20 -20 -13 0 -20 -7 -20 -20 0 -13 -7 -20 -20
-20 -13 0 -20 -7 -20 -20 0 -13 -7 -20 -20 -20 -13 0 -20 -7 -20 -20 0 -17 -7
-20 -45 -20 -38 0 -45 -3 -45 -20 0 -13 -7 -20 -20 -20 -15 0 -20 -7 -20 -25
0 -18 -5 -25 -20 -25 -13 0 -20 -7 -20 -20 0 -17 -7 -20 -40 -20 -33 0 -40 -3
-40 -20 0 -13 -7 -20 -20 -20 -13 0 -20 -7 -20 -20 0 -15 -7 -20 -25 -20 -18
0 -25 -5 -25 -20 0 -17 -7 -20 -40 -20 -33 0 -40 -3 -40 -20 0 -18 -7 -20 -85
-20 -84 0 -85 0 -85 -25 0 -22 -4 -25 -40 -25 -33 0 -40 -3 -40 -20 0 -18 -7
-20 -60 -20 -53 0 -60 -2 -60 -20 0 -18 -7 -20 -65 -20 -58 0 -65 -2 -65 -20
0 -17 -7 -20 -40 -20 -33 0 -40 -3 -40 -20 0 -17 -7 -20 -45 -20 -38 0 -45 -3
-45 -20 0 -13 -7 -20 -20 -20 -15 0 -20 -7 -20 -25 0 -18 -5 -25 -20 -25 -13
0 -20 -7 -20 -20 0 -17 -7 -20 -40 -20 -33 0 -40 -3 -40 -20 0 -13 -7 -20 -20
-20 -13 0 -20 -7 -20 -20 0 -17 -7 -20 -45 -20 -38 0 -45 -3 -45 -20 0 -13 -7
-20 -20 -20 -13 0 -20 -7 -20 -20 0 -13 -7 -20 -20 -20 -15 0 -20 -7 -20 -25
0 -18 -5 -25 -20 -25 -13 0 -20 -7 -20 -20 0 -17 -7 -20 -45 -20 -38 0 -45 -3
-45 -20 0 -13 -7 -20 -20 -20 -13 0 -20 -7 -20 -20 0 -13 -7 -20 -20 -20 -13
0 -20 -7 -20 -20 0 -17 -7 -20 -40 -20 -33 0 -40 -3 -40 -20 0 -17 -7 -20 -45
-20 -41 0 -45 -2 -45 -25 0 -18 -5 -25 -20 -25 -13 0 -20 -7 -20 -20 0 -17 -7
-20 -40 -20 -33 0 -40 -3 -40 -20 0 -17 -7 -20 -40 -20 -33 0 -40 -3 -40 -20
0 -17 -7 -20 -45 -20 -38 0 -45 -3 -45 -20 0 -17 -7 -20 -40 -20 -33 0 -40 -3
-40 -20 0 -13 -7 -20 -20 -20 -15 0 -20 -7 -20 -25 0 -24 -2 -25 -65 -25 -58
0 -65 -2 -65 -20 0 -13 -7 -20 -20 -20 -13 0 -20 -7 -20 -20 0 -17 -7 -20 -40
-20 -33 0 -40 -3 -40 -20 0 -13 -7 -20 -20 -20 -13 0 -20 -7 -20 -20 0 -17 -7
-20 -45 -20 -38 0 -45 -3 -45 -20 0 -13 -7 -20 -20 -20 -15 0 -20 -7 -20 -25
0 -18 -5 -25 -20 -25 -20 0 -20 -7 -20 -330 0 -323 0 -330 20 -330 13 0 20 7
20 20 0 13 7 20 20 20 13 0 20 7 20 20 0 17 7 20 45 20 38 0 45 3 45 20 0 17
7 20 40 20 33 0 40 3 40 20 0 13 7 20 20 20 15 0 20 7 20 25 0 23 4 25 40 25
33 0 40 3 40 20 0 15 7 20 25 20 18 0 25 5 25 20 0 17 7 20 40 20 33 0 40 3
40 20 0 17 7 20 40 20 33 0 40 3 40 20 0 13 7 20 20 20 13 0 20 7 20 20 0 15
7 20 25 20 20 0 25 5 25 25 0 23 4 25 40 25 33 0 40 3 40 20 0 17 7 20 40 20
33 0 40 3 40 20 0 13 7 20 20 20 13 0 20 7 20 20 0 17 7 20 45 20 38 0 45 3
45 20 0 13 7 20 20 20 13 0 20 7 20 20 0 17 7 20 40 20 36 0 40 3 40 25 0 18
5 25 20 25 13 0 20 7 20 20 0 17 7 20 45 20 38 0 45 3 45 20 0 17 7 20 40 20
33 0 40 3 40 20 0 17 7 20 40 20 33 0 40 3 40 20 0 15 7 20 25 20 18 0 25 5
25 20 0 17 7 20 40 20 36 0 40 3 40 25 0 18 5 25 20 25 13 0 20 7 20 20 0 13
7 20 20 20 13 0 20 7 20 20 0 13 7 20 20 20 13 0 20 7 20 20 0 15 7 20 25 20
18 0 25 5 25 20 0 13 7 20 20 20 13 0 20 7 20 20 0 17 7 20 40 20 36 0 40 3
40 25 0 18 5 25 20 25 13 0 20 7 20 20 0 13 7 20 20 20 13 0 20 7 20 20 0 15
7 20 25 20 18 0 25 5 25 20 0 13 7 20 20 20 13 0 20 7 20 20 0 17 7 20 40 20
33 0 40 3 40 20 0 13 7 20 20 20 17 0 20 7 20 45 0 38 3 45 20 45 13 0 20 7
20 20 0 17 7 20 45 20 38 0 45 3 45 20 0 13 7 20 20 20 13 0 20 7 20 20 0 13
7 20 20 20 13 0 20 7 20 20 0 13 7 20 20 20 15 0 20 7 20 25 0 18 5 25 20 25
13 0 20 7 20 20 0 15 7 20 25 20 18 0 25 5 25 20 0 13 7 20 20 20 13 0 20 7
20 20 0 13 7 20 20 20 13 0 20 7 20 20 0 17 7 20 40 20 33 0 40 3 40 20 0 13
7 20 20 20 15 0 20 7 20 25 0 20 5 25 25 25 18 0 25 5 25 20 0 13 7 20 20 20
13 0 20 7 20 20 0 13 7 20 20 20 13 0 20 7 20 20 0 17 7 20 40 20 33 0 40 3
40 20 0 17 7 20 45 20 38 0 45 3 45 20 0 18 7 20 80 20 79 0 80 0 80 25 0 25
1 25 85 25 78 0 85 2 85 20 0 17 7 20 40 20 33 0 40 3 40 20 0 13 7 20 20 20
13 0 20 7 20 20 0 17 7 20 45 20 38 0 45 -3 45 -20 0 -18 7 -20 60 -20 53 0
60 2 60 20 0 20 7 20 315 20 308 0 315 0 315 20 0 18 7 20 60 20 53 0 60 2 60
20 0 17 7 20 45 20 41 0 45 2 45 25 0 23 4 25 40 25 33 0 40 3 40 20 0 17 7
20 40 20 33 0 40 3 40 20 0 13 7 20 20 20 13 0 20 7 20 20 0 17 7 20 45 20
l45 0 0 40 c0 33 3 40 20 40 18 0 20 7 20 65 0 58 2 65 20 65 19 0 20 7 20
125 0 118 -1 125 -20 125 -13 0 -20 -7 -20 -20z"/>
<path d="M4960 3055 c0 -25 -1 -25 -85 -25 -78 0 -85 -2 -85 -20 0 -13 -7 -20
-20 -20 -13 0 -20 -7 -20 -20 0 -13 -7 -20 -20 -20 -19 0 -20 -7 -20 -185 l0
-185 40 0 c33 0 40 3 40 20 0 13 7 20 20 20 13 0 20 7 20 20 0 18 7 20 85 20
78 0 85 -2 85 -20 0 -19 7 -20 125 -20 118 0 125 -1 125 -20 0 -18 7 -20 60
-20 57 0 60 -1 60 -25 0 -25 1 -25 85 -25 78 0 85 -2 85 -20 0 -19 7 -20 210
-20 203 0 210 -1 210 -20 0 -13 7 -20 20 -20 17 0 20 7 20 40 0 33 3 40 20 40
17 0 20 7 20 45 0 38 3 45 20 45 17 0 20 7 20 40 0 33 3 40 20 40 17 0 20 7
20 40 0 36 3 40 25 40 20 0 25 5 25 25 0 18 5 25 20 25 17 0 20 7 20 40 0 33
3 40 20 40 13 0 20 7 20 20 0 13 7 20 20 20 13 0 20 7 20 20 0 13 7 20 20 20
13 0 20 7 20 20 0 13 -7 20 -20 20 -13 0 -20 -7 -20 -20 0 -13 -7 -20 -20 -20
-13 0 -20 -7 -20 -20 0 -13 -7 -20 -20 -20 -13 0 -20 -7 -20 -20 0 -18 -7 -20
-65 -20 -58 0 -65 -2 -65 -20 0 -19 -7 -20 -145 -20 -138 0 -145 1 -145 20 0
18 -7 20 -85 20 -78 0 -85 2 -85 20 0 18 -7 20 -60 20 -53 0 -60 2 -60 20 0
18 -7 20 -85 20 -78 0 -85 2 -85 20 0 19 -7 20 -145 20 l-145 0 0 25 c0 23 -4
25 -40 25 -36 0 -40 -2 -40 -25z"/>
<path d="M4080 2575 c0 -38 -3 -45 -20 -45 -13 0 -20 -7 -20 -20 0 -13 -7 -20
-20 -20 -13 0 -20 -7 -20 -20 0 -13 -7 -20 -20 -20 -13 0 -20 -7 -20 -20 0
-17 -7 -20 -45 -20 -38 0 -45 -3 -45 -20 0 -13 -7 -20 -20 -20 -13 0 -20 -7
-20 -20 0 -13 -7 -20 -20 -20 -15 0 -20 -7 -20 -25 0 -22 -4 -25 -40 -25 -33
0 -40 -3 -40 -20 0 -13 -7 -20 -20 -20 -13 0 -20 -7 -20 -20 0 -17 -7 -20 -45
-20 -38 0 -45 -3 -45 -20 0 -13 -7 -20 -20 -20 -13 0 -20 -7 -20 -20 0 -13 -7
-20 -20 -20 -13 0 -20 -7 -20 -20 0 -13 -7 -20 -20 -20 -15 0 -20 -7 -20 -25
0 -18 -5 -25 -20 -25 -13 0 -20 -7 -20 -20 0 -15 -7 -20 -25 -20 -18 0 -25 -5
-25 -20 0 -13 -7 -20 -20 -20 -13 0 -20 -7 -20 -20 0 -13 -7 -20 -20 -20 -13
0 -20 -7 -20 -20 0 -13 -7 -20 -20 -20 -13 0 -20 -7 -20 -20 0 -13 -7 -20 -20
-20 -15 0 -20 -7 -20 -25 0 -23 -4 -25 -45 -25 -38 0 -45 -3 -45 -20 0 -13 -7
-20 -20 -20 -13 0 -20 -7 -20 -20 0 -13 -7 -20 -20 -20 -13 0 -20 -7 -20 -20
0 -17 -7 -20 -40 -20 -33 0 -40 -3 -40 -20 0 -13 -7 -20 -20 -20 -13 0 -20 -7
-20 -20 0 -15 -7 -20 -25 -20 -20 0 -25 -5 -25 -25 0 -18 -5 -25 -20 -25 -13
0 -20 -7 -20 -20 0 -13 -7 -20 -20 -20 -13 0 -20 -7 -20 -20 0 -13 -7 -20 -20
-20 -13 0 -20 -7 -20 -20 0 -13 -7 -20 -20 -20 -13 0 -20 -7 -20 -20 0 -13 -7
-20 -20 -20 -13 0 -20 -7 -20 -20 0 -15 -7 -20 -25 -20 -20 0 -25 -5 -25 -25
0 -18 -5 -25 -20 -25 -13 0 -20 -7 -20 -20 0 -17 -7 -20 -40 -20 -33 0 -40 -3
-40 -20 0 -13 -7 -20 -20 -20 -13 0 -20 -7 -20 -20 0 -13 -7 -20 -20 -20 -13
0 -20 -7 -20 -20 0 -15 -7 -20 -25 -20 -18 0 -25 -5 -25 -20 0 -17 -7 -20 -40
-20 -36 0 -40 -2 -40 -25 0 -18 -5 -25 -20 -25 -13 0 -20 -7 -20 -20 0 -17 -7
-20 -40 -20 -33 0 -40 -3 -40 -20 0 -15 -7 -20 -25 -20 -18 0 -25 -5 -25 -20
0 -17 -7 -20 -40 -20 -33 0 -40 -3 -40 -20 0 -13 -7 -20 -20 -20 -13 0 -20 -7
-20 -20 0 -13 -7 -20 -20 -20 -15 0 -20 -7 -20 -25 0 -23 -4 -25 -45 -25 -38
0 -45 -3 -45 -20 0 -13 -7 -20 -20 -20 -13 0 -20 -7 -20 -20 0 -13 -7 -20 -20
-20 -13 0 -20 -7 -20 -20 0 -17 -7 -20 -40 -20 -33 0 -40 -3 -40 -20 0 -13 -7
-20 -20 -20 -13 0 -20 -7 -20 -20 0 -17 -7 -20 -45 -20 -41 0 -45 -2 -45 -25
0 -18 -5 -25 -20 -25 -13 0 -20 -7 -20 -20 0 -13 -7 -20 -20 -20 -13 0 -20 -7
-20 -20 0 -17 -7 -20 -40 -20 -33 0 -40 -3 -40 -20 0 -15 -7 -20 -25 -20 -18
0 -25 -5 -25 -20 0 -17 -7 -20 -40 -20 -33 0 -40 -3 -40 -20 0 -13 -7 -20 -20
-20 -15 0 -20 -7 -20 -25 0 -22 -4 -25 -40 -25 -33 0 -40 -3 -40 -20 0 -17 -7
-20 -45 -20 -38 0 -45 -3 -45 -20 0 -17 -7 -20 -40 -20 -33 0 -40 -3 -40 -20
0 -17 -7 -20 -40 -20 -33 0 -40 -3 -40 -20 0 -15 -7 -20 -25 -20 -18 0 -25 -5
-25 -20 0 -18 -7 -20 -60 -20 -57 0 -60 -1 -60 -25 l0 -25 540 0 540 0 0 25
c0 18 5 25 20 25 13 0 20 7 20 20 0 15 7 20 25 20 18 0 25 5 25 20 0 17 7 20
40 20 33 0 40 3 40 20 0 17 7 20 40 20 33 0 40 3 40 20 0 13 7 20 20 20 13 0
20 7 20 20 0 15 7 20 25 20 20 0 25 5 25 25 0 23 4 25 40 25 33 0 40 3 40 20
0 13 7 20 20 20 13 0 20 7 20 20 0 13 7 20 20 20 13 0 20 7 20 20 0 13 7 20
20 20 13 0 20 7 20 20 0 17 7 20 45 20 38 0 45 3 45 20 0 13 7 20 20 20 15 0
20 7 20 25 0 18 5 25 20 25 13 0 20 7 20 20 0 17 7 20 40 20 33 0 40 3 40 20
0 15 7 20 25 20 18 0 25 5 25 20 0 13 7 20 20 20 13 0 20 7 20 20 0 13 7 20
20 20 13 0 20 7 20 20 0 13 7 20 20 20 15 0 20 7 20 25 0 18 5 25 20 25 13 0
20 7 20 20 0 17 7 20 45 20 38 0 45 3 45 20 0 13 7 20 20 20 13 0 20 7 20 20
0 13 7 20 20 20 13 0 20 7 20 20 0 13 7 20 20 20 13 0 20 7 20 20 0 13 7 20
20 20 15 0 20 7 20 25 0 18 5 25 20 25 13 0 20 7 20 20 0 15 7 20 25 20 18 0
25 5 25 20 0 13 7 20 20 20 13 0 20 7 20 20 0 13 7 20 20 20 13 0 20 7 20 20
0 17 7 20 40 20 33 0 40 3 40 20 0 13 7 20 20 20 15 0 20 7 20 25 0 20 5 25
25 25 18 0 25 5 25 20 0 13 7 20 20 20 13 0 20 7 20 20 0 13 7 20 20 20 13 0
20 7 20 20 0 13 7 20 20 20 13 0 20 7 20 20 0 13 7 20 20 20 13 0 20 7 20 20
0 13 7 20 20 20 15 0 20 7 20 25 0 20 5 25 25 25 18 0 25 5 25 20 0 13 7 20
20 20 13 0 20 7 20 20 0 13 7 20 20 20 13 0 20 7 20 20 0 13 7 20 20 20 13 0
20 7 20 20 0 13 7 20 20 20 13 0 20 7 20 20 0 13 7 20 20 20 15 0 20 7 20 25
0 20 5 25 25 25 18 0 25 5 25 20 0 13 7 20 20 20 13 0 20 7 20 20 0 17 7 20
40 20 33 0 40 3 40 20 0 13 7 20 20 20 13 0 20 7 20 20 0 13 7 20 20 20 13 0
20 7 20 20 0 15 7 20 25 20 20 0 25 5 25 25 0 18 5 25 20 25 13 0 20 7 20 20
0 13 7 20 20 20 17 0 20 7 20 40 0 33 3 40 20 40 13 0 20 7 20 20 0 13 7 20
20 20 13 0 20 7 20 20 0 13 7 20 20 20 18 0 20 7 20 65 0 58 -2 65 -20 65 -13
0 -20 7 -20 20 0 13 -7 20 -20 20 -13 0 -20 7 -20 20 0 17 -7 20 -40 20 l-40
0 0 45 0 45 -45 0 c-38 0 -45 3 -45 20 0 13 -7 20 -20 20 -17 0 -20 -7 -20
-45z"/>
<path d="M5120 1850 c0 -18 -7 -20 -60 -20 -57 0 -60 -1 -60 -25 0 -24 -2 -25
-65 -25 l-65 0 0 -40 c0 -36 3 -40 25 -40 23 0 25 -4 25 -40 0 -36 -2 -40 -25
-40 -23 0 -25 -4 -25 -45 0 -38 -3 -45 -20 -45 -17 0 -20 -7 -20 -40 0 -33 -3
-40 -20 -40 -13 0 -20 -7 -20 -20 0 -13 -7 -20 -20 -20 -13 0 -20 -7 -20 -20
0 -13 -7 -20 -20 -20 -13 0 -20 -7 -20 -20 0 -13 -7 -20 -20 -20 -15 0 -20 -7
-20 -25 0 -20 -5 -25 -25 -25 -22 0 -25 -4 -25 -40 0 -33 -3 -40 -20 -40 -13
0 -20 -7 -20 -20 0 -13 -7 -20 -20 -20 -13 0 -20 -7 -20 -20 0 -13 -7 -20 -20
-20 -13 0 -20 -7 -20 -20 0 -13 -7 -20 -20 -20 -15 0 -20 -7 -20 -25 0 -18 -5
-25 -20 -25 -13 0 -20 -7 -20 -20 0 -15 -7 -20 -25 -20 -18 0 -25 -5 -25 -20
0 -13 -7 -20 -20 -20 -13 0 -20 -7 -20 -20 0 -13 -7 -20 -20 -20 -13 0 -20 -7
-20 -20 0 -17 -7 -20 -40 -20 l-40 0 0 -45 0 -45 -45 0 c-38 0 -45 -3 -45 -20
0 -13 -7 -20 -20 -20 -13 0 -20 -7 -20 -20 0 -13 -7 -20 -20 -20 -13 0 -20 -7
-20 -20 0 -13 -7 -20 -20 -20 -13 0 -20 -7 -20 -20 0 -13 -7 -20 -20 -20 -13
0 -20 -7 -20 -20 0 -13 -7 -20 -20 -20 -15 0 -20 -7 -20 -25 0 -20 -5 -25 -25
-25 -18 0 -25 -5 -25 -20 0 -13 -7 -20 -20 -20 -13 0 -20 -7 -20 -20 0 -13 -7
-20 -20 -20 -13 0 -20 -7 -20 -20 0 -17 -7 -20 -40 -20 l-40 0 0 -40 0 -40 40
0 c33 0 40 3 40 20 0 13 7 20 20 20 13 0 20 7 20 20 0 17 7 20 45 20 38 0 45
3 45 20 0 13 7 20 20 20 13 0 20 7 20 20 0 17 7 20 40 20 33 0 40 3 40 20 0
13 7 20 20 20 15 0 20 7 20 25 0 18 5 25 20 25 13 0 20 7 20 20 0 17 7 20 45
20 38 0 45 3 45 20 0 13 7 20 20 20 13 0 20 7 20 20 0 13 7 20 20 20 13 0 20
7 20 20 0 17 7 20 40 20 33 0 40 3 40 20 0 15 7 20 25 20 20 0 25 5 25 25 0
18 5 25 20 25 13 0 20 7 20 20 0 13 7 20 20 20 13 0 20 7 20 20 0 17 7 20 40
20 33 0 40 3 40 20 0 17 7 20 45 20 38 0 45 3 45 20 0 13 7 20 20 20 13 0 20
7 20 20 0 13 7 20 20 20 15 0 20 7 20 25 0 23 4 25 40 25 33 0 40 3 40 20 0
17 7 20 45 20 38 0 45 3 45 20 0 17 7 20 40 20 33 0 40 3 40 20 0 17 7 20 40
20 33 0 40 3 40 20 0 17 7 20 45 20 38 0 45 3 45 20 0 13 7 20 20 20 18 0 20
7 20 85 l0 85 165 0 165 0 0 -60 0 -60 65 0 65 0 0 185 c0 178 1 185 20 185
17 0 20 7 20 40 0 33 -3 40 -20 40 -15 0 -20 7 -20 25 l0 25 -105 0 c-98 0
-105 1 -105 20 0 19 -7 20 -170 20 -163 0 -170 -1 -170 -20z"/>
<path d="M5670 1260 c0 -19 -7 -20 -150 -20 -143 0 -150 -1 -150 -20 0 -18 -7
-20 -60 -20 -53 0 -60 -2 -60 -20 0 -13 -7 -20 -20 -20 -13 0 -20 -7 -20 -20
0 -18 -7 -20 -65 -20 -58 0 -65 -2 -65 -20 0 -13 -7 -20 -20 -20 -15 0 -20 -7
-20 -25 0 -22 -4 -25 -40 -25 -33 0 -40 -3 -40 -20 0 -13 -7 -20 -20 -20 -13
0 -20 -7 -20 -20 0 -15 -7 -20 -25 -20 -18 0 -25 -5 -25 -20 0 -13 -7 -20 -20
-20 -13 0 -20 -7 -20 -20 0 -13 -7 -20 -20 -20 -13 0 -20 -7 -20 -20 0 -13 -7
-20 -20 -20 -17 0 -20 -7 -20 -45 0 -38 -3 -45 -20 -45 -13 0 -20 -7 -20 -20
0 -13 -7 -20 -20 -20 -13 0 -20 -7 -20 -20 0 -15 -7 -20 -25 -20 -18 0 -25 -5
-25 -20 0 -13 -7 -20 -20 -20 -13 0 -20 -7 -20 -20 0 -13 -7 -20 -20 -20 -17
0 -20 -7 -20 -45 0 -38 -3 -45 -20 -45 -13 0 -20 -7 -20 -20 0 -13 -7 -20 -20
-20 -13 0 -20 -7 -20 -20 0 -13 -7 -20 -20 -20 -17 0 -20 -7 -20 -40 0 -36 -2
-40 -25 -40 -20 0 -25 -5 -25 -25 0 -18 -5 -25 -20 -25 -13 0 -20 -7 -20 -20
0 -13 -7 -20 -20 -20 -17 0 -20 -7 -20 -40 0 -33 -3 -40 -20 -40 -13 0 -20 -7
-20 -20 0 -13 -7 -20 -20 -20 -13 0 -20 -7 -20 -20 0 -13 -7 -20 -20 -20 -15
0 -20 -7 -20 -25 l0 -25 310 0 310 0 0 25 c0 18 5 25 20 25 13 0 20 7 20 20 0
13 7 20 20 20 13 0 20 7 20 20 0 15 7 20 25 20 18 0 25 5 25 20 0 13 7 20 20
20 17 0 20 7 20 40 0 33 3 40 20 40 15 0 20 7 20 25 0 18 5 25 20 25 13 0 20
7 20 20 0 13 7 20 20 20 13 0 20 7 20 20 0 13 7 20 20 20 13 0 20 7 20 20 0
15 7 20 25 20 18 0 25 5 25 20 0 13 7 20 20 20 17 0 20 7 20 45 0 38 3 45 20
45 13 0 20 7 20 20 0 13 7 20 20 20 17 0 20 7 20 40 0 33 3 40 20 40 13 0 20
7 20 20 0 13 7 20 20 20 13 0 20 7 20 20 0 17 7 20 45 20 41 0 45 2 45 25 0
23 4 25 40 25 33 0 40 3 40 20 0 19 7 20 190 20 183 0 190 1 190 20 0 17 7 20
40 20 l40 0 0 105 c0 98 -1 105 -20 105 -13 0 -20 7 -20 20 0 18 -7 20 -85 20
-78 0 -85 2 -85 20 0 13 -7 20 -20 20 -13 0 -20 7 -20 20 0 13 -7 20 -20 20
-13 0 -20 7 -20 20 0 13 -7 20 -20 20 -13 0 -20 -7 -20 -20z"/>
<path d="M6370 535 c0 -38 -3 -45 -20 -45 -13 0 -20 -7 -20 -20 0 -17 -7 -20
-40 -20 -33 0 -40 -3 -40 -20 0 -13 -7 -20 -20 -20 -13 0 -20 -7 -20 -20 0
-13 -7 -20 -20 -20 -13 0 -20 -7 -20 -20 0 -15 -7 -20 -25 -20 -20 0 -25 -5
-25 -25 0 -18 -5 -25 -20 -25 -13 0 -20 -7 -20 -20 0 -13 -7 -20 -20 -20 -17
0 -20 -7 -20 -40 0 -33 -3 -40 -20 -40 -13 0 -20 -7 -20 -20 0 -13 -7 -20 -20
-20 -13 0 -20 -7 -20 -20 0 -13 -7 -20 -20 -20 -15 0 -20 -7 -20 -25 l0 -25
290 0 290 0 0 25 c0 18 5 25 20 25 13 0 20 7 20 20 0 13 7 20 20 20 13 0 20 7
20 20 0 13 7 20 20 20 13 0 20 7 20 20 0 15 7 20 25 20 18 0 25 5 25 20 0 13
7 20 20 20 13 0 20 7 20 20 0 13 7 20 20 20 15 0 20 7 20 25 0 18 5 25 20 25
13 0 20 7 20 20 0 13 7 20 20 20 17 0 20 7 20 40 l0 40 45 0 c38 0 45 3 45 20
0 18 -7 20 -65 20 -58 0 -65 2 -65 20 0 18 -7 20 -85 20 -84 0 -85 0 -85 25
l0 25 -125 0 -125 0 0 -45z"/>
</g>
</svg>
