<?xml version="1.0" standalone="no"?>
<!DOCTYPE svg PUBLIC "-//W3C//DTD SVG 20010904//EN"
 "http://www.w3.org/TR/2001/REC-SVG-20010904/DTD/svg10.dtd">
<svg version="1.0" xmlns="http://www.w3.org/2000/svg"
 width="6667.000000pt" height="3750.000000pt" viewBox="0 0 6667.000000 3750.000000"
 preserveAspectRatio="xMidYMid meet">
<metadata>
Created by potrace 1.15, written by Peter Selinger 2001-2017
</metadata>
<g transform="translate(0.000000,3750.000000) scale(0.100000,-0.100000)"
fill="#000000" stroke="none">
<path d="M7140 37405 c0 -20 -5 -25 -25 -25 l-25 0 0 -130 0 -130 -25 0 -25 0
0 -130 0 -130 -25 0 -25 0 0 -130 0 -130 -25 0 -25 0 0 -160 0 -160 25 0 c25
0 25 1 25 80 0 79 0 80 25 80 25 0 25 1 25 80 0 79 0 80 25 80 23 0 25 3 25
50 0 47 -2 50 -25 50 -20 0 -25 5 -25 25 0 20 5 25 25 25 25 0 25 1 25 80 0
79 0 80 25 80 25 0 25 1 25 80 l0 80 30 0 c30 0 30 -1 30 -55 0 -52 1 -55 25
-55 20 0 25 -5 25 -25 0 -20 -5 -25 -25 -25 -24 0 -25 -3 -25 -55 0 -52 1 -55
25 -55 l25 0 0 -205 0 -205 25 0 c20 0 25 5 25 25 l0 25 105 0 105 0 0 -25 c0
-25 -1 -25 -80 -25 -79 0 -80 0 -80 -25 0 -23 -3 -25 -50 -25 -49 0 -50 -1
-50 -30 0 -25 4 -30 25 -30 24 0 25 -2 25 -75 0 -73 1 -75 25 -75 20 0 25 5
25 25 0 20 5 25 25 25 20 0 25 -5 25 -25 0 -21 5 -25 30 -25 30 0 30 -1 30
-55 l0 -55 -55 0 -55 0 0 -50 c0 -47 -2 -50 -25 -50 -20 0 -25 -5 -25 -25 0
-20 5 -25 25 -25 24 0 25 -3 25 -55 0 -52 -1 -55 -25 -55 -20 0 -25 -5 -25
-25 0 -20 5 -25 25 -25 20 0 25 5 25 25 0 24 3 25 55 25 52 0 55 -1 55 -25 0
-20 5 -25 25 -25 25 0 25 -1 25 -80 0 -79 0 -80 -25 -80 -24 0 -25 3 -25 55
l0 55 -55 0 -55 0 0 -55 c0 -52 1 -55 25 -55 23 0 25 -3 25 -50 l0 -50 55 0
c52 0 55 1 55 25 0 20 5 25 25 25 23 0 25 -3 25 -50 0 -47 -2 -50 -25 -50 -20
0 -25 -5 -25 -25 0 -20 -5 -25 -25 -25 -24 0 -25 -3 -25 -55 0 -54 0 -55 -30
-55 -29 0 -30 -1 -30 -50 0 -49 1 -50 30 -50 30 0 30 -1 30 -55 l0 -55 -55 0
c-52 0 -55 -1 -55 -25 l0 -25 105 0 105 0 0 -25 c0 -20 -5 -25 -25 -25 -23 0
-25 -3 -25 -50 l0 -50 50 0 50 0 0 -80 c0 -79 0 -80 25 -80 20 0 25 5 25 25 0
21 5 25 30 25 29 0 30 -1 30 -50 0 -49 -1 -50 -30 -50 -25 0 -30 -4 -30 -25 0
-23 -3 -25 -50 -25 -49 0 -50 -1 -50 -30 0 -29 1 -30 50 -30 l50 0 0 -50 c0
-47 -2 -50 -25 -50 l-25 0 0 -105 0 -105 25 0 c20 0 25 -5 25 -25 0 -20 -5
-25 -25 -25 -20 0 -25 -5 -25 -25 0 -24 3 -25 55 -25 l55 0 0 -105 0 -105 -30
0 c-30 0 -30 -1 -30 -55 0 -54 0 -55 30 -55 27 0 30 3 30 30 0 25 4 30 25 30
24 0 25 -3 25 -55 0 -52 -1 -55 -25 -55 -23 0 -25 -3 -25 -50 0 -49 -1 -50
-30 -50 -30 0 -30 -1 -30 -55 0 -54 0 -55 30 -55 27 0 30 3 30 30 0 25 4 30
25 30 21 0 25 -5 25 -30 l0 -30 75 0 c73 0 75 -1 75 -25 0 -21 5 -25 30 -25
29 0 30 -1 30 -50 l0 -50 -55 0 c-52 0 -55 -1 -55 -25 0 -20 5 -25 25 -25 21
0 25 -5 25 -30 0 -29 -1 -30 -50 -30 l-50 0 0 -75 c0 -73 -1 -75 -25 -75 -24
0 -25 -3 -25 -55 l0 -55 50 0 50 0 0 -130 0 -130 55 0 c52 0 55 -1 55 -25 0
-20 5 -25 25 -25 20 0 25 -5 25 -25 0 -24 -3 -25 -55 -25 l-55 0 0 -55 c0 -54
0 -55 30 -55 25 0 30 -4 30 -25 0 -20 5 -25 25 -25 23 0 25 -3 25 -50 0 -47
-2 -50 -25 -50 -20 0 -25 -5 -25 -25 0 -21 -5 -25 -30 -25 -27 0 -30 -3 -30
-30 0 -30 1 -30 55 -30 52 0 55 -1 55 -25 0 -20 -5 -25 -25 -25 -20 0 -25 -5
-25 -25 0 -21 -5 -25 -30 -25 -25 0 -30 -4 -30 -25 0 -21 5 -25 30 -25 25 0
30 -4 30 -25 0 -21 -5 -25 -30 -25 -27 0 -30 -3 -30 -30 0 -30 1 -30 55 -30
52 0 55 -1 55 -25 0 -20 -5 -25 -25 -25 -23 0 -25 -3 -25 -50 0 -47 2 -50 25
-50 21 0 25 -5 25 -30 0 -25 4 -30 25 -30 20 0 25 -5 25 -25 0 -20 5 -25 25
-25 23 0 25 -3 25 -50 0 -49 1 -50 30 -50 25 0 30 -4 30 -25 0 -20 5 -25 25
-25 21 0 25 -5 25 -30 0 -25 -4 -30 -25 -30 -23 0 -25 -3 -25 -50 0 -49 -1
-50 -30 -50 -29 0 -30 1 -30 50 0 47 -2 50 -25 50 -23 0 -25 -3 -25 -50 0 -47
2 -50 25 -50 25 0 25 -1 25 -80 l0 -80 30 0 c27 0 30 3 30 30 0 29 1 30 50 30
49 0 50 -1 50 -30 0 -25 4 -30 25 -30 20 0 25 -5 25 -25 0 -20 -5 -25 -25 -25
-20 0 -25 -5 -25 -25 0 -20 -5 -25 -25 -25 -20 0 -25 5 -25 25 0 20 -5 25 -25
25 -20 0 -25 -5 -25 -25 0 -20 5 -25 25 -25 20 0 25 -5 25 -25 0 -23 3 -25 50
-25 l50 0 0 -130 0 -130 -25 0 c-20 0 -25 -5 -25 -25 0 -20 5 -25 25 -25 20 0
25 5 25 25 0 20 5 25 25 25 20 0 25 -5 25 -25 0 -21 5 -25 30 -25 30 0 30 -1
30 -55 0 -54 0 -55 -30 -55 -25 0 -30 -4 -30 -25 0 -20 -5 -25 -25 -25 -20 0
-25 -5 -25 -25 0 -20 5 -25 25 -25 21 0 25 -5 25 -30 0 -27 3 -30 30 -30 25 0
30 -4 30 -25 0 -23 3 -25 50 -25 47 0 50 -2 50 -25 0 -20 5 -25 25 -25 20 0
25 5 25 25 0 20 5 25 25 25 20 0 25 -5 25 -25 0 -21 5 -25 30 -25 25 0 30 4
30 25 0 20 5 25 25 25 23 0 25 -3 25 -50 0 -47 -2 -50 -25 -50 -20 0 -25 -5
-25 -25 0 -21 -5 -25 -30 -25 -25 0 -30 4 -30 25 0 20 -5 25 -25 25 -20 0 -25
-5 -25 -25 0 -20 5 -25 25 -25 21 0 25 -5 25 -30 0 -27 3 -30 30 -30 27 0 30
3 30 30 0 25 4 30 25 30 20 0 25 5 25 25 0 20 5 25 25 25 24 0 25 -3 25 -55 0
-52 1 -55 25 -55 20 0 25 -5 25 -25 0 -24 3 -25 55 -25 52 0 55 -1 55 -25 0
-21 -5 -25 -30 -25 -25 0 -30 -4 -30 -25 0 -21 5 -25 30 -25 25 0 30 -4 30
-25 0 -21 -5 -25 -30 -25 -27 0 -30 -3 -30 -30 0 -27 3 -30 30 -30 29 0 30 -1
30 -50 l0 -50 50 0 50 0 0 50 c0 47 2 50 25 50 24 0 25 -2 25 -75 0 -73 1 -75
25 -75 20 0 25 5 25 25 0 21 5 25 30 25 l30 0 0 -130 0 -130 -30 0 c-25 0 -30
-4 -30 -25 0 -20 -5 -25 -25 -25 -24 0 -25 -3 -25 -55 l0 -55 55 0 c52 0 55
-1 55 -25 0 -25 -1 -25 -80 -25 -79 0 -80 0 -80 -25 0 -20 -5 -25 -25 -25 -25
0 -25 -1 -25 -80 l0 -80 -55 0 c-52 0 -55 -1 -55 -25 0 -20 -5 -25 -25 -25
-20 0 -25 -5 -25 -25 0 -20 5 -25 25 -25 20 0 25 -5 25 -25 0 -21 5 -25 30
-25 l30 0 0 -105 0 -105 25 0 c20 0 25 5 25 25 0 20 5 25 25 25 23 0 25 3 25
50 0 47 2 50 25 50 23 0 25 -3 25 -50 0 -47 2 -50 25 -50 20 0 25 -5 25 -25 0
-21 5 -25 30 -25 25 0 30 -4 30 -25 0 -20 5 -25 25 -25 20 0 25 5 25 25 0 20
5 25 25 25 20 0 25 -5 25 -25 0 -20 5 -25 25 -25 24 0 25 -3 25 -55 0 -52 -1
-55 -25 -55 -20 0 -25 5 -25 25 0 20 -5 25 -25 25 -20 0 -25 -5 -25 -25 0 -24
-3 -25 -55 -25 -52 0 -55 -1 -55 -25 0 -20 -5 -25 -25 -25 -20 0 -25 -5 -25
-25 0 -20 5 -25 25 -25 24 0 25 -3 25 -55 0 -52 -1 -55 -25 -55 -24 0 -25 -2
-25 -75 0 -73 1 -75 25 -75 23 0 25 3 25 50 0 49 1 50 30 50 25 0 30 -4 30
-25 0 -20 5 -25 25 -25 20 0 25 -5 25 -25 0 -20 -5 -25 -25 -25 -24 0 -25 -3
-25 -55 0 -54 0 -55 -30 -55 -25 0 -30 -4 -30 -25 0 -21 5 -25 30 -25 25 0 30
4 30 25 0 23 3 25 50 25 l50 0 0 -50 c0 -47 2 -50 25 -50 20 0 25 -5 25 -25 0
-20 -5 -25 -25 -25 -24 0 -25 -3 -25 -55 0 -52 1 -55 25 -55 20 0 25 -5 25
-25 0 -20 -5 -25 -25 -25 -23 0 -25 -3 -25 -50 0 -47 2 -50 25 -50 21 0 25 -5
25 -30 0 -27 3 -30 30 -30 27 0 30 3 30 30 0 27 -3 30 -30 30 -25 0 -30 4 -30
25 0 21 5 25 30 25 25 0 30 4 30 25 0 20 5 25 25 25 23 0 25 -3 25 -50 0 -47
2 -50 25 -50 21 0 25 -5 25 -30 0 -25 -4 -30 -25 -30 -20 0 -25 -5 -25 -25 0
-20 -5 -25 -25 -25 -23 0 -25 -3 -25 -50 0 -47 2 -50 25 -50 23 0 25 3 25 50
0 47 2 50 25 50 24 0 25 -2 25 -75 0 -73 -1 -75 -25 -75 l-25 0 0 -315 0 -315
25 0 25 0 0 130 0 130 25 0 c24 0 25 3 25 55 0 52 1 55 25 55 21 0 25 -5 25
-30 0 -27 3 -30 30 -30 25 0 30 -4 30 -25 0 -20 5 -25 25 -25 20 0 25 5 25 25
0 20 5 25 25 25 23 0 25 -3 25 -50 0 -47 2 -50 25 -50 23 0 25 -3 25 -50 0
-47 -2 -50 -25 -50 -20 0 -25 5 -25 25 0 25 -1 25 -80 25 -79 0 -80 0 -80 -25
0 -25 1 -25 80 -25 l80 0 0 -30 c0 -25 4 -30 25 -30 20 0 25 -5 25 -25 0 -20
5 -25 25 -25 24 0 25 3 25 55 l0 55 55 0 c54 0 55 0 55 -30 0 -25 -4 -30 -25
-30 -20 0 -25 -5 -25 -25 0 -23 3 -25 50 -25 47 0 50 2 50 25 0 25 1 25 80 25
79 0 80 0 80 -25 0 -23 3 -25 50 -25 l50 0 0 -155 0 -155 25 0 c24 0 25 -3 25
-55 0 -52 1 -55 25 -55 20 0 25 -5 25 -25 0 -20 -5 -25 -25 -25 -23 0 -25 -3
-25 -50 0 -47 2 -50 25 -50 24 0 25 -3 25 -55 0 -54 0 -55 30 -55 l30 0 0
-100 0 -100 50 0 c49 0 50 -1 50 -30 0 -25 -4 -30 -25 -30 -24 0 -25 -2 -25
-75 0 -73 1 -75 25 -75 20 0 25 -5 25 -25 0 -20 5 -25 25 -25 21 0 25 -5 25
-30 0 -25 -4 -30 -25 -30 -23 0 -25 -3 -25 -50 0 -47 2 -50 25 -50 20 0 25 -5
25 -25 0 -21 5 -25 30 -25 l30 0 0 -105 0 -105 25 0 c20 0 25 -5 25 -25 0 -20
-5 -25 -25 -25 -21 0 -25 -5 -25 -30 0 -25 4 -30 25 -30 20 0 25 -5 25 -25 0
-20 5 -25 25 -25 20 0 25 -5 25 -25 0 -23 -3 -25 -50 -25 -47 0 -50 2 -50 25
0 24 -3 25 -55 25 -52 0 -55 -1 -55 -25 0 -24 3 -25 55 -25 l55 0 0 -50 c0
-47 2 -50 25 -50 20 0 25 5 25 25 0 20 5 25 25 25 20 0 25 5 25 25 0 23 3 25
50 25 47 0 50 -2 50 -25 0 -20 -5 -25 -25 -25 -20 0 -25 -5 -25 -25 0 -20 5
-25 25 -25 21 0 25 -5 25 -30 0 -27 3 -30 30 -30 27 0 30 3 30 30 0 27 -3 30
-30 30 -25 0 -30 4 -30 25 0 24 3 25 55 25 l55 0 0 -80 0 -80 -55 0 -55 0 0
-50 c0 -47 -2 -50 -25 -50 -24 0 -25 -3 -25 -55 0 -52 -1 -55 -25 -55 -20 0
-25 -5 -25 -25 0 -20 5 -25 25 -25 20 0 25 5 25 25 0 20 5 25 25 25 24 0 25 3
25 55 0 54 0 55 30 55 25 0 30 -4 30 -25 0 -24 2 -25 75 -25 l75 0 0 -30 c0
-25 -4 -30 -25 -30 -20 0 -25 -5 -25 -25 0 -20 5 -25 25 -25 24 0 25 -2 25
-75 0 -73 -1 -75 -25 -75 -21 0 -25 -5 -25 -30 0 -25 -4 -30 -25 -30 -20 0
-25 -5 -25 -25 0 -20 5 -25 25 -25 20 0 25 5 25 25 0 20 5 25 25 25 21 0 25 5
25 30 0 25 4 30 25 30 21 0 25 -5 25 -30 0 -27 3 -30 30 -30 29 0 30 -1 30
-50 l0 -50 50 0 c47 0 50 -2 50 -25 0 -23 3 -25 50 -25 49 0 50 -1 50 -30 0
-30 1 -30 55 -30 52 0 55 -1 55 -25 0 -24 -3 -25 -55 -25 l-55 0 0 -75 0 -75
30 0 c29 0 30 1 30 50 l0 50 50 0 c47 0 50 -2 50 -25 0 -20 5 -25 25 -25 l25
0 0 105 0 105 25 0 c24 0 25 -3 25 -55 0 -54 0 -55 30 -55 25 0 30 -4 30 -25
0 -21 -5 -25 -30 -25 -25 0 -30 -4 -30 -25 0 -21 5 -25 30 -25 25 0 30 -4 30
-25 0 -20 5 -25 25 -25 21 0 25 -5 25 -30 0 -25 -4 -30 -25 -30 -23 0 -25 -3
-25 -50 0 -49 -1 -50 -30 -50 -25 0 -30 -4 -30 -25 0 -21 5 -25 30 -25 25 0
30 4 30 25 0 20 5 25 25 25 23 0 25 -3 25 -50 0 -47 -2 -50 -25 -50 -21 0 -25
-5 -25 -30 l0 -30 75 0 75 0 0 30 c0 27 3 30 30 30 25 0 30 4 30 25 0 24 -3
25 -55 25 l-55 0 0 50 c0 47 2 50 25 50 24 0 25 3 25 55 0 54 0 55 30 55 30 0
30 -1 30 -55 0 -52 1 -55 25 -55 l25 0 0 290 0 290 -55 0 c-54 0 -55 0 -55
-30 l0 -30 -105 0 -105 0 0 55 c0 52 -1 55 -25 55 -23 0 -25 3 -25 50 0 47 2
50 25 50 20 0 25 5 25 25 l0 25 160 0 160 0 0 390 0 390 -25 0 c-21 0 -25 5
-25 30 0 27 -3 30 -30 30 -25 0 -30 4 -30 25 0 24 3 25 55 25 l55 0 0 105 0
105 25 0 c24 0 25 2 25 75 0 73 -1 75 -25 75 l-25 0 0 105 0 105 25 0 c24 0
25 3 25 55 0 52 -1 55 -25 55 -20 0 -25 5 -25 25 0 20 5 25 25 25 24 0 25 2
25 75 0 73 -1 75 -25 75 -21 0 -25 5 -25 30 0 25 4 30 25 30 l25 0 0 1040 0
1040 -25 0 -25 0 0 310 0 310 25 0 c21 0 25 5 25 30 0 25 -4 30 -25 30 l-25 0
0 1065 0 1065 -25 0 -25 0 0 390 0 390 -30 0 c-25 0 -30 -4 -30 -25 0 -23 -3
-25 -50 -25 l-50 0 0 80 0 80 80 0 80 0 0 415 0 415 25 0 c20 0 25 5 25 25 0
20 -5 25 -25 25 -24 0 -25 3 -25 55 0 52 1 55 25 55 23 0 25 3 25 50 0 47 -2
50 -25 50 l-25 0 0 130 0 130 25 0 c24 0 25 3 25 55 0 52 -1 55 -25 55 l-25 0
0 100 0 100 25 0 c21 0 25 5 25 30 0 25 -4 30 -25 30 -23 0 -25 3 -25 50 0 47
2 50 25 50 l25 0 0 130 0 130 -25 0 c-20 0 -25 5 -25 25 0 20 5 25 25 25 21 0
25 5 25 30 0 25 -4 30 -25 30 -23 0 -25 3 -25 50 0 47 2 50 25 50 l25 0 0
1380 0 1380 -2425 0 -2425 0 0 -25z m320 -50 c0 -20 5 -25 25 -25 21 0 25 -5
25 -30 l0 -30 -105 0 -105 0 0 55 0 55 80 0 c79 0 80 0 80 -25z m880 -30 c0
-52 -1 -55 -25 -55 -20 0 -25 -5 -25 -25 0 -25 -1 -25 -80 -25 -79 0 -80 0
-80 25 0 21 5 25 30 25 27 0 30 3 30 30 0 29 1 30 50 30 47 0 50 2 50 25 0 20
5 25 25 25 24 0 25 -3 25 -55z m1040 -440 c0 -21 5 -25 30 -25 27 0 30 -3 30
-30 0 -25 4 -30 25 -30 20 0 25 -5 25 -25 0 -20 -5 -25 -25 -25 -20 0 -25 5
-25 25 0 21 -5 25 -30 25 -25 0 -30 -4 -30 -25 0 -23 -3 -25 -50 -25 -47 0
-50 2 -50 25 0 20 -5 25 -25 25 -21 0 -25 5 -25 30 0 25 4 30 25 30 21 0 25
-5 25 -30 0 -25 4 -30 25 -30 24 0 25 3 25 55 0 52 1 55 25 55 20 0 25 -5 25
-25z m-1190 -395 l0 -50 50 0 50 0 0 -50 c0 -47 -2 -50 -25 -50 -21 0 -25 -5
-25 -30 0 -30 -1 -30 -55 -30 -52 0 -55 -1 -55 -25 0 -20 -5 -25 -25 -25 -20
0 -25 5 -25 25 0 20 -5 25 -25 25 -20 0 -25 -5 -25 -25 l0 -25 -105 0 -105 0
0 25 c0 23 3 25 50 25 49 0 50 1 50 30 0 29 -1 30 -50 30 l-50 0 0 50 0 50 50
0 c47 0 50 2 50 25 0 21 5 25 30 25 25 0 30 4 30 25 l0 25 105 0 105 0 0 -50z
m2080 -285 c0 -20 5 -25 25 -25 20 0 25 -5 25 -25 0 -20 5 -25 25 -25 24 0 25
-3 25 -55 0 -52 -1 -55 -25 -55 -23 0 -25 -3 -25 -50 0 -47 -2 -50 -25 -50
-20 0 -25 -5 -25 -25 0 -24 -3 -25 -55 -25 -52 0 -55 -1 -55 -25 l0 -25 -100
0 -100 0 0 25 c0 24 -3 25 -55 25 -52 0 -55 1 -55 25 0 20 -5 25 -25 25 -20 0
-25 5 -25 25 0 23 -3 25 -50 25 -47 0 -50 2 -50 25 0 24 2 25 75 25 l75 0 0
30 c0 25 4 30 25 30 20 0 25 5 25 25 0 24 3 25 55 25 52 0 55 1 55 25 0 23 3
25 50 25 47 0 50 2 50 25 0 25 1 25 80 25 79 0 80 0 80 -25z m1140 -1300 c0
-24 3 -25 55 -25 l55 0 0 -55 c0 -52 -1 -55 -25 -55 -20 0 -25 -5 -25 -25 l0
-25 -160 0 -160 0 0 80 0 80 55 0 c52 0 55 1 55 25 0 24 2 25 75 25 73 0 75
-1 75 -25z m-1300 -2660 c0 -20 5 -25 25 -25 20 0 25 -5 25 -25 0 -20 -5 -25
-25 -25 -20 0 -25 -5 -25 -25 0 -24 -2 -25 -75 -25 -73 0 -75 1 -75 25 0 21
-5 25 -30 25 -25 0 -30 4 -30 25 0 24 3 25 55 25 52 0 55 1 55 25 0 23 3 25
50 25 47 0 50 -2 50 -25z m-1870 -205 c0 -30 -1 -30 -55 -30 l-55 0 0 -50 c0
-47 -2 -50 -25 -50 -20 0 -25 -5 -25 -25 0 -20 -5 -25 -25 -25 -23 0 -25 3
-25 50 0 47 2 50 25 50 20 0 25 5 25 25 0 20 5 25 25 25 21 0 25 5 25 30 0 30
1 30 55 30 54 0 55 0 55 -30z m1920 -3545 c0 -25 1 -25 80 -25 79 0 80 0 80
-25 0 -20 5 -25 25 -25 23 0 25 -3 25 -50 l0 -50 -50 0 c-49 0 -50 -1 -50 -30
0 -30 -1 -30 -55 -30 -54 0 -55 0 -55 30 0 29 -1 30 -50 30 -47 0 -50 2 -50
25 0 20 -5 25 -25 25 -20 0 -25 5 -25 25 0 20 5 25 25 25 20 0 25 5 25 25 0
20 5 25 25 25 20 0 25 5 25 25 0 20 5 25 25 25 20 0 25 -5 25 -25z m-360
-1040 c0 -20 5 -25 25 -25 20 0 25 -5 25 -25 0 -23 -3 -25 -50 -25 l-50 0 0
-55 c0 -52 -1 -55 -25 -55 -21 0 -25 5 -25 30 0 27 -3 30 -30 30 -25 0 -30 4
-30 25 0 20 -5 25 -25 25 -20 0 -25 5 -25 25 0 20 5 25 25 25 20 0 25 -5 25
-25 0 -21 5 -25 30 -25 25 0 30 4 30 25 0 20 5 25 25 25 20 0 25 5 25 25 0 20
5 25 25 25 20 0 25 -5 25 -25z"/>
<path d="M13080 31285 l0 -105 -25 0 -25 0 0 -155 0 -155 25 0 c24 0 25 -3 25
-55 0 -52 -1 -55 -25 -55 -20 0 -25 -5 -25 -25 0 -20 5 -25 25 -25 20 0 25 -5
25 -25 0 -20 5 -25 25 -25 20 0 25 -5 25 -25 0 -20 -5 -25 -25 -25 l-25 0 0
-235 0 -235 -25 0 -25 0 0 -340 0 -340 25 0 c20 0 25 -5 25 -25 0 -20 -5 -25
-25 -25 l-25 0 0 -130 0 -130 25 0 c20 0 25 -5 25 -25 0 -20 -5 -25 -25 -25
l-25 0 0 -260 0 -260 25 0 c21 0 25 -5 25 -30 0 -25 -4 -30 -25 -30 l-25 0 0
-180 0 -180 25 0 c25 0 25 -1 25 -80 0 -79 0 -80 -25 -80 -20 0 -25 -5 -25
-25 0 -20 5 -25 25 -25 20 0 25 -5 25 -25 0 -20 -5 -25 -25 -25 l-25 0 0 -235
0 -235 -25 0 c-20 0 -25 -5 -25 -25 0 -20 5 -25 25 -25 25 0 25 -1 25 -80 0
-79 0 -80 -25 -80 l-25 0 0 -155 0 -155 25 0 c24 0 25 -3 25 -55 0 -52 -1 -55
-25 -55 -20 0 -25 -5 -25 -25 0 -20 5 -25 25 -25 20 0 25 5 25 25 0 23 3 25
50 25 l50 0 0 -50 0 -50 -50 0 c-47 0 -50 -2 -50 -25 0 -20 -5 -25 -25 -25
-24 0 -25 -3 -25 -55 0 -52 1 -55 25 -55 23 0 25 -3 25 -50 0 -47 -2 -50 -25
-50 -20 0 -25 -5 -25 -25 0 -20 5 -25 25 -25 24 0 25 -3 25 -55 0 -52 -1 -55
-25 -55 l-25 0 0 -155 0 -155 25 0 c20 0 25 -5 25 -25 0 -20 -5 -25 -25 -25
l-25 0 0 -105 0 -105 25 0 c25 0 25 -1 25 -80 0 -79 0 -80 25 -80 20 0 25 -5
25 -25 0 -20 5 -25 25 -25 20 0 25 -5 25 -25 0 -23 -3 -25 -50 -25 -47 0 -50
-2 -50 -25 0 -20 -5 -25 -25 -25 -25 0 -25 -1 -25 -80 0 -79 0 -80 25 -80 l25
0 0 -105 0 -105 50 0 50 0 0 -50 c0 -47 -2 -50 -25 -50 -20 0 -25 -5 -25 -25
0 -20 -5 -25 -25 -25 -20 0 -25 -5 -25 -25 0 -20 -5 -25 -25 -25 -21 0 -25 -5
-25 -30 0 -25 4 -30 25 -30 24 0 25 -2 25 -75 0 -73 1 -75 25 -75 25 0 25 -1
25 -80 0 -79 0 -80 -25 -80 -20 0 -25 5 -25 25 0 20 -5 25 -25 25 -20 0 -25
-5 -25 -25 0 -20 5 -25 25 -25 20 0 25 -5 25 -25 0 -20 -5 -25 -25 -25 l-25 0
0 -210 0 -210 25 0 c20 0 25 -5 25 -25 0 -20 -5 -25 -25 -25 -23 0 -25 -3 -25
-50 0 -47 2 -50 25 -50 20 0 25 5 25 25 0 20 5 25 25 25 20 0 25 -5 25 -25 0
-20 5 -25 25 -25 20 0 25 5 25 25 0 25 1 25 80 25 79 0 80 0 80 25 0 20 -5 25
-25 25 -23 0 -25 3 -25 50 l0 50 50 0 c49 0 50 1 50 30 0 30 1 30 55 30 54 0
55 0 55 -30 l0 -30 100 0 100 0 0 30 c0 27 3 30 30 30 25 0 30 4 30 25 0 20 5
25 25 25 20 0 25 -5 25 -25 0 -23 3 -25 50 -25 47 0 50 2 50 25 0 20 5 25 25
25 20 0 25 -5 25 -25 0 -21 5 -25 30 -25 25 0 30 4 30 25 0 24 2 25 75 25 73
0 75 -1 75 -25 0 -25 1 -25 80 -25 l80 0 0 50 c0 47 -2 50 -25 50 -20 0 -25 5
-25 25 0 21 -5 25 -30 25 -25 0 -30 4 -30 25 l0 25 135 0 135 0 0 -50 0 -50
-55 0 c-52 0 -55 -1 -55 -25 0 -25 1 -25 80 -25 79 0 80 0 80 25 0 23 3 25 50
25 47 0 50 -2 50 -25 0 -20 5 -25 25 -25 20 0 25 5 25 25 0 21 5 25 30 25 25
0 30 4 30 25 0 20 5 25 25 25 23 0 25 -3 25 -50 l0 -50 50 0 c47 0 50 2 50 25
0 25 1 25 80 25 l80 0 0 -50 c0 -47 2 -50 25 -50 23 0 25 3 25 50 l0 50 80 0
80 0 0 -50 c0 -47 2 -50 25 -50 20 0 25 5 25 25 0 23 3 25 50 25 47 0 50 -2
50 -25 0 -20 5 -25 25 -25 20 0 25 5 25 25 0 21 5 25 30 25 25 0 30 -4 30 -25
0 -20 5 -25 25 -25 20 0 25 5 25 25 0 20 -5 25 -25 25 -20 0 -25 5 -25 25 0
20 5 25 25 25 20 0 25 5 25 25 0 20 -5 25 -25 25 -24 0 -25 3 -25 55 0 54 0
55 -30 55 -25 0 -30 4 -30 25 0 21 5 25 30 25 29 0 30 1 30 50 l0 50 50 0 c49
0 50 1 50 30 0 25 4 30 25 30 21 0 25 -5 25 -30 0 -30 1 -30 55 -30 l55 0 0
80 c0 79 0 80 -25 80 -20 0 -25 5 -25 25 0 24 2 25 75 25 l75 0 0 55 c0 52 -1
55 -25 55 -23 0 -25 3 -25 50 0 47 -2 50 -25 50 -25 0 -25 1 -25 80 0 79 0 80
-25 80 -24 0 -25 2 -25 75 l0 75 -30 0 c-30 0 -30 1 -30 55 0 52 -1 55 -25 55
-23 0 -25 3 -25 50 0 47 -2 50 -25 50 -25 0 -25 1 -25 80 0 79 0 80 -25 80
-23 0 -25 3 -25 50 0 49 -1 50 -30 50 l-30 0 0 80 c0 79 0 80 -25 80 -20 0
-25 5 -25 25 0 20 -5 25 -25 25 -25 0 -25 1 -25 80 0 79 0 80 -25 80 -20 0
-25 5 -25 25 0 20 -5 25 -25 25 -24 0 -25 2 -25 75 l0 75 -30 0 c-25 0 -30 -4
-30 -25 0 -20 -5 -25 -25 -25 -25 0 -25 1 -25 80 0 79 0 80 25 80 20 0 25 5
25 25 0 20 -5 25 -25 25 -25 0 -25 1 -25 80 0 79 0 80 -25 80 -23 0 -25 3 -25
50 0 47 -2 50 -25 50 -25 0 -25 1 -25 80 0 79 0 80 -25 80 -23 0 -25 3 -25 50
0 49 -1 50 -30 50 l-30 0 0 80 c0 79 0 80 -25 80 -23 0 -25 3 -25 50 0 47 -2
50 -25 50 -25 0 -25 1 -25 80 0 79 0 80 -25 80 -23 0 -25 3 -25 50 0 47 -2 50
-25 50 -25 0 -25 1 -25 80 l0 80 -30 0 c-25 0 -30 4 -30 25 0 20 -5 25 -25 25
l-25 0 0 105 0 105 -25 0 c-23 0 -25 3 -25 50 0 47 -2 50 -25 50 -20 0 -25 5
-25 25 0 20 -5 25 -25 25 -20 0 -25 -5 -25 -25 0 -21 -5 -25 -30 -25 -25 0
-30 -4 -30 -25 0 -23 -3 -25 -50 -25 -47 0 -50 -2 -50 -25 0 -20 -5 -25 -25
-25 l-25 0 0 105 0 105 -30 0 c-30 0 -30 -1 -30 -55 0 -52 -1 -55 -25 -55 -24
0 -25 3 -25 55 0 52 -1 55 -25 55 -20 0 -25 5 -25 25 0 25 1 25 80 25 79 0 80
0 80 25 0 20 5 25 25 25 23 0 25 -3 25 -50 0 -47 2 -50 25 -50 20 0 25 5 25
25 0 20 5 25 25 25 20 0 25 -5 25 -25 0 -21 5 -25 30 -25 l30 0 0 75 0 75 -30
0 c-30 0 -30 1 -30 55 0 52 -1 55 -25 55 -20 0 -25 5 -25 25 0 23 -3 25 -50
25 -47 0 -50 2 -50 25 0 20 5 25 25 25 l25 0 0 105 0 105 -25 0 c-20 0 -25 5
-25 25 0 21 -5 25 -30 25 l-30 0 0 80 c0 79 0 80 -25 80 -23 0 -25 3 -25 50 0
47 -2 50 -25 50 -25 0 -25 1 -25 80 0 79 0 80 -25 80 -23 0 -25 3 -25 50 0 47
-2 50 -25 50 -24 0 -25 3 -25 55 0 54 0 55 -30 55 l-30 0 0 75 c0 73 -1 75
-25 75 -25 0 -25 1 -25 80 0 79 0 80 -25 80 -25 0 -25 1 -25 80 0 79 0 80 -25
80 -23 0 -25 3 -25 50 0 47 -2 50 -25 50 -23 0 -25 3 -25 50 0 49 -1 50 -30
50 -30 0 -30 1 -30 55 0 52 -1 55 -25 55 -23 0 -25 3 -25 50 0 47 -2 50 -25
50 -24 0 -25 3 -25 55 0 52 -1 55 -25 55 -24 0 -25 2 -25 75 0 73 -1 75 -25
75 -25 0 -25 1 -25 80 l0 80 -30 0 -30 0 0 80 c0 79 0 80 -25 80 -23 0 -25 3
-25 50 0 47 -2 50 -25 50 -25 0 -25 1 -25 80 0 79 0 80 -25 80 -23 0 -25 3
-25 50 0 47 -2 50 -25 50 -23 0 -25 3 -25 50 0 49 -1 50 -30 50 -30 0 -30 1
-30 55 0 52 -1 55 -25 55 l-25 0 0 -105z m890 -2630 c0 -23 3 -25 50 -25 47 0
50 -2 50 -25 0 -20 5 -25 25 -25 24 0 25 -3 25 -55 0 -52 1 -55 25 -55 23 0
25 -3 25 -50 0 -49 1 -50 30 -50 l30 0 0 -80 0 -80 -55 0 c-52 0 -55 1 -55 25
0 20 -5 25 -25 25 -21 0 -25 5 -25 30 0 25 -4 30 -25 30 -20 0 -25 5 -25 25 0
20 5 25 25 25 20 0 25 -5 25 -25 0 -20 5 -25 25 -25 24 0 25 2 25 75 0 73 -1
75 -25 75 -20 0 -25 -5 -25 -25 0 -20 -5 -25 -25 -25 -25 0 -25 1 -25 80 0 79
0 80 -25 80 -20 0 -25 5 -25 25 0 21 -5 25 -30 25 -25 0 -30 4 -30 25 0 21 5
25 30 25 25 0 30 -4 30 -25z m-370 -130 c0 -52 1 -55 25 -55 23 0 25 -3 25
-50 l0 -50 55 0 55 0 0 50 c0 47 2 50 25 50 20 0 25 5 25 25 0 20 5 25 25 25
23 0 25 -3 25 -50 0 -47 -2 -50 -25 -50 -20 0 -25 -5 -25 -25 0 -20 5 -25 25
-25 20 0 25 -5 25 -25 0 -20 5 -25 25 -25 21 0 25 -5 25 -30 0 -27 3 -30 30
-30 25 0 30 -4 30 -25 0 -21 -5 -25 -30 -25 -25 0 -30 4 -30 25 0 20 -5 25
-25 25 -21 0 -25 5 -25 30 0 25 -4 30 -25 30 -20 0 -25 5 -25 25 0 20 -5 25
-25 25 -24 0 -25 -3 -25 -55 0 -52 1 -55 25 -55 20 0 25 -5 25 -25 0 -20 -5
-25 -25 -25 -20 0 -25 -5 -25 -25 0 -20 5 -25 25 -25 24 0 25 -3 25 -55 0 -52
-1 -55 -25 -55 -20 0 -25 -5 -25 -25 0 -20 -5 -25 -25 -25 -20 0 -25 -5 -25
-25 0 -20 5 -25 25 -25 20 0 25 -5 25 -25 0 -20 -5 -25 -25 -25 -24 0 -25 -3
-25 -55 l0 -55 -105 0 -105 0 0 55 c0 52 1 55 25 55 20 0 25 5 25 25 0 20 5
25 25 25 20 0 25 5 25 25 0 23 -3 25 -50 25 -47 0 -50 2 -50 25 0 20 -5 25
-25 25 -20 0 -25 -5 -25 -25 0 -21 -5 -25 -30 -25 -30 0 -30 1 -30 55 0 52 -1
55 -25 55 -20 0 -25 5 -25 25 0 20 5 25 25 25 20 0 25 5 25 25 0 21 5 25 30
25 25 0 30 -4 30 -25 0 -20 5 -25 25 -25 20 0 25 -5 25 -25 0 -20 5 -25 25
-25 23 0 25 3 25 50 0 47 2 50 25 50 24 0 25 3 25 55 0 52 -1 55 -25 55 -21 0
-25 -5 -25 -30 0 -29 -1 -30 -50 -30 -49 0 -50 1 -50 30 0 25 4 30 25 30 20 0
25 5 25 25 0 20 -5 25 -25 25 -23 0 -25 3 -25 50 0 47 2 50 25 50 20 0 25 -5
25 -25 0 -20 5 -25 25 -25 20 0 25 -5 25 -25 0 -20 5 -25 25 -25 23 0 25 3 25
50 0 47 -2 50 -25 50 -24 0 -25 3 -25 55 0 52 1 55 25 55 24 0 25 -3 25 -55z
m680 -1095 c0 -47 2 -50 25 -50 24 0 25 -3 25 -55 0 -52 -1 -55 -25 -55 -20 0
-25 -5 -25 -25 0 -20 -5 -25 -25 -25 -20 0 -25 5 -25 25 0 24 -3 25 -55 25
-52 0 -55 -1 -55 -25 0 -20 -5 -25 -25 -25 -20 0 -25 5 -25 25 0 23 -3 25 -50
25 l-50 0 0 80 0 80 50 0 c47 0 50 2 50 25 l0 25 105 0 105 0 0 -50z m-310
-235 c0 -21 -5 -25 -30 -25 -25 0 -30 -4 -30 -25 0 -20 -5 -25 -25 -25 -20 0
-25 -5 -25 -25 0 -20 -5 -25 -25 -25 -21 0 -25 -5 -25 -30 l0 -30 -80 0 -80 0
0 80 0 80 130 0 130 0 0 25 c0 21 5 25 30 25 25 0 30 -4 30 -25z m520 -310 c0
-20 5 -25 25 -25 25 0 25 -1 25 -80 l0 -80 -105 0 -105 0 0 80 0 80 55 0 c52
0 55 1 55 25 0 20 5 25 25 25 20 0 25 -5 25 -25z m310 -55 c0 -79 0 -80 25
-80 20 0 25 -5 25 -25 0 -23 -3 -25 -50 -25 -47 0 -50 2 -50 25 0 20 -5 25
-25 25 -24 0 -25 3 -25 55 0 52 1 55 25 55 20 0 25 5 25 25 0 20 5 25 25 25
25 0 25 -1 25 -80z m-160 -935 c0 -21 5 -25 30 -25 25 0 30 4 30 25 0 20 5 25
25 25 20 0 25 -5 25 -25 0 -20 5 -25 25 -25 20 0 25 -5 25 -25 0 -20 -5 -25
-25 -25 -21 0 -25 -5 -25 -30 l0 -30 -105 0 -105 0 0 55 c0 52 1 55 25 55 20
0 25 5 25 25 0 20 5 25 25 25 20 0 25 -5 25 -25z m-50 -890 c0 -20 5 -25 25
-25 20 0 25 5 25 25 0 21 5 25 30 25 25 0 30 -4 30 -25 0 -20 5 -25 25 -25 20
0 25 -5 25 -25 0 -20 5 -25 25 -25 20 0 25 5 25 25 0 20 5 25 25 25 20 0 25
-5 25 -25 0 -20 5 -25 25 -25 20 0 25 5 25 25 0 24 3 25 55 25 52 0 55 -1 55
-25 0 -24 -3 -25 -55 -25 -52 0 -55 -1 -55 -25 0 -25 1 -25 80 -25 79 0 80 0
80 -25 0 -20 -5 -25 -25 -25 -21 0 -25 -5 -25 -30 0 -25 -4 -30 -25 -30 -20 0
-25 -5 -25 -25 0 -24 2 -25 75 -25 73 0 75 -1 75 -25 0 -20 -5 -25 -25 -25
-20 0 -25 -5 -25 -25 l0 -25 -105 0 -105 0 0 -25 c0 -24 -2 -25 -75 -25 l-75
0 0 -30 c0 -27 -3 -30 -30 -30 -27 0 -30 3 -30 30 l0 30 -75 0 c-73 0 -75 1
-75 25 0 25 -1 25 -80 25 -79 0 -80 0 -80 -25 0 -23 -3 -25 -50 -25 -47 0 -50
2 -50 25 0 20 5 25 25 25 20 0 25 5 25 25 0 24 -3 25 -55 25 l-55 0 0 50 0 50
55 0 c52 0 55 -1 55 -25 0 -23 3 -25 50 -25 47 0 50 2 50 25 0 20 -5 25 -25
25 -24 0 -25 3 -25 55 0 52 -1 55 -25 55 -20 0 -25 5 -25 25 0 25 1 25 80 25
79 0 80 0 80 25 0 23 3 25 50 25 47 0 50 2 50 25 0 20 5 25 25 25 20 0 25 -5
25 -25z m-620 -255 l0 -80 -30 0 c-29 0 -30 1 -30 50 l0 50 -50 0 c-49 0 -50
1 -50 30 l0 30 80 0 80 0 0 -80z m1140 -290 c0 -47 2 -50 25 -50 24 0 25 -3
25 -55 0 -52 -1 -55 -25 -55 -24 0 -25 3 -25 55 0 52 -1 55 -25 55 -24 0 -25
-3 -25 -55 0 -52 -1 -55 -25 -55 -24 0 -25 3 -25 55 0 52 1 55 25 55 20 0 25
5 25 25 0 23 -3 25 -50 25 -47 0 -50 2 -50 25 0 24 2 25 75 25 l75 0 0 -50z
m-2030 -390 c0 -30 1 -30 55 -30 l55 0 0 -50 c0 -49 -1 -50 -30 -50 -25 0 -30
-4 -30 -25 0 -20 -5 -25 -25 -25 -24 0 -25 2 -25 75 0 73 -1 75 -25 75 -21 0
-25 5 -25 30 0 25 4 30 25 30 21 0 25 -5 25 -30z"/>
<path d="M43017 29873 c-4 -3 -7 -560 -7 -1236 l0 -1229 -52 47 c-196 177
-483 298 -792 336 -136 16 -402 6 -528 -21 -304 -64 -581 -216 -790 -434 l-58
-60 0 -1177 0 -1177 101 -96 c470 -447 1183 -551 1748 -255 116 61 229 141
315 225 36 35 68 64 71 64 3 0 5 -81 5 -180 l0 -180 545 0 545 0 0 164 0 165
-56 53 c-285 268 -468 614 -525 993 -18 125 -14 361 10 495 39 226 145 485
273 665 71 101 192 239 252 289 l46 37 0 1260 0 1259 -548 0 c-302 0 -552 -3
-555 -7z m-538 -3043 c402 -97 636 -504 535 -930 -9 -36 -36 -107 -62 -159
-86 -177 -249 -309 -449 -363 -100 -26 -293 -29 -400 -5 -212 48 -385 184
-474 372 -61 126 -73 189 -74 355 0 125 3 156 23 220 84 268 285 458 546 515
95 21 256 18 355 -5z"/>
<path d="M24510 29737 c0 -2 1460 -3484 3244 -7738 l3243 -7734 1387 -3 1387
-2 24 52 c13 29 1266 3014 2783 6633 1518 3619 2772 6607 2786 6640 14 33 90
215 170 405 79 190 217 518 306 730 285 677 420 1002 420 1011 0 5 -864 9
-1985 9 -1880 0 -1985 -1 -1994 -17 -5 -10 -881 -2290 -1946 -5068 -1066
-2777 -1940 -5053 -1944 -5057 -3 -4 -41 84 -84 195 -87 224 -3767 9811 -3799
9895 l-19 52 -1990 0 c-1094 0 -1989 -1 -1989 -3z"/>
<path d="M40283 29393 c-44 -103 -158 -374 -253 -602 -198 -471 -191 -424 -70
-462 186 -57 376 -39 540 54 75 41 207 177 247 252 58 110 78 196 77 325 -1
98 -5 127 -28 195 -69 200 -230 365 -412 419 -20 6 -28 -9 -101 -181z"/>
<path d="M45181 27789 c-405 -46 -768 -214 -1054 -489 -272 -262 -438 -570
-503 -940 -21 -117 -24 -392 -5 -500 85 -495 345 -893 763 -1167 322 -212 670
-304 1088 -289 686 24 1174 264 1501 738 l60 87 44 -21 c25 -12 41 -26 38 -32
-64 -109 -178 -250 -287 -354 l-87 -81 48 -35 c74 -54 228 -139 334 -184 279
-118 565 -172 916 -172 369 0 669 65 973 211 478 230 786 611 906 1124 27 114
29 132 28 355 0 264 -12 345 -80 541 -214 616 -791 1048 -1529 1144 -155 20
-444 20 -601 0 -372 -49 -692 -173 -967 -376 l-68 -50 66 -72 c251 -273 385
-634 410 -1098 4 -69 4 -151 0 -182 l-7 -56 -526 -1 c-289 0 -527 -2 -529 -3
-4 -5 26 -200 41 -255 l13 -51 -51 -49 c-185 -179 -348 -242 -631 -242 -169 0
-267 20 -382 79 -174 88 -277 215 -324 399 -10 41 -19 97 -19 124 l0 48 1160
0 1159 0 7 37 c10 53 -3 330 -22 453 -111 747 -609 1233 -1377 1345 -135 19
-395 27 -506 14z m388 -734 c158 -38 288 -136 359 -273 35 -66 72 -176 72
-211 0 -8 -170 -11 -606 -11 l-607 0 7 51 c31 230 202 399 461 453 52 10 255
5 314 -9z m2660 -286 c248 -63 432 -242 513 -499 20 -65 23 -95 23 -230 0
-135 -3 -165 -23 -230 -40 -126 -88 -206 -182 -301 -72 -74 -99 -93 -180 -132
-120 -57 -209 -77 -349 -77 -180 0 -308 36 -436 121 -128 86 -213 199 -268
356 -26 76 -31 106 -35 219 -5 149 7 237 45 334 41 101 91 179 163 250 185
186 461 257 729 189z"/>
<path d="M50470 27794 c-373 -32 -636 -113 -845 -262 -75 -53 -178 -149 -173
-162 2 -4 35 -35 73 -69 311 -274 505 -667 534 -1084 7 -111 0 -330 -13 -383
-5 -20 7 -26 137 -74 293 -109 384 -169 405 -263 11 -56 0 -126 -28 -171 -51
-84 -224 -123 -406 -92 -53 9 -138 32 -187 52 -49 20 -90 34 -91 32 -1 -1 -22
-34 -46 -73 -124 -201 -315 -394 -515 -521 -41 -26 -75 -50 -75 -54 0 -11 249
-126 345 -160 336 -117 765 -142 1190 -69 381 66 657 216 821 445 135 188 199
486 163 751 -42 311 -237 561 -564 726 -148 74 -245 111 -510 192 -260 81
-360 141 -385 234 -12 45 -2 107 24 146 17 25 71 57 116 68 59 14 230 18 310
7 166 -22 392 -91 532 -161 32 -16 60 -29 63 -29 11 0 366 723 358 731 -15 14
-177 80 -294 119 -135 44 -304 84 -451 105 -102 15 -402 27 -488 19z"/>
<path d="M39600 26025 l0 -1605 555 0 555 0 0 1605 0 1605 -555 0 -555 0 0
-1605z"/>
<path d="M15840 24355 c0 -52 1 -55 25 -55 23 0 25 -3 25 -50 0 -49 1 -50 30
-50 l30 0 0 -80 c0 -79 0 -80 25 -80 23 0 25 -3 25 -50 0 -47 2 -50 25 -50 20
0 25 -5 25 -25 0 -20 5 -25 25 -25 20 0 25 5 25 25 0 20 5 25 25 25 25 0 25 1
25 80 0 79 0 80 -25 80 -20 0 -25 5 -25 25 0 23 -3 25 -50 25 -47 0 -50 2 -50
25 0 20 -5 25 -25 25 -23 0 -25 3 -25 50 0 49 -1 50 -30 50 -30 0 -30 1 -30
55 0 52 -1 55 -25 55 -24 0 -25 -3 -25 -55z"/>
<path d="M10740 24070 c0 -25 4 -30 25 -30 23 0 25 -3 25 -50 0 -47 -2 -50
-25 -50 -20 0 -25 5 -25 25 0 20 -5 25 -25 25 -20 0 -25 -5 -25 -25 0 -21 -5
-25 -30 -25 -25 0 -30 -4 -30 -25 0 -25 1 -25 80 -25 79 0 80 0 80 25 0 20 5
25 25 25 20 0 25 5 25 25 0 20 5 25 25 25 20 0 25 5 25 25 0 23 -3 25 -50 25
-49 0 -50 1 -50 30 0 25 -4 30 -25 30 -21 0 -25 -5 -25 -30z"/>
<path d="M16470 23865 c0 -24 -3 -25 -55 -25 -54 0 -55 0 -55 -30 0 -25 -4
-30 -25 -30 -20 0 -25 -5 -25 -25 0 -25 1 -25 80 -25 79 0 80 0 80 25 0 20 5
25 25 25 24 0 25 3 25 55 0 52 -1 55 -25 55 -20 0 -25 -5 -25 -25z"/>
<path d="M11670 23600 l0 -130 -25 0 c-24 0 -25 -2 -25 -75 0 -73 -1 -75 -25
-75 l-25 0 0 130 0 130 -25 0 c-20 0 -25 5 -25 25 0 24 -3 25 -55 25 -52 0
-55 -1 -55 -25 0 -20 -5 -25 -25 -25 -21 0 -25 -5 -25 -30 0 -25 4 -30 25 -30
20 0 25 -5 25 -25 0 -20 -5 -25 -25 -25 -20 0 -25 -5 -25 -25 0 -20 -5 -25
-25 -25 -23 0 -25 3 -25 50 0 47 -2 50 -25 50 -20 0 -25 -5 -25 -25 0 -20 -5
-25 -25 -25 -20 0 -25 -5 -25 -25 0 -24 -3 -25 -55 -25 l-55 0 0 -50 c0 -47
-2 -50 -25 -50 -20 0 -25 5 -25 25 0 20 -5 25 -25 25 -20 0 -25 -5 -25 -25 l0
-25 -105 0 -105 0 0 -30 c0 -25 -4 -30 -25 -30 -23 0 -25 -3 -25 -50 l0 -50
50 0 c47 0 50 2 50 25 0 20 5 25 25 25 23 0 25 -3 25 -50 0 -47 -2 -50 -25
-50 -21 0 -25 -5 -25 -30 0 -25 4 -30 25 -30 20 0 25 -5 25 -25 0 -21 5 -25
30 -25 30 0 30 1 30 55 0 52 1 55 25 55 21 0 25 -5 25 -30 0 -29 1 -30 50 -30
47 0 50 -2 50 -25 0 -20 -5 -25 -25 -25 -23 0 -25 -3 -25 -50 0 -47 2 -50 25
-50 23 0 25 3 25 50 0 47 2 50 25 50 23 0 25 -3 25 -50 l0 -50 55 0 c52 0 55
-1 55 -25 0 -20 5 -25 25 -25 24 0 25 -3 25 -55 0 -52 1 -55 25 -55 23 0 25
-3 25 -50 0 -47 -2 -50 -25 -50 -20 0 -25 -5 -25 -25 0 -20 -5 -25 -25 -25
-23 0 -25 3 -25 50 0 47 -2 50 -25 50 -23 0 -25 -3 -25 -50 0 -47 2 -50 25
-50 24 0 25 -3 25 -55 0 -52 1 -55 25 -55 24 0 25 3 25 55 0 52 1 55 25 55 20
0 25 5 25 25 0 20 5 25 25 25 20 0 25 -5 25 -25 0 -24 3 -25 55 -25 54 0 55 0
55 -30 0 -25 4 -30 25 -30 20 0 25 -5 25 -25 0 -23 3 -25 50 -25 47 0 50 -2
50 -25 0 -20 -5 -25 -25 -25 -20 0 -25 -5 -25 -25 0 -20 5 -25 25 -25 20 0 25
5 25 25 0 24 3 25 55 25 52 0 55 -1 55 -25 0 -25 1 -25 80 -25 l80 0 0 130 0
130 25 0 c20 0 25 5 25 25 l0 25 -185 0 -185 0 0 50 0 50 80 0 80 0 0 30 0 30
80 0 80 0 0 -30 c0 -25 4 -30 25 -30 24 0 25 3 25 55 0 52 -1 55 -25 55 -20 0
-25 5 -25 25 0 21 -5 25 -30 25 -25 0 -30 -4 -30 -25 0 -20 -5 -25 -25 -25
-24 0 -25 2 -25 75 0 73 1 75 25 75 21 0 25 5 25 30 0 27 3 30 30 30 25 0 30
4 30 25 0 21 -5 25 -30 25 -25 0 -30 -4 -30 -25 0 -20 -5 -25 -25 -25 -23 0
-25 3 -25 50 0 47 2 50 25 50 20 0 25 5 25 25 0 21 5 25 30 25 27 0 30 3 30
30 0 25 4 30 25 30 l25 0 0 205 0 205 -55 0 c-52 0 -55 -1 -55 -25 0 -20 -5
-25 -25 -25 -20 0 -25 5 -25 25 0 20 -5 25 -25 25 -20 0 -25 -5 -25 -25 0 -20
-5 -25 -25 -25 -20 0 -25 5 -25 25 0 21 -5 25 -30 25 l-30 0 0 -130z m-150
-100 c0 -79 0 -80 -25 -80 -23 0 -25 -3 -25 -50 l0 -50 50 0 50 0 0 -55 c0
-52 1 -55 25 -55 20 0 25 -5 25 -25 0 -20 5 -25 25 -25 23 0 25 3 25 50 0 47
-2 50 -25 50 -21 0 -25 5 -25 30 0 25 4 30 25 30 21 0 25 -5 25 -30 0 -27 3
-30 30 -30 30 0 30 1 30 55 0 54 0 55 -30 55 -25 0 -30 4 -30 25 l0 25 105 0
105 0 0 -25 c0 -21 5 -25 30 -25 25 0 30 -4 30 -25 0 -24 -3 -25 -55 -25 -54
0 -55 0 -55 -30 0 -25 -4 -30 -25 -30 -23 0 -25 -3 -25 -50 0 -47 -2 -50 -25
-50 -25 0 -25 -1 -25 -80 0 -79 0 -80 25 -80 20 0 25 -5 25 -25 l0 -25 -130 0
-130 0 0 25 c0 20 5 25 25 25 24 0 25 3 25 55 l0 55 -50 0 c-47 0 -50 2 -50
25 0 20 5 25 25 25 23 0 25 3 25 50 0 47 -2 50 -25 50 -21 0 -25 5 -25 30 0
30 -1 30 -55 30 -54 0 -55 0 -55 -30 0 -25 4 -30 25 -30 20 0 25 -5 25 -25 l0
-25 -130 0 -130 0 0 55 0 55 55 0 c52 0 55 1 55 25 0 23 3 25 50 25 47 0 50 2
50 25 0 24 3 25 55 25 l55 0 0 80 c0 79 0 80 25 80 25 0 25 -1 25 -80z"/>
<path d="M12250 22560 l0 -30 -80 0 c-79 0 -80 0 -80 -25 0 -20 -5 -25 -25
-25 -20 0 -25 -5 -25 -25 0 -20 -5 -25 -25 -25 l-25 0 0 -130 0 -130 25 0 25
0 0 -285 0 -285 25 0 c24 0 25 -3 25 -55 0 -52 -1 -55 -25 -55 -23 0 -25 -3
-25 -50 0 -47 2 -50 25 -50 24 0 25 -3 25 -55 0 -52 1 -55 25 -55 l25 0 0
-100 0 -100 -25 0 -25 0 0 -105 0 -105 -25 0 -25 0 0 -1670 0 -1670 -25 0 -25
0 0 -650 0 -650 -55 0 c-52 0 -55 -1 -55 -25 0 -21 5 -25 30 -25 25 0 30 -4
30 -25 0 -20 5 -25 25 -25 24 0 25 -3 25 -55 l0 -55 -55 0 c-54 0 -55 0 -55
30 0 25 -4 30 -25 30 -20 0 -25 5 -25 25 0 20 -5 25 -25 25 -20 0 -25 -5 -25
-25 0 -24 -3 -25 -55 -25 -52 0 -55 1 -55 25 0 20 -5 25 -25 25 -20 0 -25 5
-25 25 0 24 -2 25 -75 25 -73 0 -75 1 -75 25 0 24 -3 25 -55 25 -52 0 -55 -1
-55 -25 0 -23 -3 -25 -50 -25 -47 0 -50 -2 -50 -25 0 -20 5 -25 25 -25 20 0
25 -5 25 -25 0 -20 -5 -25 -25 -25 -21 0 -25 -5 -25 -30 0 -25 -4 -30 -25 -30
-20 0 -25 -5 -25 -25 0 -24 -3 -25 -55 -25 -52 0 -55 -1 -55 -25 0 -23 -3 -25
-50 -25 -47 0 -50 2 -50 25 0 20 -5 25 -25 25 -20 0 -25 5 -25 25 0 21 -5 25
-30 25 -25 0 -30 -4 -30 -25 0 -20 -5 -25 -25 -25 -20 0 -25 -5 -25 -25 0 -20
-5 -25 -25 -25 -20 0 -25 -5 -25 -25 0 -20 -5 -25 -25 -25 -24 0 -25 -3 -25
-55 0 -52 -1 -55 -25 -55 l-25 0 0 -105 0 -105 -30 0 c-25 0 -30 -4 -30 -25 0
-23 -3 -25 -50 -25 -47 0 -50 2 -50 25 0 24 -3 25 -55 25 -52 0 -55 -1 -55
-25 0 -20 -5 -25 -25 -25 -20 0 -25 -5 -25 -25 0 -24 3 -25 55 -25 52 0 55 -1
55 -25 0 -21 -5 -25 -30 -25 -25 0 -30 -4 -30 -25 0 -20 -5 -25 -25 -25 -21 0
-25 -5 -25 -30 0 -25 -4 -30 -25 -30 -23 0 -25 -3 -25 -50 0 -47 -2 -50 -25
-50 -23 0 -25 -3 -25 -50 0 -47 -2 -50 -25 -50 -24 0 -25 -3 -25 -55 0 -54 0
-55 -30 -55 -29 0 -30 -1 -30 -50 0 -47 -2 -50 -25 -50 -20 0 -25 -5 -25 -25
0 -20 -5 -25 -25 -25 l-25 0 0 100 0 100 25 0 c25 0 25 1 25 80 0 79 0 80 25
80 20 0 25 -5 25 -25 0 -21 5 -25 30 -25 25 0 30 4 30 25 0 21 -5 25 -30 25
l-30 0 0 80 0 80 30 0 c29 0 30 1 30 50 0 47 2 50 25 50 20 0 25 5 25 25 0 20
5 25 25 25 20 0 25 5 25 25 0 20 -5 25 -25 25 -20 0 -25 -5 -25 -25 0 -24 -3
-25 -55 -25 -52 0 -55 -1 -55 -25 0 -20 -5 -25 -25 -25 -20 0 -25 -5 -25 -25
0 -20 -5 -25 -25 -25 -20 0 -25 -5 -25 -25 0 -20 -5 -25 -25 -25 -24 0 -25 -3
-25 -55 0 -52 -1 -55 -25 -55 -23 0 -25 -3 -25 -50 0 -49 -1 -50 -30 -50 l-30
0 0 -105 0 -105 -25 0 -25 0 0 -105 0 -105 -25 0 -25 0 0 -130 0 -130 -25 0
c-25 0 -25 -1 -25 -80 0 -79 0 -80 -25 -80 l-25 0 0 -100 0 -100 -30 0 c-30 0
-30 -1 -30 -55 0 -52 -1 -55 -25 -55 l-25 0 0 -105 0 -105 -25 0 c-23 0 -25
-3 -25 -50 0 -47 -2 -50 -25 -50 -23 0 -25 -3 -25 -50 0 -47 -2 -50 -25 -50
-25 0 -25 -1 -25 -80 l0 -80 -30 0 -30 0 0 -80 c0 -79 0 -80 -25 -80 -20 0
-25 -5 -25 -25 0 -20 -5 -25 -25 -25 l-25 0 0 -130 0 -130 -25 0 c-23 0 -25
-3 -25 -50 0 -49 -1 -50 -30 -50 l-30 0 0 -105 0 -105 30 0 c25 0 30 -4 30
-25 0 -21 -5 -25 -30 -25 -27 0 -30 -3 -30 -30 0 -25 -4 -30 -25 -30 -23 0
-25 -3 -25 -50 0 -47 -2 -50 -25 -50 -20 0 -25 5 -25 25 0 25 -1 25 -80 25
-79 0 -80 0 -80 25 0 20 -5 25 -25 25 -24 0 -25 3 -25 55 l0 55 -50 0 c-47 0
-50 -2 -50 -25 0 -20 5 -25 25 -25 21 0 25 -5 25 -30 0 -25 -4 -30 -25 -30
-24 0 -25 -2 -25 -75 l0 -75 -55 0 c-52 0 -55 -1 -55 -25 0 -20 -5 -25 -25
-25 -21 0 -25 -5 -25 -30 l0 -30 -155 0 -155 0 0 -25 c0 -20 -5 -25 -25 -25
-24 0 -25 -2 -25 -75 l0 -75 75 0 c73 0 75 1 75 25 0 21 5 25 30 25 25 0 30 4
30 25 0 20 5 25 25 25 20 0 25 5 25 25 0 20 5 25 25 25 20 0 25 -5 25 -25 0
-20 5 -25 25 -25 20 0 25 -5 25 -25 0 -20 -5 -25 -25 -25 -25 0 -25 -1 -25
-80 0 -79 0 -80 25 -80 23 0 25 -3 25 -50 0 -47 -2 -50 -25 -50 -21 0 -25 -5
-25 -30 0 -25 -4 -30 -25 -30 -20 0 -25 -5 -25 -25 0 -20 -5 -25 -25 -25 -20
0 -25 5 -25 25 0 21 -5 25 -30 25 -25 0 -30 -4 -30 -25 0 -20 -5 -25 -25 -25
-23 0 -25 -3 -25 -50 0 -47 -2 -50 -25 -50 -23 0 -25 3 -25 50 0 47 -2 50 -25
50 -20 0 -25 -5 -25 -25 0 -20 -5 -25 -25 -25 -20 0 -25 -5 -25 -25 0 -25 -1
-25 -80 -25 -79 0 -80 0 -80 25 0 20 -5 25 -25 25 -20 0 -25 -5 -25 -25 0 -21
-5 -25 -30 -25 -25 0 -30 -4 -30 -25 0 -23 -3 -25 -50 -25 -49 0 -50 -1 -50
-30 0 -25 -4 -30 -25 -30 -23 0 -25 -3 -25 -50 0 -47 -2 -50 -25 -50 -23 0
-25 -3 -25 -50 0 -49 -1 -50 -30 -50 l-30 0 0 -105 0 -105 -25 0 -25 0 0 -105
0 -105 -25 0 -25 0 0 -105 0 -105 25 0 25 0 0 -130 0 -130 -25 0 c-20 0 -25 5
-25 25 0 25 -1 25 -80 25 -79 0 -80 0 -80 -25 0 -20 -5 -25 -25 -25 -20 0 -25
5 -25 25 0 20 -5 25 -25 25 -24 0 -25 3 -25 55 0 52 -1 55 -25 55 -24 0 -25 2
-25 75 l0 75 50 0 c49 0 50 1 50 30 0 25 4 30 25 30 23 0 25 3 25 50 0 47 -2
50 -25 50 -20 0 -25 5 -25 25 l0 25 -105 0 -105 0 0 -25 0 -25 -180 0 -180 0
0 -25 c0 -25 -1 -25 -80 -25 -79 0 -80 0 -80 -25 0 -23 -3 -25 -50 -25 -47 0
-50 2 -50 25 0 20 -5 25 -25 25 -20 0 -25 -5 -25 -25 l0 -25 -185 0 -185 0 0
-30 c0 -25 -4 -30 -25 -30 -21 0 -25 5 -25 30 l0 30 -80 0 -80 0 0 -30 0 -30
-75 0 c-73 0 -75 -1 -75 -25 l0 -25 -260 0 -260 0 0 -25 0 -25 -130 0 -130 0
0 -25 0 -25 -210 0 -210 0 0 -30 0 -30 -210 0 -210 0 0 -25 c0 -23 -3 -25 -50
-25 -47 0 -50 2 -50 25 0 24 -3 25 -55 25 -52 0 -55 -1 -55 -25 0 -23 -3 -25
-50 -25 -47 0 -50 -2 -50 -25 0 -20 -5 -25 -25 -25 -23 0 -25 -3 -25 -50 0
-47 -2 -50 -25 -50 -25 0 -25 -1 -25 -80 l0 -80 -30 0 -30 0 0 -80 0 -80 55 0
55 0 0 -390 0 -390 -25 0 c-24 0 -25 -2 -25 -75 l0 -75 -130 0 -130 0 0 -30
c0 -25 4 -30 25 -30 20 0 25 -5 25 -25 0 -20 -5 -25 -25 -25 -20 0 -25 -5 -25
-25 0 -21 -5 -25 -30 -25 -25 0 -30 -4 -30 -25 0 -24 -2 -25 -75 -25 l-75 0 0
75 0 75 -210 0 -210 0 0 -25 0 -25 -180 0 -180 0 0 -25 c0 -21 -5 -25 -30 -25
-29 0 -30 -1 -30 -50 0 -47 -2 -50 -25 -50 -24 0 -25 -3 -25 -55 0 -52 1 -55
25 -55 20 0 25 -5 25 -25 0 -21 5 -25 30 -25 l30 0 0 -80 c0 -79 0 -80 25 -80
20 0 25 -5 25 -25 0 -20 5 -25 25 -25 23 0 25 -3 25 -50 0 -47 2 -50 25 -50
20 0 25 -5 25 -25 0 -20 5 -25 25 -25 21 0 25 -5 25 -30 l0 -30 80 0 80 0 0
30 c0 25 4 30 25 30 21 0 25 -5 25 -30 0 -25 4 -30 25 -30 21 0 25 5 25 30 l0
30 80 0 80 0 0 -30 c0 -25 4 -30 25 -30 21 0 25 5 25 30 0 27 3 30 30 30 25 0
30 4 30 25 0 20 5 25 25 25 20 0 25 -5 25 -25 0 -23 3 -25 50 -25 47 0 50 2
50 25 0 20 5 25 25 25 23 0 25 3 25 50 0 49 1 50 30 50 29 0 30 -1 30 -50 0
-47 2 -50 25 -50 20 0 25 -5 25 -25 0 -20 5 -25 25 -25 21 0 25 -5 25 -30 0
-25 4 -30 25 -30 21 0 25 5 25 30 l0 30 105 0 105 0 0 25 c0 20 5 25 25 25 20
0 25 5 25 25 0 20 -5 25 -25 25 -23 0 -25 3 -25 50 0 47 2 50 25 50 20 0 25
-5 25 -25 0 -24 3 -25 55 -25 l55 0 0 55 0 55 50 0 c47 0 50 2 50 25 0 23 3
25 50 25 47 0 50 2 50 25 0 21 5 25 30 25 25 0 30 -4 30 -25 0 -20 5 -25 25
-25 l25 0 0 105 0 105 -25 0 c-20 0 -25 5 -25 25 0 20 5 25 25 25 20 0 25 5
25 25 0 25 1 25 80 25 79 0 80 0 80 25 0 21 -5 25 -30 25 -25 0 -30 4 -30 25
0 23 -3 25 -50 25 -47 0 -50 -2 -50 -25 0 -20 -5 -25 -25 -25 -23 0 -25 -3
-25 -50 0 -49 -1 -50 -30 -50 -25 0 -30 4 -30 25 0 20 -5 25 -25 25 -20 0 -25
-5 -25 -25 0 -24 -2 -25 -75 -25 l-75 0 0 50 c0 47 2 50 25 50 20 0 25 5 25
25 0 20 -5 25 -25 25 -20 0 -25 -5 -25 -25 0 -24 -3 -25 -55 -25 l-55 0 0 55
c0 52 -1 55 -25 55 l-25 0 0 260 0 260 50 0 50 0 0 -55 c0 -54 0 -55 30 -55
30 0 30 1 30 55 0 52 1 55 25 55 20 0 25 5 25 25 0 20 -5 25 -25 25 -23 0 -25
3 -25 50 l0 50 50 0 c49 0 50 1 50 30 0 25 4 30 25 30 20 0 25 5 25 25 0 20
-5 25 -25 25 -20 0 -25 5 -25 25 0 20 -5 25 -25 25 -20 0 -25 5 -25 25 0 20
-5 25 -25 25 -24 0 -25 3 -25 55 0 52 1 55 25 55 21 0 25 -5 25 -30 l0 -30
105 0 105 0 0 30 c0 25 4 30 25 30 21 0 25 -5 25 -30 l0 -30 80 0 c79 0 80 0
80 -25 0 -21 -5 -25 -30 -25 -25 0 -30 -4 -30 -25 0 -21 5 -25 30 -25 25 0 30
4 30 25 0 20 5 25 25 25 20 0 25 5 25 25 0 23 3 25 50 25 49 0 50 1 50 30 l0
30 235 0 235 0 0 25 0 25 600 0 600 0 0 25 0 25 235 0 235 0 0 25 0 25 205 0
205 0 0 55 0 55 55 0 c54 0 55 0 55 -30 0 -25 4 -30 25 -30 20 0 25 -5 25 -25
0 -20 -5 -25 -25 -25 -20 0 -25 -5 -25 -25 0 -20 -5 -25 -25 -25 l-25 0 0
-235 0 -235 -30 0 c-29 0 -30 -1 -30 -50 0 -47 -2 -50 -25 -50 l-25 0 0 -105
0 -105 -25 0 c-20 0 -25 -5 -25 -25 0 -20 -5 -25 -25 -25 -21 0 -25 -5 -25
-30 l0 -30 -80 0 c-79 0 -80 0 -80 -25 0 -23 -3 -25 -50 -25 -47 0 -50 -2 -50
-25 0 -25 -1 -25 -80 -25 -79 0 -80 0 -80 -25 0 -25 -1 -25 -80 -25 -79 0 -80
0 -80 -25 0 -23 -3 -25 -50 -25 -49 0 -50 -1 -50 -30 l0 -30 -130 0 -130 0 0
-25 c0 -20 -5 -25 -25 -25 -20 0 -25 -5 -25 -25 0 -20 -5 -25 -25 -25 -23 0
-25 -3 -25 -50 l0 -50 -105 0 -105 0 0 -55 0 -55 50 0 c47 0 50 -2 50 -25 0
-20 5 -25 25 -25 23 0 25 -3 25 -50 0 -49 1 -50 30 -50 l30 0 0 -80 0 -80 130
0 130 0 0 25 c0 20 5 25 25 25 25 0 25 1 25 80 0 79 0 80 25 80 20 0 25 5 25
25 l0 25 180 0 180 0 0 -25 c0 -24 3 -25 55 -25 52 0 55 1 55 25 0 20 5 25 25
25 20 0 25 5 25 25 l0 25 105 0 105 0 0 -25 c0 -25 1 -25 80 -25 l80 0 0 -50
0 -50 50 0 50 0 0 -55 c0 -52 -1 -55 -25 -55 -20 0 -25 5 -25 25 0 25 -1 25
-80 25 l-80 0 0 30 0 30 -210 0 -210 0 0 -55 0 -55 135 0 135 0 0 -25 c0 -20
5 -25 25 -25 l25 0 0 -365 0 -365 -25 0 -25 0 0 -130 0 -130 -55 0 c-52 0 -55
-1 -55 -25 l0 -25 -210 0 -210 0 0 25 c0 20 -5 25 -25 25 -25 0 -25 1 -25 80
0 79 0 80 -25 80 -23 0 -25 3 -25 50 l0 50 -50 0 c-47 0 -50 -2 -50 -25 0 -24
-3 -25 -55 -25 -52 0 -55 -1 -55 -25 0 -20 -5 -25 -25 -25 -21 0 -25 -5 -25
-30 0 -25 -4 -30 -25 -30 -20 0 -25 -5 -25 -25 0 -24 -3 -25 -55 -25 -52 0
-55 -1 -55 -25 0 -20 -5 -25 -25 -25 -20 0 -25 -5 -25 -25 0 -20 -5 -25 -25
-25 -20 0 -25 -5 -25 -25 l0 -25 -235 0 -235 0 0 -30 c0 -29 -1 -30 -50 -30
-49 0 -50 1 -50 30 0 27 -3 30 -30 30 -27 0 -30 -3 -30 -30 0 -29 -1 -30 -50
-30 l-50 0 0 -50 c0 -47 -2 -50 -25 -50 l-25 0 0 -130 0 -130 25 0 c20 0 25
-5 25 -25 0 -20 5 -25 25 -25 24 0 25 -3 25 -55 0 -52 1 -55 25 -55 20 0 25
-5 25 -25 0 -21 5 -25 30 -25 25 0 30 -4 30 -25 0 -20 5 -25 25 -25 24 0 25
-3 25 -55 0 -52 1 -55 25 -55 20 0 25 -5 25 -25 0 -23 3 -25 50 -25 l50 0 0
-50 0 -50 55 0 c52 0 55 -1 55 -25 0 -20 5 -25 25 -25 20 0 25 5 25 25 l0 25
105 0 105 0 0 25 c0 20 5 25 25 25 23 0 25 -3 25 -50 0 -47 2 -50 25 -50 20 0
25 5 25 25 l0 25 340 0 340 0 0 25 c0 20 5 25 25 25 20 0 25 -5 25 -25 l0 -25
315 0 315 0 0 25 c0 23 3 25 50 25 47 0 50 2 50 25 l0 25 520 0 520 0 0 25 c0
21 5 25 30 25 27 0 30 3 30 30 0 27 -3 30 -30 30 l-30 0 0 100 0 100 -50 0
-50 0 0 55 c0 52 -1 55 -25 55 -20 0 -25 5 -25 25 0 20 -5 25 -25 25 -25 0
-25 1 -25 80 l0 80 -55 0 -55 0 0 50 c0 47 -2 50 -25 50 -20 0 -25 5 -25 25 0
20 -5 25 -25 25 -21 0 -25 5 -25 30 0 30 -1 30 -55 30 l-55 0 0 50 0 50 -75 0
-75 0 0 415 0 415 75 0 75 0 0 30 0 30 235 0 235 0 0 25 0 25 105 0 105 0 0
25 c0 20 5 25 25 25 20 0 25 5 25 25 0 24 3 25 55 25 l55 0 0 55 c0 52 1 55
25 55 20 0 25 5 25 25 0 20 5 25 25 25 20 0 25 5 25 25 0 25 1 25 80 25 79 0
80 0 80 25 l0 25 235 0 235 0 0 -25 0 -25 155 0 155 0 0 -25 c0 -23 3 -25 50
-25 47 0 50 -2 50 -25 0 -25 1 -25 80 -25 79 0 80 0 80 25 0 20 5 25 25 25 20
0 25 5 25 25 0 20 5 25 25 25 20 0 25 5 25 25 0 20 5 25 25 25 24 0 25 3 25
55 0 54 0 55 30 55 25 0 30 4 30 25 0 20 5 25 25 25 20 0 25 5 25 25 0 20 5
25 25 25 20 0 25 5 25 25 0 20 5 25 25 25 20 0 25 5 25 25 0 20 5 25 25 25 24
0 25 3 25 55 0 54 0 55 30 55 25 0 30 4 30 25 0 20 5 25 25 25 l25 0 0 130 0
130 -25 0 c-20 0 -25 5 -25 25 l0 25 105 0 105 0 0 30 0 30 230 0 230 0 0 25
0 25 105 0 105 0 0 25 c0 24 3 25 55 25 52 0 55 -1 55 -25 0 -24 2 -25 75 -25
73 0 75 1 75 25 l0 25 235 0 235 0 0 25 c0 20 5 25 25 25 20 0 25 5 25 25 0
21 5 25 30 25 25 0 30 -4 30 -25 0 -20 5 -25 25 -25 20 0 25 5 25 25 l0 25
105 0 105 0 0 -25 c0 -20 5 -25 25 -25 20 0 25 5 25 25 l0 25 155 0 155 0 0
30 0 30 185 0 185 0 0 25 0 25 180 0 180 0 0 25 0 25 445 0 445 0 0 25 0 25
260 0 260 0 0 25 c0 24 2 25 75 25 73 0 75 -1 75 -25 l0 -25 130 0 130 0 0
-25 c0 -24 3 -25 55 -25 52 0 55 -1 55 -25 0 -23 3 -25 50 -25 47 0 50 -2 50
-25 0 -20 5 -25 25 -25 21 0 25 -5 25 -30 0 -27 3 -30 30 -30 25 0 30 -4 30
-25 0 -24 2 -25 75 -25 73 0 75 -1 75 -25 l0 -25 105 0 105 0 0 -25 0 -25 130
0 130 0 0 -25 0 -25 105 0 105 0 0 -30 0 -30 130 0 130 0 0 -25 0 -25 105 0
105 0 0 -25 c0 -20 5 -25 25 -25 20 0 25 -5 25 -25 0 -20 5 -25 25 -25 21 0
25 -5 25 -30 0 -25 4 -30 25 -30 20 0 25 -5 25 -25 0 -21 5 -25 30 -25 25 0
30 -4 30 -25 0 -20 5 -25 25 -25 25 0 25 -1 25 -80 0 -79 0 -80 25 -80 20 0
25 -5 25 -25 0 -20 5 -25 25 -25 23 0 25 -3 25 -50 0 -47 2 -50 25 -50 20 0
25 -5 25 -25 0 -21 5 -25 30 -25 27 0 30 -3 30 -30 0 -25 4 -30 25 -30 20 0
25 -5 25 -25 0 -20 5 -25 25 -25 20 0 25 -5 25 -25 0 -20 5 -25 25 -25 20 0
25 -5 25 -25 0 -20 5 -25 25 -25 20 0 25 -5 25 -25 0 -24 3 -25 55 -25 54 0
55 0 55 -30 0 -25 4 -30 25 -30 20 0 25 -5 25 -25 0 -20 5 -25 25 -25 20 0 25
5 25 25 0 20 5 25 25 25 20 0 25 -5 25 -25 l0 -25 160 0 160 0 0 25 c0 20 5
25 25 25 21 0 25 5 25 30 l0 30 105 0 105 0 0 50 0 50 50 0 50 0 0 50 0 50 55
0 55 0 0 80 0 80 -80 0 c-79 0 -80 0 -80 25 0 23 -3 25 -50 25 -47 0 -50 2
-50 25 0 24 2 25 75 25 73 0 75 -1 75 -25 0 -25 1 -25 80 -25 l80 0 0 130 0
130 25 0 25 0 0 315 0 315 25 0 c20 0 25 5 25 25 0 20 5 25 25 25 l25 0 0
-130 0 -130 30 0 30 0 0 -235 0 -235 -30 0 -30 0 0 -105 0 -105 55 0 c52 0 55
-1 55 -25 l0 -25 155 0 155 0 0 25 0 25 105 0 105 0 0 55 0 55 50 0 c47 0 50
2 50 25 0 21 5 25 30 25 25 0 30 4 30 25 0 20 5 25 25 25 20 0 25 5 25 25 0
20 5 25 25 25 20 0 25 5 25 25 0 20 5 25 25 25 21 0 25 5 25 30 0 25 4 30 25
30 20 0 25 5 25 25 0 21 5 25 30 25 29 0 30 1 30 50 0 47 2 50 25 50 21 0 25
5 25 30 0 25 4 30 25 30 l25 0 0 130 0 130 50 0 50 0 0 75 0 75 30 0 c25 0 30
4 30 25 0 20 5 25 25 25 21 0 25 5 25 30 0 25 4 30 25 30 20 0 25 5 25 25 0
20 5 25 25 25 20 0 25 5 25 25 0 20 5 25 25 25 20 0 25 5 25 25 l0 25 105 0
105 0 0 -25 c0 -24 3 -25 55 -25 l55 0 0 80 0 80 50 0 c47 0 50 2 50 25 0 20
5 25 25 25 20 0 25 5 25 25 0 24 3 25 55 25 52 0 55 1 55 25 0 20 5 25 25 25
20 0 25 5 25 25 l0 25 155 0 155 0 0 30 0 30 130 0 130 0 0 50 0 50 -50 0
c-47 0 -50 -2 -50 -25 l0 -25 -130 0 -130 0 0 -25 0 -25 -285 0 -285 0 0 50
c0 49 -1 50 -30 50 -25 0 -30 -4 -30 -25 0 -23 -3 -25 -50 -25 -47 0 -50 -2
-50 -25 0 -24 -3 -25 -55 -25 -54 0 -55 0 -55 -30 0 -29 -1 -30 -50 -30 l-50
0 0 80 c0 79 0 80 25 80 20 0 25 -5 25 -25 0 -24 3 -25 55 -25 52 0 55 1 55
25 0 20 5 25 25 25 20 0 25 5 25 25 0 20 5 25 25 25 24 0 25 3 25 55 0 52 1
55 25 55 23 0 25 3 25 50 0 49 1 50 30 50 l30 0 0 105 0 105 155 0 155 0 0 25
0 25 130 0 130 0 0 25 0 25 105 0 105 0 0 -75 0 -75 -30 0 c-25 0 -30 -4 -30
-25 l0 -25 -130 0 -130 0 0 -30 0 -30 -180 0 -180 0 0 -25 c0 -20 -5 -25 -25
-25 -24 0 -25 -2 -25 -75 0 -73 -1 -75 -25 -75 -21 0 -25 -5 -25 -30 0 -25 4
-30 25 -30 20 0 25 -5 25 -25 0 -23 3 -25 50 -25 47 0 50 2 50 25 0 20 -5 25
-25 25 -21 0 -25 5 -25 30 0 29 1 30 50 30 47 0 50 2 50 25 0 25 1 25 80 25
79 0 80 0 80 -25 0 -20 5 -25 25 -25 20 0 25 5 25 25 0 20 5 25 25 25 20 0 25
-5 25 -25 0 -21 5 -25 30 -25 25 0 30 4 30 25 0 20 5 25 25 25 20 0 25 -5 25
-25 0 -24 2 -25 75 -25 73 0 75 1 75 25 0 21 5 25 30 25 25 0 30 4 30 25 0 20
5 25 25 25 23 0 25 3 25 50 0 47 2 50 25 50 l25 0 0 160 0 160 -25 0 c-20 0
-25 5 -25 25 l0 25 260 0 260 0 0 25 0 25 155 0 155 0 0 -25 c0 -20 5 -25 25
-25 25 0 25 -1 25 -80 0 -79 0 -80 -25 -80 -20 0 -25 -5 -25 -25 0 -23 -3 -25
-50 -25 -47 0 -50 2 -50 25 0 20 -5 25 -25 25 -20 0 -25 5 -25 25 0 21 -5 25
-30 25 -25 0 -30 -4 -30 -25 0 -21 5 -25 30 -25 25 0 30 -4 30 -25 l0 -25
-105 0 -105 0 0 -25 c0 -25 -1 -25 -80 -25 -79 0 -80 0 -80 -25 0 -25 -1 -25
-80 -25 l-80 0 0 -30 c0 -25 -4 -30 -25 -30 -20 0 -25 -5 -25 -25 0 -24 3 -25
55 -25 52 0 55 -1 55 -25 0 -20 5 -25 25 -25 23 0 25 3 25 50 l0 50 130 0 130
0 0 -25 c0 -23 3 -25 50 -25 47 0 50 2 50 25 0 24 3 25 55 25 l55 0 0 -50 c0
-47 2 -50 25 -50 20 0 25 5 25 25 0 20 5 25 25 25 20 0 25 5 25 25 0 20 5 25
25 25 25 0 25 1 25 80 l0 80 30 0 30 0 0 155 0 155 100 0 100 0 0 25 0 25 160
0 160 0 0 30 c0 25 4 30 25 30 20 0 25 5 25 25 0 20 -5 25 -25 25 -20 0 -25 5
-25 25 0 24 -3 25 -55 25 -52 0 -55 -1 -55 -25 l0 -25 -105 0 -105 0 0 25 c0
20 -5 25 -25 25 -20 0 -25 5 -25 25 0 20 -5 25 -25 25 -24 0 -25 3 -25 55 0
52 -1 55 -25 55 -20 0 -25 5 -25 25 0 24 2 25 75 25 73 0 75 1 75 25 0 24 3
25 55 25 52 0 55 -1 55 -25 0 -20 5 -25 25 -25 20 0 25 -5 25 -25 0 -20 5 -25
25 -25 21 0 25 -5 25 -30 0 -25 4 -30 25 -30 21 0 25 5 25 30 l0 30 80 0 80 0
0 -30 c0 -25 4 -30 25 -30 20 0 25 -5 25 -25 l0 -25 130 0 130 0 0 -25 0 -25
105 0 105 0 0 -25 0 -25 130 0 130 0 0 -55 c0 -52 1 -55 25 -55 23 0 25 -3 25
-50 l0 -50 -50 0 -50 0 0 -130 0 -130 -25 0 c-25 0 -25 -1 -25 -80 0 -79 0
-80 25 -80 20 0 25 -5 25 -25 0 -20 5 -25 25 -25 20 0 25 -5 25 -25 0 -24 3
-25 55 -25 52 0 55 -1 55 -25 0 -24 2 -25 75 -25 73 0 75 -1 75 -25 l0 -25
105 0 105 0 0 -30 0 -30 155 0 155 0 0 -25 c0 -25 1 -25 80 -25 79 0 80 0 80
-25 l0 -25 130 0 130 0 0 -25 c0 -20 5 -25 25 -25 21 0 25 -5 25 -30 l0 -30
105 0 105 0 0 -25 0 -25 105 0 105 0 0 -25 0 -25 105 0 105 0 0 -25 0 -25 130
0 130 0 0 -25 0 -25 155 0 155 0 0 25 0 25 130 0 130 0 0 -25 c0 -20 5 -25 25
-25 25 0 25 -1 25 -80 0 -79 0 -80 25 -80 20 0 25 5 25 25 0 24 3 25 55 25 52
0 55 -1 55 -25 0 -25 1 -25 80 -25 79 0 80 0 80 -25 0 -23 3 -25 50 -25 47 0
50 -2 50 -25 l0 -25 130 0 130 0 0 -30 0 -30 80 0 c79 0 80 0 80 -25 l0 -25
130 0 130 0 0 -25 c0 -24 2 -25 75 -25 73 0 75 -1 75 -25 l0 -25 130 0 130 0
0 -25 0 -25 105 0 105 0 0 -30 0 -30 105 0 105 0 0 -25 0 -25 105 0 105 0 0
-25 0 -25 130 0 130 0 0 -25 0 -25 210 0 210 0 0 -55 0 -55 100 0 100 0 0 -25
0 -25 130 0 130 0 0 -25 0 -25 130 0 130 0 0 -25 c0 -25 1 -25 80 -25 l80 0 0
-30 0 -30 185 0 185 0 0 -25 c0 -24 2 -25 75 -25 73 0 75 1 75 25 0 20 5 25
25 25 20 0 25 -5 25 -25 0 -21 5 -25 30 -25 25 0 30 4 30 25 0 23 3 25 50 25
47 0 50 -2 50 -25 0 -20 5 -25 25 -25 20 0 25 5 25 25 0 20 5 25 25 25 23 0
25 -3 25 -50 0 -49 1 -50 30 -50 25 0 30 -4 30 -25 0 -20 5 -25 25 -25 20 0
25 -5 25 -25 l0 -25 180 0 180 0 0 -30 c0 -25 4 -30 25 -30 20 0 25 -5 25 -25
0 -25 1 -25 80 -25 79 0 80 0 80 25 0 24 3 25 55 25 54 0 55 0 55 30 0 25 4
30 25 30 20 0 25 5 25 25 0 20 5 25 25 25 20 0 25 -5 25 -25 0 -25 1 -25 80
-25 l80 0 0 50 c0 47 2 50 25 50 l25 0 0 -180 0 -180 25 0 25 0 0 -340 0 -340
-25 0 c-20 0 -25 -5 -25 -25 0 -20 5 -25 25 -25 21 0 25 -5 25 -30 0 -29 -1
-30 -50 -30 -47 0 -50 -2 -50 -25 l0 -25 -105 0 -105 0 0 -25 c0 -20 5 -25 25
-25 20 0 25 -5 25 -25 0 -20 -5 -25 -25 -25 -20 0 -25 -5 -25 -25 0 -24 -3
-25 -55 -25 -54 0 -55 0 -55 -30 l0 -30 -75 0 c-73 0 -75 -1 -75 -25 0 -20 5
-25 25 -25 20 0 25 -5 25 -25 0 -24 -3 -25 -55 -25 -52 0 -55 1 -55 25 0 20
-5 25 -25 25 -20 0 -25 -5 -25 -25 0 -20 5 -25 25 -25 20 0 25 -5 25 -25 0
-23 -3 -25 -50 -25 l-50 0 0 105 0 105 -25 0 c-20 0 -25 5 -25 25 0 20 5 25
25 25 20 0 25 5 25 25 l0 25 -105 0 -105 0 0 -155 0 -155 25 0 c25 0 25 -1 25
-80 l0 -80 30 0 c25 0 30 -4 30 -25 0 -20 5 -25 25 -25 25 0 25 -1 25 -80 0
-79 0 -80 25 -80 20 0 25 -5 25 -25 0 -20 5 -25 25 -25 20 0 25 -5 25 -25 0
-24 3 -25 55 -25 l55 0 0 105 0 105 25 0 25 0 0 -105 0 -105 25 0 c23 0 25 3
25 50 0 47 2 50 25 50 21 0 25 5 25 30 0 27 3 30 30 30 25 0 30 4 30 25 0 20
5 25 25 25 20 0 25 5 25 25 0 24 2 25 75 25 73 0 75 -1 75 -25 0 -24 3 -25 55
-25 l55 0 0 50 c0 47 -2 50 -25 50 l-25 0 0 130 0 130 75 0 c73 0 75 -1 75
-25 0 -20 5 -25 25 -25 20 0 25 -5 25 -25 0 -21 5 -25 30 -25 30 0 30 -1 30
-55 0 -52 1 -55 25 -55 20 0 25 -5 25 -25 0 -23 3 -25 50 -25 l50 0 0 55 0 55
55 0 c54 0 55 0 55 -30 0 -25 4 -30 25 -30 20 0 25 -5 25 -25 0 -20 5 -25 25
-25 20 0 25 5 25 25 0 20 -5 25 -25 25 l-25 0 0 130 0 130 -25 0 c-21 0 -25 5
-25 30 0 30 -1 30 -55 30 l-55 0 0 75 0 75 55 0 c52 0 55 -1 55 -25 0 -20 5
-25 25 -25 23 0 25 -3 25 -50 l0 -50 50 0 50 0 0 -160 0 -160 25 0 c21 0 25 5
25 30 0 30 1 30 55 30 54 0 55 0 55 -30 0 -29 1 -30 50 -30 49 0 50 1 50 30 0
27 3 30 30 30 25 0 30 4 30 25 0 20 5 25 25 25 20 0 25 5 25 25 0 20 -5 25
-25 25 -25 0 -25 1 -25 80 l0 80 -30 0 c-29 0 -30 1 -30 50 0 47 -2 50 -25 50
-23 0 -25 3 -25 50 0 47 -2 50 -25 50 -20 0 -25 -5 -25 -25 0 -20 -5 -25 -25
-25 -24 0 -25 3 -25 55 l0 55 -130 0 -130 0 0 50 c0 47 2 50 25 50 20 0 25 5
25 25 0 20 5 25 25 25 21 0 25 5 25 30 0 29 -1 30 -50 30 -47 0 -50 2 -50 25
0 24 -3 25 -55 25 -52 0 -55 -1 -55 -25 0 -20 -5 -25 -25 -25 -24 0 -25 -3
-25 -55 0 -52 1 -55 25 -55 20 0 25 -5 25 -25 l0 -25 -105 0 -105 0 0 310 0
310 55 0 55 0 0 -50 0 -50 75 0 c73 0 75 1 75 25 0 24 3 25 55 25 52 0 55 1
55 25 0 20 5 25 25 25 24 0 25 3 25 55 0 52 1 55 25 55 20 0 25 5 25 25 0 20
5 25 25 25 l25 0 0 105 0 105 30 0 30 0 0 75 0 75 -30 0 c-30 0 -30 1 -30 55
0 52 -1 55 -25 55 -20 0 -25 5 -25 25 l0 25 -105 0 -105 0 0 25 0 25 -100 0
-100 0 0 30 0 30 -80 0 -80 0 0 -55 c0 -52 -1 -55 -25 -55 -25 0 -25 1 -25 80
l0 80 -130 0 -130 0 0 25 0 25 -130 0 -130 0 0 25 0 25 -130 0 -130 0 0 25 c0
24 -3 25 -55 25 -52 0 -55 -1 -55 -25 0 -20 -5 -25 -25 -25 -20 0 -25 5 -25
25 l0 25 -155 0 -155 0 0 30 0 30 -80 0 c-79 0 -80 0 -80 25 0 20 -5 25 -25
25 -20 0 -25 5 -25 25 l0 25 -105 0 -105 0 0 25 0 25 -105 0 -105 0 0 25 0 25
-105 0 -105 0 0 30 0 30 -100 0 -100 0 0 25 0 25 -105 0 -105 0 0 25 0 25
-130 0 -130 0 0 25 c0 25 -1 25 -80 25 -79 0 -80 0 -80 25 l0 25 -130 0 -130
0 0 30 0 30 -105 0 -105 0 0 25 0 25 -105 0 -105 0 0 25 0 25 -100 0 -100 0 0
25 0 25 -130 0 -130 0 0 25 c0 25 -1 25 -80 25 l-80 0 0 30 0 30 -155 0 -155
0 0 25 c0 24 -3 25 -55 25 -52 0 -55 1 -55 25 l0 25 -155 0 -155 0 0 25 c0 23
-3 25 -50 25 -47 0 -50 -2 -50 -25 0 -21 -5 -25 -30 -25 -25 0 -30 4 -30 25 0
24 -2 25 -75 25 l-75 0 0 30 0 30 -105 0 -105 0 0 25 c0 20 -5 25 -25 25 -20
0 -25 5 -25 25 l0 25 -130 0 -130 0 0 25 0 25 -105 0 -105 0 0 25 c0 25 -1 25
-80 25 l-80 0 0 30 0 30 -130 0 -130 0 0 25 0 25 -155 0 -155 0 0 25 c0 24 -3
25 -55 25 -52 0 -55 1 -55 25 l0 25 -285 0 -285 0 0 25 0 25 -105 0 -105 0 0
30 0 30 -75 0 c-73 0 -75 1 -75 25 0 25 -1 25 -80 25 -79 0 -80 0 -80 25 0 23
-3 25 -50 25 -47 0 -50 2 -50 25 0 24 -3 25 -55 25 -52 0 -55 1 -55 25 0 24
-2 25 -75 25 l-75 0 0 55 0 55 -55 0 c-52 0 -55 1 -55 25 0 20 -5 25 -25 25
-23 0 -25 3 -25 50 0 47 -2 50 -25 50 -24 0 -25 3 -25 55 0 52 -1 55 -25 55
-20 0 -25 5 -25 25 0 21 -5 25 -30 25 -25 0 -30 4 -30 25 0 20 -5 25 -25 25
-21 0 -25 5 -25 30 0 25 -4 30 -25 30 -20 0 -25 5 -25 25 0 20 -5 25 -25 25
-20 0 -25 5 -25 25 0 20 -5 25 -25 25 -20 0 -25 5 -25 25 0 21 -5 25 -30 25
-25 0 -30 4 -30 25 0 20 -5 25 -25 25 -21 0 -25 5 -25 30 0 25 -4 30 -25 30
-23 0 -25 3 -25 50 0 47 -2 50 -25 50 -20 0 -25 5 -25 25 0 20 -5 25 -25 25
-20 0 -25 5 -25 25 0 21 -5 25 -30 25 -27 0 -30 3 -30 30 0 25 -4 30 -25 30
-20 0 -25 5 -25 25 0 20 -5 25 -25 25 -20 0 -25 5 -25 25 0 25 -1 25 -80 25
-79 0 -80 0 -80 -25 0 -20 -5 -25 -25 -25 -24 0 -25 -3 -25 -55 l0 -55 -50 0
c-49 0 -50 1 -50 30 0 25 4 30 25 30 l25 0 0 100 0 100 25 0 c24 0 25 3 25 55
0 52 -1 55 -25 55 -23 0 -25 3 -25 50 0 47 -2 50 -25 50 -25 0 -25 1 -25 80
l0 80 -30 0 c-25 0 -30 4 -30 25 0 20 -5 25 -25 25 -20 0 -25 5 -25 25 0 20
-5 25 -25 25 -24 0 -25 3 -25 55 0 52 1 55 25 55 l25 0 0 155 0 155 25 0 c23
0 25 3 25 50 0 49 1 50 30 50 27 0 30 3 30 30 0 25 4 30 25 30 24 0 25 2 25
75 0 73 1 75 25 75 l25 0 0 105 0 105 25 0 25 0 0 260 0 260 -25 0 c-25 0 -25
1 -25 80 0 79 0 80 -25 80 -23 0 -25 3 -25 50 0 47 -2 50 -25 50 -24 0 -25 3
-25 55 0 54 0 55 -30 55 -25 0 -30 4 -30 25 0 20 -5 25 -25 25 -20 0 -25 5
-25 25 0 20 -5 25 -25 25 -20 0 -25 5 -25 25 0 20 -5 25 -25 25 -20 0 -25 5
-25 25 0 23 3 25 50 25 49 0 50 1 50 30 0 25 -4 30 -25 30 -23 0 -25 3 -25 50
0 47 2 50 25 50 20 0 25 5 25 25 0 20 5 25 25 25 20 0 25 -5 25 -25 0 -21 5
-25 30 -25 29 0 30 -1 30 -50 0 -47 2 -50 25 -50 24 0 25 -3 25 -55 0 -52 1
-55 25 -55 20 0 25 -5 25 -25 0 -20 5 -25 25 -25 20 0 25 -5 25 -25 0 -25 1
-25 80 -25 79 0 80 0 80 -25 0 -20 5 -25 25 -25 20 0 25 5 25 25 0 20 -5 25
-25 25 -20 0 -25 5 -25 25 0 24 -3 25 -55 25 -52 0 -55 1 -55 25 0 20 -5 25
-25 25 -20 0 -25 5 -25 25 0 20 -5 25 -25 25 -24 0 -25 3 -25 55 0 52 -1 55
-25 55 -24 0 -25 2 -25 75 0 73 -1 75 -25 75 -21 0 -25 5 -25 30 0 25 4 30 25
30 23 0 25 3 25 50 0 47 -2 50 -25 50 -20 0 -25 5 -25 25 0 21 -5 25 -30 25
-27 0 -30 3 -30 30 0 25 -4 30 -25 30 -20 0 -25 5 -25 25 0 20 -5 25 -25 25
-20 0 -25 5 -25 25 0 20 -5 25 -25 25 -20 0 -25 -5 -25 -25 0 -20 -5 -25 -25
-25 -20 0 -25 5 -25 25 0 21 -5 25 -30 25 -25 0 -30 4 -30 25 0 20 -5 25 -25
25 -20 0 -25 5 -25 25 0 20 -5 25 -25 25 -21 0 -25 5 -25 30 0 25 -4 30 -25
30 -20 0 -25 5 -25 25 0 20 -5 25 -25 25 -24 0 -25 -3 -25 -55 0 -52 1 -55 25
-55 23 0 25 -3 25 -50 0 -47 2 -50 25 -50 20 0 25 -5 25 -25 0 -20 5 -25 25
-25 20 0 25 -5 25 -25 0 -20 5 -25 25 -25 21 0 25 -5 25 -30 0 -27 3 -30 30
-30 25 0 30 -4 30 -25 0 -20 5 -25 25 -25 20 0 25 -5 25 -25 0 -20 5 -25 25
-25 23 0 25 3 25 50 l0 50 50 0 50 0 0 -75 c0 -73 -1 -75 -25 -75 -21 0 -25
-5 -25 -30 0 -25 -4 -30 -25 -30 -20 0 -25 -5 -25 -25 0 -20 -5 -25 -25 -25
-24 0 -25 3 -25 55 l0 55 -55 0 c-52 0 -55 1 -55 25 0 23 -3 25 -50 25 -47 0
-50 2 -50 25 0 20 -5 25 -25 25 -20 0 -25 5 -25 25 0 20 -5 25 -25 25 -24 0
-25 3 -25 55 0 54 0 55 -30 55 -25 0 -30 4 -30 25 0 23 -3 25 -50 25 -47 0
-50 2 -50 25 l0 25 -130 0 -130 0 0 25 c0 24 -3 25 -55 25 -54 0 -55 0 -55 30
0 25 -4 30 -25 30 -23 0 -25 3 -25 50 l0 50 -50 0 c-47 0 -50 2 -50 25 0 20 5
25 25 25 20 0 25 5 25 25 l0 25 155 0 155 0 0 -25 c0 -21 5 -25 30 -25 25 0
30 -4 30 -25 0 -20 5 -25 25 -25 20 0 25 -5 25 -25 0 -20 5 -25 25 -25 20 0
25 -5 25 -25 0 -23 3 -25 50 -25 47 0 50 2 50 25 0 20 -5 25 -25 25 -20 0 -25
5 -25 25 0 20 5 25 25 25 23 0 25 3 25 50 l0 50 55 0 c54 0 55 0 55 30 0 25
-4 30 -25 30 -20 0 -25 5 -25 25 0 24 -3 25 -55 25 -52 0 -55 -1 -55 -25 0
-20 -5 -25 -25 -25 -20 0 -25 5 -25 25 0 20 -5 25 -25 25 -20 0 -25 5 -25 25
0 20 -5 25 -25 25 -20 0 -25 5 -25 25 l0 25 -105 0 -105 0 0 25 c0 21 -5 25
-30 25 -27 0 -30 3 -30 30 l0 30 315 0 315 0 0 -30 c0 -29 1 -30 50 -30 49 0
50 1 50 30 0 30 1 30 55 30 54 0 55 0 55 -30 0 -29 1 -30 50 -30 47 0 50 -2
50 -25 0 -25 1 -25 80 -25 79 0 80 0 80 -25 0 -20 5 -25 25 -25 20 0 25 -5 25
-25 0 -20 5 -25 25 -25 20 0 25 -5 25 -25 0 -20 5 -25 25 -25 21 0 25 -5 25
-30 0 -27 3 -30 30 -30 29 0 30 -1 30 -50 0 -47 2 -50 25 -50 23 0 25 -3 25
-50 0 -47 2 -50 25 -50 24 0 25 -3 25 -55 0 -52 1 -55 25 -55 23 0 25 -3 25
-50 0 -49 1 -50 30 -50 30 0 30 -1 30 -55 0 -52 1 -55 25 -55 24 0 25 -2 25
-75 0 -73 1 -75 25 -75 24 0 25 -3 25 -55 0 -52 1 -55 25 -55 23 0 25 -3 25
-50 0 -47 2 -50 25 -50 24 0 25 -3 25 -55 0 -54 0 -55 30 -55 l30 0 0 -100 0
-100 25 0 25 0 0 -130 0 -130 50 0 50 0 0 75 c0 73 1 75 25 75 25 0 25 1 25
80 l0 80 30 0 30 0 0 75 0 75 -30 0 -30 0 0 365 0 365 -25 0 c-25 0 -25 1 -25
80 0 79 0 80 -25 80 -23 0 -25 3 -25 50 0 47 -2 50 -25 50 -21 0 -25 5 -25 30
0 25 -4 30 -25 30 -23 0 -25 3 -25 50 l0 50 -55 0 -55 0 0 50 0 50 -50 0 -50
0 0 55 0 55 -55 0 -55 0 0 50 0 50 -50 0 -50 0 0 55 c0 52 -1 55 -25 55 -20 0
-25 5 -25 25 0 21 -5 25 -30 25 -25 0 -30 4 -30 25 0 20 -5 25 -25 25 -20 0
-25 5 -25 25 0 20 -5 25 -25 25 -21 0 -25 5 -25 30 0 25 -4 30 -25 30 -23 0
-25 3 -25 50 l0 50 -55 0 c-52 0 -55 1 -55 25 0 20 -5 25 -25 25 -20 0 -25 5
-25 25 0 20 -5 25 -25 25 -21 0 -25 5 -25 30 0 25 -4 30 -25 30 -25 0 -25 -1
-25 -80 0 -79 0 -80 25 -80 20 0 25 -5 25 -25 0 -20 -5 -25 -25 -25 l-25 0 0
-105 0 -105 -25 0 c-25 0 -25 -1 -25 -80 l0 -80 -30 0 -30 0 0 -75 c0 -73 -1
-75 -25 -75 -20 0 -25 5 -25 25 l0 25 -105 0 -105 0 0 25 0 25 -130 0 -130 0
0 25 c0 23 -3 25 -50 25 -47 0 -50 2 -50 25 0 20 -5 25 -25 25 -21 0 -25 5
-25 30 0 27 -3 30 -30 30 -25 0 -30 4 -30 25 0 20 -5 25 -25 25 -23 0 -25 3
-25 50 l0 50 -50 0 -50 0 0 -105 0 -105 -25 0 -25 0 0 185 0 185 25 0 c20 0
25 5 25 25 0 20 5 25 25 25 20 0 25 5 25 25 0 25 1 25 80 25 l80 0 0 30 c0 29
1 30 50 30 l50 0 0 75 c0 73 -1 75 -25 75 -24 0 -25 3 -25 55 l0 55 -55 0
c-54 0 -55 0 -55 -30 0 -25 -4 -30 -25 -30 -20 0 -25 -5 -25 -25 l0 -25 -105
0 -105 0 0 25 c0 20 -5 25 -25 25 -21 0 -25 5 -25 30 0 25 4 30 25 30 20 0 25
5 25 25 l0 25 105 0 105 0 0 50 c0 47 -2 50 -25 50 -20 0 -25 5 -25 25 0 20
-5 25 -25 25 -21 0 -25 5 -25 30 l0 30 -80 0 -80 0 0 130 0 130 -25 0 c-23 0
-25 3 -25 50 0 47 -2 50 -25 50 -20 0 -25 5 -25 25 0 20 -5 25 -25 25 -21 0
-25 5 -25 30 0 30 -1 30 -55 30 -52 0 -55 1 -55 25 l0 25 -260 0 -260 0 0 -25
c0 -23 -3 -25 -50 -25 -49 0 -50 -1 -50 -30 0 -27 -3 -30 -30 -30 -25 0 -30
-4 -30 -25 0 -23 -3 -25 -50 -25 l-50 0 0 -50 0 -50 -50 0 c-49 0 -50 -1 -50
-30 0 -27 -3 -30 -30 -30 -25 0 -30 -4 -30 -25 0 -20 -5 -25 -25 -25 -20 0
-25 -5 -25 -25 0 -20 -5 -25 -25 -25 -20 0 -25 -5 -25 -25 0 -25 -1 -25 -80
-25 -79 0 -80 0 -80 -25 0 -24 -2 -25 -75 -25 l-75 0 0 155 0 155 -25 0 c-23
0 -25 3 -25 50 0 49 -1 50 -30 50 l-30 0 0 185 0 185 30 0 30 0 0 130 0 130
25 0 25 0 0 285 0 285 -290 0 -290 0 0 130 0 130 30 0 c25 0 30 -4 30 -25 0
-24 2 -25 75 -25 73 0 75 -1 75 -25 0 -24 -2 -25 -75 -25 l-75 0 0 -55 0 -55
75 0 75 0 0 30 c0 30 1 30 55 30 54 0 55 0 55 -30 0 -29 1 -30 50 -30 49 0 50
1 50 30 0 25 4 30 25 30 21 0 25 -5 25 -30 0 -27 3 -30 30 -30 27 0 30 3 30
30 0 27 -3 30 -30 30 -25 0 -30 4 -30 25 0 24 -2 25 -75 25 -73 0 -75 1 -75
25 0 20 -5 25 -25 25 -20 0 -25 5 -25 25 l0 25 -105 0 -105 0 0 25 c0 24 2 25
75 25 l75 0 0 55 0 55 -50 0 c-47 0 -50 2 -50 25 l0 25 210 0 210 0 0 25 c0
21 -5 25 -30 25 -25 0 -30 4 -30 25 0 23 -3 25 -50 25 l-50 0 0 55 c0 52 -1
55 -25 55 l-25 0 0 130 0 130 -25 0 c-20 0 -25 5 -25 25 0 21 -5 25 -30 25
l-30 0 0 80 c0 79 0 80 -25 80 l-25 0 0 105 0 105 -25 0 c-20 0 -25 5 -25 25
0 20 -5 25 -25 25 -23 0 -25 3 -25 50 0 49 -1 50 -30 50 -30 0 -30 1 -30 55 0
52 -1 55 -25 55 -24 0 -25 -3 -25 -55 0 -52 -1 -55 -25 -55 -24 0 -25 -2 -25
-75 0 -73 -1 -75 -25 -75 -21 0 -25 -5 -25 -30 0 -25 4 -30 25 -30 24 0 25 -2
25 -75 0 -73 -1 -75 -25 -75 -24 0 -25 -3 -25 -55 0 -52 -1 -55 -25 -55 -20 0
-25 5 -25 25 0 24 -3 25 -55 25 -54 0 -55 0 -55 30 0 25 -4 30 -25 30 -23 0
-25 3 -25 50 l0 50 50 0 c47 0 50 -2 50 -25 0 -21 5 -25 30 -25 25 0 30 4 30
25 0 21 -5 25 -30 25 -25 0 -30 4 -30 25 0 20 -5 25 -25 25 -21 0 -25 5 -25
30 0 25 -4 30 -25 30 -20 0 -25 5 -25 25 0 20 5 25 25 25 l25 0 0 155 0 155
-25 0 c-25 0 -25 1 -25 80 0 79 0 80 -25 80 -20 0 -25 5 -25 25 0 20 -5 25
-25 25 -20 0 -25 5 -25 25 0 24 -3 25 -55 25 -52 0 -55 1 -55 25 0 24 -2 25
-75 25 -73 0 -75 1 -75 25 0 24 -3 25 -55 25 -54 0 -55 0 -55 30 0 25 -4 30
-25 30 -20 0 -25 5 -25 25 l0 25 -105 0 -105 0 0 -25 c0 -20 -5 -25 -25 -25
-20 0 -25 5 -25 25 0 25 -1 25 -80 25 -79 0 -80 0 -80 -25 0 -23 -3 -25 -50
-25 -47 0 -50 2 -50 25 0 20 -5 25 -25 25 -20 0 -25 -5 -25 -25 0 -21 -5 -25
-30 -25 -25 0 -30 4 -30 25 0 20 -5 25 -25 25 -20 0 -25 -5 -25 -25 0 -23 -3
-25 -50 -25 -49 0 -50 -1 -50 -30 0 -25 -4 -30 -25 -30 -21 0 -25 5 -25 30 0
27 -3 30 -30 30 -27 0 -30 -3 -30 -30 l0 -30 -75 0 c-73 0 -75 -1 -75 -25 0
-25 -1 -25 -80 -25 l-80 0 0 55 c0 52 -1 55 -25 55 -21 0 -25 -5 -25 -30 l0
-30 -80 0 c-79 0 -80 0 -80 -25 0 -20 -5 -25 -25 -25 -20 0 -25 -5 -25 -25 0
-25 -1 -25 -80 -25 -79 0 -80 0 -80 -25 0 -20 -5 -25 -25 -25 -20 0 -25 -5
-25 -25 0 -20 -5 -25 -25 -25 -21 0 -25 -5 -25 -30 0 -25 -4 -30 -25 -30 -20
0 -25 -5 -25 -25 0 -20 -5 -25 -25 -25 -20 0 -25 -5 -25 -25 0 -21 -5 -25 -30
-25 -25 0 -30 -4 -30 -25 0 -23 -3 -25 -50 -25 l-50 0 0 -55 c0 -52 -1 -55
-25 -55 -24 0 -25 -2 -25 -75 0 -73 -1 -75 -25 -75 -24 0 -25 -3 -25 -55 0
-54 0 -55 -30 -55 l-30 0 0 -105 0 -105 -25 0 c-23 0 -25 -3 -25 -50 0 -47 -2
-50 -25 -50 -23 0 -25 -3 -25 -50 0 -47 -2 -50 -25 -50 -24 0 -25 -3 -25 -55
0 -52 1 -55 25 -55 l25 0 0 -205 0 -205 25 0 c21 0 25 -5 25 -30 0 -25 -4 -30
-25 -30 l-25 0 0 -205 0 -205 25 0 c21 0 25 -5 25 -30 0 -25 -4 -30 -25 -30
l-25 0 0 -180 0 -180 25 0 25 0 0 -105 0 -105 25 0 c23 0 25 -3 25 -50 0 -49
1 -50 30 -50 30 0 30 -1 30 -55 l0 -55 50 0 50 0 0 -100 0 -100 25 0 c25 0 25
-1 25 -80 0 -79 0 -80 25 -80 24 0 25 -3 25 -55 0 -54 0 -55 30 -55 29 0 30
-1 30 -50 0 -47 2 -50 25 -50 20 0 25 -5 25 -25 0 -20 -5 -25 -25 -25 -20 0
-25 -5 -25 -25 0 -25 -1 -25 -80 -25 l-80 0 0 -30 c0 -25 -4 -30 -25 -30 -21
0 -25 5 -25 30 l0 30 -80 0 -80 0 0 -30 0 -30 -75 0 c-73 0 -75 -1 -75 -25 0
-21 -5 -25 -30 -25 l-30 0 0 -105 0 -105 30 0 c25 0 30 -4 30 -25 0 -21 -5
-25 -30 -25 l-30 0 0 -75 0 -75 -155 0 -155 0 0 -30 c0 -25 -4 -30 -25 -30
-20 0 -25 -5 -25 -25 0 -20 -5 -25 -25 -25 -20 0 -25 -5 -25 -25 0 -21 -5 -25
-30 -25 -25 0 -30 -4 -30 -25 0 -20 -5 -25 -25 -25 -20 0 -25 -5 -25 -25 0
-20 -5 -25 -25 -25 -21 0 -25 -5 -25 -30 0 -25 -4 -30 -25 -30 -20 0 -25 -5
-25 -25 0 -20 -5 -25 -25 -25 -20 0 -25 -5 -25 -25 0 -21 -5 -25 -30 -25 -25
0 -30 -4 -30 -25 0 -20 -5 -25 -25 -25 -21 0 -25 -5 -25 -30 0 -25 -4 -30 -25
-30 -20 0 -25 -5 -25 -25 0 -23 -3 -25 -50 -25 -47 0 -50 -2 -50 -25 l0 -25
-105 0 -105 0 0 -25 c0 -20 -5 -25 -25 -25 -20 0 -25 -5 -25 -25 0 -25 -1 -25
-80 -25 l-80 0 0 -30 c0 -25 -4 -30 -25 -30 -20 0 -25 -5 -25 -25 0 -25 -1
-25 -80 -25 -79 0 -80 0 -80 -25 0 -20 -5 -25 -25 -25 -20 0 -25 -5 -25 -25 0
-20 -5 -25 -25 -25 -20 0 -25 -5 -25 -25 0 -21 -5 -25 -30 -25 -27 0 -30 -3
-30 -30 0 -25 -4 -30 -25 -30 -20 0 -25 -5 -25 -25 0 -20 -5 -25 -25 -25 -20
0 -25 -5 -25 -25 0 -20 -5 -25 -25 -25 -20 0 -25 -5 -25 -25 0 -20 -5 -25 -25
-25 -20 0 -25 -5 -25 -25 0 -21 -5 -25 -30 -25 -27 0 -30 -3 -30 -30 0 -25 -4
-30 -25 -30 -20 0 -25 -5 -25 -25 0 -20 -5 -25 -25 -25 -20 0 -25 -5 -25 -25
0 -20 -5 -25 -25 -25 -20 0 -25 -5 -25 -25 0 -20 -5 -25 -25 -25 -20 0 -25 -5
-25 -25 0 -21 -5 -25 -30 -25 -27 0 -30 -3 -30 -30 0 -25 -4 -30 -25 -30 -23
0 -25 -3 -25 -50 0 -47 -2 -50 -25 -50 -24 0 -25 -3 -25 -55 0 -52 -1 -55 -25
-55 -23 0 -25 -3 -25 -50 0 -47 -2 -50 -25 -50 -20 0 -25 5 -25 25 0 25 -1 25
-80 25 -79 0 -80 0 -80 25 0 23 -3 25 -50 25 -49 0 -50 1 -50 30 0 30 -1 30
-55 30 -52 0 -55 1 -55 25 0 20 -5 25 -25 25 -20 0 -25 5 -25 25 0 20 -5 25
-25 25 -20 0 -25 5 -25 25 0 21 -5 25 -30 25 -27 0 -30 3 -30 30 0 25 -4 30
-25 30 -20 0 -25 5 -25 25 0 20 -5 25 -25 25 -20 0 -25 5 -25 25 0 20 -5 25
-25 25 l-25 0 0 235 0 235 -25 0 c-20 0 -25 5 -25 25 0 20 5 25 25 25 20 0 25
5 25 25 0 20 -5 25 -25 25 -20 0 -25 -5 -25 -25 0 -21 -5 -25 -30 -25 -29 0
-30 1 -30 50 0 47 -2 50 -25 50 -21 0 -25 5 -25 30 0 25 4 30 25 30 24 0 25 2
25 75 l0 75 30 0 c25 0 30 4 30 25 0 20 5 25 25 25 25 0 25 1 25 80 0 79 0 80
25 80 25 0 25 1 25 80 0 79 0 80 -25 80 -20 0 -25 5 -25 25 0 20 5 25 25 25
l25 0 0 180 0 180 -25 0 c-21 0 -25 5 -25 30 0 25 4 30 25 30 23 0 25 3 25 50
0 47 -2 50 -25 50 -20 0 -25 5 -25 25 0 20 5 25 25 25 l25 0 0 1485 0 1485
-25 0 -25 0 0 155 0 155 25 0 c23 0 25 -3 25 -50 0 -47 2 -50 25 -50 23 0 25
3 25 50 0 47 2 50 25 50 21 0 25 5 25 30 0 27 3 30 30 30 25 0 30 4 30 25 0
20 5 25 25 25 20 0 25 5 25 25 0 20 -5 25 -25 25 -20 0 -25 5 -25 25 0 24 -3
25 -55 25 -52 0 -55 1 -55 25 0 23 -3 25 -50 25 l-50 0 0 55 0 55 -130 0 -130
0 0 75 c0 73 -1 75 -25 75 -21 0 -25 5 -25 30 l0 30 75 0 75 0 0 -30 c0 -30 1
-30 55 -30 52 0 55 -1 55 -25 0 -20 5 -25 25 -25 20 0 25 -5 25 -25 0 -23 3
-25 50 -25 l50 0 0 130 0 130 -25 0 c-20 0 -25 5 -25 25 0 20 5 25 25 25 l25
0 0 390 0 390 -105 0 -105 0 0 30 0 30 -205 0 -205 0 0 -30z m5210 -1145 c0
-20 5 -25 25 -25 20 0 25 5 25 25 0 23 3 25 50 25 47 0 50 -2 50 -25 0 -20 5
-25 25 -25 l25 0 0 -105 0 -105 -155 0 -155 0 0 50 c0 47 -2 50 -25 50 -21 0
-25 5 -25 30 0 25 4 30 25 30 20 0 25 5 25 25 0 20 5 25 25 25 20 0 25 5 25
25 0 21 5 25 30 25 25 0 30 -4 30 -25z m-4900 -365 c0 -29 1 -30 50 -30 l50 0
0 -50 c0 -47 -2 -50 -25 -50 -20 0 -25 5 -25 25 0 24 -2 25 -75 25 l-75 0 0
55 0 55 50 0 c49 0 50 -1 50 -30z m4580 -1305 c0 -20 -5 -25 -25 -25 -20 0
-25 -5 -25 -25 0 -24 -2 -25 -75 -25 l-75 0 0 50 0 50 100 0 100 0 0 -25z
m1510 -2550 c0 -25 1 -25 80 -25 79 0 80 0 80 -25 0 -20 5 -25 25 -25 25 0 25
-1 25 -80 l0 -80 55 0 55 0 0 -50 0 -50 75 0 75 0 0 -30 c0 -25 4 -30 25 -30
24 0 25 3 25 55 l0 55 -50 0 c-47 0 -50 2 -50 25 0 20 -5 25 -25 25 -20 0 -25
5 -25 25 0 24 -3 25 -55 25 -54 0 -55 0 -55 30 l0 30 80 0 80 0 0 -30 c0 -29
1 -30 50 -30 47 0 50 -2 50 -25 0 -25 1 -25 80 -25 79 0 80 0 80 -25 0 -20 5
-25 25 -25 20 0 25 -5 25 -25 l0 -25 105 0 105 0 0 -30 c0 -30 1 -30 55 -30
52 0 55 -1 55 -25 0 -23 3 -25 50 -25 47 0 50 -2 50 -25 0 -23 3 -25 50 -25
47 0 50 -2 50 -25 0 -21 5 -25 30 -25 25 0 30 -4 30 -25 0 -24 2 -25 75 -25
l75 0 0 -30 0 -30 105 0 105 0 0 -25 c0 -20 5 -25 25 -25 20 0 25 -5 25 -25
l0 -25 105 0 105 0 0 -25 c0 -24 3 -25 55 -25 52 0 55 -1 55 -25 0 -20 5 -25
25 -25 20 0 25 5 25 25 0 23 3 25 50 25 47 0 50 -2 50 -25 0 -20 5 -25 25 -25
20 0 25 5 25 25 l0 25 160 0 160 0 0 -25 c0 -25 -1 -25 -80 -25 l-80 0 0 -30
c0 -25 -4 -30 -25 -30 -20 0 -25 -5 -25 -25 l0 -25 105 0 105 0 0 -50 c0 -47
2 -50 25 -50 20 0 25 -5 25 -25 0 -24 -3 -25 -55 -25 -54 0 -55 0 -55 -30 0
-27 3 -30 30 -30 29 0 30 -1 30 -50 0 -49 -1 -50 -30 -50 -29 0 -30 1 -30 50
l0 50 -75 0 -75 0 0 30 0 30 -80 0 c-79 0 -80 0 -80 25 0 24 -2 25 -75 25 -73
0 -75 1 -75 25 0 25 -1 25 -80 25 -79 0 -80 0 -80 25 l0 25 -105 0 -105 0 0
25 c0 25 -1 25 -80 25 l-80 0 0 30 c0 29 -1 30 -50 30 -49 0 -50 -1 -50 -30 0
-25 -4 -30 -25 -30 -21 0 -25 5 -25 30 l0 30 -105 0 -105 0 0 25 c0 20 -5 25
-25 25 -20 0 -25 5 -25 25 0 20 -5 25 -25 25 -20 0 -25 5 -25 25 0 21 -5 25
-30 25 -25 0 -30 4 -30 25 0 23 -3 25 -50 25 -49 0 -50 1 -50 30 0 25 -4 30
-25 30 -20 0 -25 5 -25 25 0 24 -3 25 -55 25 -52 0 -55 1 -55 25 0 23 -3 25
-50 25 -47 0 -50 2 -50 25 0 25 -1 25 -80 25 -79 0 -80 0 -80 25 l0 25 -105 0
-105 0 0 30 0 30 -100 0 -100 0 0 25 c0 24 -3 25 -55 25 l-55 0 0 80 c0 79 0
80 -25 80 -24 0 -25 2 -25 75 l0 75 50 0 c47 0 50 -2 50 -25z m2970 -730 l0
-75 -50 0 c-47 0 -50 2 -50 25 0 20 -5 25 -25 25 -23 0 -25 3 -25 50 l0 50 75
0 75 0 0 -75z m-1980 -360 c0 -24 3 -25 55 -25 54 0 55 0 55 -30 0 -25 4 -30
25 -30 20 0 25 -5 25 -25 0 -20 -5 -25 -25 -25 -20 0 -25 5 -25 25 0 20 -5 25
-25 25 -20 0 -25 -5 -25 -25 0 -24 -3 -25 -55 -25 -52 0 -55 1 -55 25 0 20 -5
25 -25 25 -24 0 -25 3 -25 55 l0 55 50 0 c47 0 50 -2 50 -25z m-7910 -210 c0
-23 3 -25 50 -25 47 0 50 2 50 25 0 25 1 25 80 25 l80 0 0 -50 c0 -47 -2 -50
-25 -50 -21 0 -25 -5 -25 -30 0 -27 -3 -30 -30 -30 -25 0 -30 -4 -30 -25 0
-24 -2 -25 -75 -25 l-75 0 0 -50 0 -50 50 0 c49 0 50 -1 50 -30 0 -25 -4 -30
-25 -30 -23 0 -25 -3 -25 -50 l0 -50 50 0 50 0 0 50 c0 49 1 50 30 50 30 0 30
1 30 55 0 52 1 55 25 55 l25 0 0 -105 0 -105 50 0 c47 0 50 -2 50 -25 0 -20
-5 -25 -25 -25 -24 0 -25 -3 -25 -55 0 -52 -1 -55 -25 -55 l-25 0 0 -100 0
-100 -25 0 -25 0 0 -395 0 -395 -30 0 c-27 0 -30 3 -30 30 0 25 -4 30 -25 30
-23 0 -25 3 -25 50 0 47 2 50 25 50 24 0 25 3 25 55 l0 55 -50 0 c-49 0 -50
-1 -50 -30 0 -25 -4 -30 -25 -30 -25 0 -25 1 -25 80 0 79 0 80 25 80 23 0 25
3 25 50 0 47 2 50 25 50 21 0 25 5 25 30 0 25 -4 30 -25 30 l-25 0 0 100 0
100 -25 0 c-25 0 -25 1 -25 80 l0 80 -30 0 -30 0 0 105 0 105 -25 0 c-23 0
-25 3 -25 50 0 47 -2 50 -25 50 -24 0 -25 3 -25 55 0 52 1 55 25 55 l25 0 0
155 0 155 55 0 c52 0 55 -1 55 -25z m880 -105 l0 -80 -50 0 c-47 0 -50 2 -50
25 0 20 -5 25 -25 25 -24 0 -25 3 -25 55 l0 55 75 0 75 0 0 -80z m6670 25 l0
-55 50 0 50 0 0 -50 0 -50 -50 0 -50 0 0 50 0 50 -80 0 c-79 0 -80 0 -80 -25
0 -20 -5 -25 -25 -25 -20 0 -25 -5 -25 -25 0 -20 -5 -25 -25 -25 -20 0 -25 5
-25 25 0 20 -5 25 -25 25 -20 0 -25 5 -25 25 0 23 3 25 50 25 49 0 50 1 50 30
0 25 4 30 25 30 20 0 25 5 25 25 0 25 1 25 80 25 l80 0 0 -55z m2760 -130 c0
-73 -1 -75 -25 -75 -20 0 -25 5 -25 25 0 24 -3 25 -55 25 l-55 0 0 50 0 50 80
0 80 0 0 -75z m-3230 0 c0 -25 1 -25 80 -25 79 0 80 0 80 -25 0 -20 5 -25 25
-25 21 0 25 -5 25 -30 l0 -30 -105 0 -105 0 0 55 c0 52 -1 55 -25 55 -20 0
-25 5 -25 25 0 20 5 25 25 25 20 0 25 -5 25 -25z m1770 -160 c0 -25 1 -25 80
-25 l80 0 0 -75 c0 -73 -1 -75 -25 -75 -20 0 -25 5 -25 25 0 21 -5 25 -30 25
-25 0 -30 -4 -30 -25 0 -20 -5 -25 -25 -25 -20 0 -25 5 -25 25 l0 25 -105 0
-105 0 0 -25 c0 -20 -5 -25 -25 -25 -21 0 -25 -5 -25 -30 0 -25 -4 -30 -25
-30 -23 0 -25 -3 -25 -50 l0 -50 50 0 50 0 0 50 0 50 130 0 130 0 0 -25 c0
-21 5 -25 30 -25 25 0 30 -4 30 -25 l0 -25 100 0 100 0 0 -25 c0 -23 -3 -25
-50 -25 -47 0 -50 -2 -50 -25 0 -25 -1 -25 -80 -25 l-80 0 0 50 c0 47 -2 50
-25 50 -20 0 -25 -5 -25 -25 0 -23 -3 -25 -50 -25 l-50 0 0 -105 0 -105 25 0
c20 0 25 -5 25 -25 0 -20 5 -25 25 -25 20 0 25 5 25 25 0 20 5 25 25 25 20 0
25 -5 25 -25 0 -21 5 -25 30 -25 30 0 30 -1 30 -55 0 -54 0 -55 -30 -55 -25 0
-30 -4 -30 -25 0 -20 -5 -25 -25 -25 l-25 0 0 -105 0 -105 -25 0 c-21 0 -25 5
-25 30 0 30 -1 30 -55 30 -52 0 -55 1 -55 25 0 20 -5 25 -25 25 -20 0 -25 -5
-25 -25 0 -20 -5 -25 -25 -25 -20 0 -25 5 -25 25 0 23 -3 25 -50 25 -47 0 -50
2 -50 25 0 24 -3 25 -55 25 l-55 0 0 50 c0 47 -2 50 -25 50 -25 0 -25 1 -25
80 0 79 0 80 -25 80 -20 0 -25 5 -25 25 0 20 -5 25 -25 25 -24 0 -25 3 -25 55
0 52 1 55 25 55 24 0 25 2 25 75 l0 75 105 0 105 0 0 25 c0 21 -5 25 -30 25
-30 0 -30 1 -30 55 l0 55 55 0 c52 0 55 -1 55 -25 0 -20 5 -25 25 -25 20 0 25
5 25 25 0 20 5 25 25 25 20 0 25 5 25 25 0 25 1 25 80 25 l80 0 0 50 c0 47 2
50 25 50 20 0 25 -5 25 -25z m-1610 -100 c0 -24 -3 -25 -55 -25 l-55 0 0 -55
c0 -52 -1 -55 -25 -55 -23 0 -25 -3 -25 -50 l0 -50 -50 0 c-47 0 -50 -2 -50
-25 0 -21 -5 -25 -30 -25 -30 0 -30 -1 -30 -55 l0 -55 -50 0 -50 0 0 105 0
105 25 0 c20 0 25 5 25 25 0 20 5 25 25 25 24 0 25 3 25 55 0 54 0 55 30 55
25 0 30 -4 30 -25 0 -20 5 -25 25 -25 20 0 25 5 25 25 0 23 3 25 50 25 47 0
50 2 50 25 0 24 3 25 55 25 52 0 55 -1 55 -25z m-8910 -780 c0 -73 1 -75 25
-75 25 0 25 -1 25 -80 0 -79 0 -80 25 -80 24 0 25 -3 25 -55 0 -54 0 -55 30
-55 30 0 30 1 30 55 0 52 1 55 25 55 24 0 25 -3 25 -55 0 -52 -1 -55 -25 -55
-20 0 -25 -5 -25 -25 0 -21 -5 -25 -30 -25 -25 0 -30 -4 -30 -25 0 -20 -5 -25
-25 -25 -25 0 -25 -1 -25 -80 0 -79 0 -80 -25 -80 -23 0 -25 -3 -25 -50 0 -47
-2 -50 -25 -50 -20 0 -25 -5 -25 -25 0 -20 -5 -25 -25 -25 -24 0 -25 -3 -25
-55 0 -54 0 -55 -30 -55 -29 0 -30 -1 -30 -50 0 -49 1 -50 30 -50 25 0 30 -4
30 -25 0 -21 -5 -25 -30 -25 -25 0 -30 -4 -30 -25 0 -21 5 -25 30 -25 l30 0 0
-105 0 -105 50 0 c47 0 50 -2 50 -25 0 -20 -5 -25 -25 -25 -24 0 -25 -3 -25
-55 0 -52 1 -55 25 -55 23 0 25 -3 25 -50 l0 -50 -80 0 -80 0 0 -30 c0 -25 -4
-30 -25 -30 -21 0 -25 5 -25 30 l0 30 -155 0 -155 0 0 50 c0 47 2 50 25 50 24
0 25 3 25 55 0 52 1 55 25 55 20 0 25 5 25 25 0 24 3 25 55 25 l55 0 0 50 c0
47 -2 50 -25 50 -20 0 -25 5 -25 25 0 24 -3 25 -55 25 -52 0 -55 -1 -55 -25 0
-20 -5 -25 -25 -25 -20 0 -25 -5 -25 -25 0 -20 -5 -25 -25 -25 -23 0 -25 -3
-25 -50 0 -47 -2 -50 -25 -50 -23 0 -25 3 -25 50 0 47 2 50 25 50 23 0 25 3
25 50 0 47 2 50 25 50 24 0 25 3 25 55 0 52 1 55 25 55 24 0 25 2 25 75 0 73
1 75 25 75 24 0 25 3 25 55 0 54 0 55 30 55 29 0 30 1 30 50 0 47 2 50 25 50
25 0 25 1 25 80 0 79 0 80 25 80 24 0 25 2 25 75 0 73 1 75 25 75 21 0 25 5
25 30 0 25 4 30 25 30 23 0 25 3 25 50 0 49 1 50 30 50 30 0 30 1 30 55 0 52
1 55 25 55 24 0 25 2 25 75 0 73 1 75 25 75 24 0 25 -2 25 -75z m9530 -30 l0
-105 -50 0 c-49 0 -50 1 -50 30 0 25 -4 30 -25 30 -20 0 -25 5 -25 25 0 21 -5
25 -30 25 -29 0 -30 1 -30 50 l0 50 105 0 105 0 0 -105z m-8230 -100 l0 -55
-75 0 -75 0 0 55 0 55 75 0 75 0 0 -55z m-620 -495 c0 -79 0 -80 -25 -80 -20
0 -25 -5 -25 -25 0 -21 -5 -25 -30 -25 -25 0 -30 -4 -30 -25 0 -20 -5 -25 -25
-25 -20 0 -25 5 -25 25 l0 25 -105 0 -105 0 0 50 c0 47 2 50 25 50 20 0 25 5
25 25 0 25 1 25 80 25 l80 0 0 30 0 30 80 0 80 0 0 -80z m5780 -340 l0 -50
-55 0 c-52 0 -55 -1 -55 -25 0 -23 -3 -25 -50 -25 l-50 0 0 75 0 75 105 0 105
0 0 -50z m1930 -445 c0 -20 5 -25 25 -25 23 0 25 -3 25 -50 0 -47 2 -50 25
-50 21 0 25 -5 25 -30 0 -25 4 -30 25 -30 20 0 25 -5 25 -25 0 -20 5 -25 25
-25 20 0 25 -5 25 -25 0 -21 5 -25 30 -25 25 0 30 -4 30 -25 0 -20 5 -25 25
-25 25 0 25 -1 25 -80 0 -79 0 -80 25 -80 23 0 25 -3 25 -50 0 -47 2 -50 25
-50 20 0 25 -5 25 -25 0 -20 5 -25 25 -25 21 0 25 -5 25 -30 0 -27 3 -30 30
-30 l30 0 0 -75 c0 -73 1 -75 25 -75 l25 0 0 -105 0 -105 25 0 25 0 0 -155 0
-155 -25 0 c-20 0 -25 5 -25 25 0 20 -5 25 -25 25 -25 0 -25 1 -25 80 l0 80
-30 0 c-25 0 -30 4 -30 25 0 20 -5 25 -25 25 l-25 0 0 130 0 130 -25 0 c-20 0
-25 5 -25 25 0 20 -5 25 -25 25 l-25 0 0 130 0 130 -25 0 c-23 0 -25 3 -25 50
0 49 -1 50 -30 50 -30 0 -30 1 -30 55 0 52 -1 55 -25 55 -20 0 -25 5 -25 25 0
20 -5 25 -25 25 -20 0 -25 5 -25 25 0 20 -5 25 -25 25 -20 0 -25 5 -25 25 0
20 -5 25 -25 25 -24 0 -25 3 -25 55 l0 55 -55 0 c-52 0 -55 1 -55 25 0 20 -5
25 -25 25 -20 0 -25 5 -25 25 0 25 1 25 80 25 79 0 80 0 80 -25z m-7400 -365
c0 -79 0 -80 -25 -80 -21 0 -25 5 -25 30 0 25 -4 30 -25 30 -21 0 -25 -5 -25
-30 0 -27 -3 -30 -30 -30 -27 0 -30 3 -30 30 0 29 -1 30 -50 30 l-50 0 0 50 0
50 130 0 130 0 0 -80z m6870 -50 c0 -27 3 -30 30 -30 l30 0 0 -100 0 -100 25
0 c21 0 25 -5 25 -30 0 -30 -1 -30 -55 -30 l-55 0 0 105 0 105 -25 0 c-24 0
-25 3 -25 55 0 52 1 55 25 55 21 0 25 -5 25 -30z m-6560 -80 c0 -47 2 -50 25
-50 23 0 25 -3 25 -50 l0 -50 55 0 c54 0 55 0 55 -30 0 -30 -1 -30 -55 -30
-54 0 -55 0 -55 30 0 25 -4 30 -25 30 -20 0 -25 5 -25 25 0 20 -5 25 -25 25
-24 0 -25 2 -25 75 0 73 1 75 25 75 23 0 25 -3 25 -50z m1300 0 l0 -50 -155 0
-155 0 0 50 0 50 155 0 155 0 0 -50z m1200 25 c0 -23 -3 -25 -50 -25 -47 0
-50 -2 -50 -25 0 -24 -3 -25 -55 -25 l-55 0 0 50 0 50 105 0 105 0 0 -25z
m3750 -100 c0 -24 3 -25 55 -25 52 0 55 -1 55 -25 0 -20 5 -25 25 -25 21 0 25
-5 25 -30 0 -25 4 -30 25 -30 20 0 25 -5 25 -25 0 -25 1 -25 80 -25 l80 0 0
-50 c0 -49 -1 -50 -30 -50 -25 0 -30 -4 -30 -25 0 -20 -5 -25 -25 -25 -21 0
-25 -5 -25 -30 0 -25 -4 -30 -25 -30 -20 0 -25 -5 -25 -25 0 -20 -5 -25 -25
-25 -20 0 -25 -5 -25 -25 0 -20 -5 -25 -25 -25 -20 0 -25 5 -25 25 0 24 -3 25
-55 25 -52 0 -55 1 -55 25 0 23 -3 25 -50 25 l-50 0 0 -75 c0 -73 -1 -75 -25
-75 -20 0 -25 5 -25 25 0 21 -5 25 -30 25 -29 0 -30 1 -30 50 0 47 -2 50 -25
50 -21 0 -25 5 -25 30 0 25 -4 30 -25 30 -24 0 -25 2 -25 75 l0 75 80 0 c79 0
80 0 80 -25 0 -24 2 -25 75 -25 73 0 75 -1 75 -25 0 -24 3 -25 55 -25 52 0 55
1 55 25 0 21 -5 25 -30 25 -25 0 -30 4 -30 25 0 20 -5 25 -25 25 -20 0 -25 5
-25 25 0 23 -3 25 -50 25 l-50 0 0 55 c0 52 -1 55 -25 55 -20 0 -25 5 -25 25
0 24 2 25 75 25 73 0 75 -1 75 -25z m5110 -235 c0 -49 -1 -50 -30 -50 -30 0
-30 -1 -30 -55 0 -52 -1 -55 -25 -55 -23 0 -25 -3 -25 -50 0 -47 -2 -50 -25
-50 -20 0 -25 -5 -25 -25 0 -20 5 -25 25 -25 20 0 25 -5 25 -25 0 -20 5 -25
25 -25 24 0 25 -3 25 -55 l0 -55 -75 0 c-73 0 -75 -1 -75 -25 0 -20 -5 -25
-25 -25 -25 0 -25 1 -25 80 0 79 0 80 25 80 l25 0 0 100 0 100 25 0 c21 0 25
5 25 30 0 25 4 30 25 30 20 0 25 5 25 25 0 20 5 25 25 25 23 0 25 3 25 50 0
49 1 50 30 50 29 0 30 -1 30 -50z m-2560 -260 c0 -49 1 -50 30 -50 25 0 30 -4
30 -25 0 -20 5 -25 25 -25 21 0 25 -5 25 -30 0 -25 4 -30 25 -30 23 0 25 -3
25 -50 0 -47 -2 -50 -25 -50 -23 0 -25 3 -25 50 l0 50 -55 0 c-52 0 -55 -1
-55 -25 0 -20 -5 -25 -25 -25 -20 0 -25 5 -25 25 0 20 -5 25 -25 25 -21 0 -25
5 -25 30 0 25 4 30 25 30 20 0 25 5 25 25 0 20 -5 25 -25 25 -20 0 -25 5 -25
25 0 20 5 25 25 25 20 0 25 5 25 25 0 20 5 25 25 25 23 0 25 -3 25 -50z
m-9680 -25 c0 -20 5 -25 25 -25 20 0 25 -5 25 -25 0 -20 5 -25 25 -25 24 0 25
-3 25 -55 l0 -55 55 0 c52 0 55 1 55 25 0 20 5 25 25 25 21 0 25 5 25 30 l0
30 75 0 75 0 0 -30 c0 -29 -1 -30 -50 -30 l-50 0 0 -75 0 -75 -105 0 -105 0 0
25 c0 23 -3 25 -50 25 -47 0 -50 2 -50 25 0 21 -5 25 -30 25 -25 0 -30 4 -30
25 0 20 -5 25 -25 25 -21 0 -25 5 -25 30 0 25 -4 30 -25 30 -23 0 -25 3 -25
50 l0 50 80 0 c79 0 80 0 80 -25z m7500 -50 c0 -21 -5 -25 -30 -25 -27 0 -30
-3 -30 -30 0 -25 -4 -30 -25 -30 -20 0 -25 -5 -25 -25 0 -24 -2 -25 -75 -25
-73 0 -75 1 -75 25 0 20 5 25 25 25 21 0 25 5 25 30 0 29 1 30 50 30 47 0 50
2 50 25 0 24 3 25 55 25 52 0 55 -1 55 -25z m520 -110 c0 -20 5 -25 25 -25 23
0 25 -3 25 -50 0 -47 2 -50 25 -50 21 0 25 -5 25 -30 l0 -30 -180 0 -180 0 0
55 c0 52 1 55 25 55 20 0 25 5 25 25 0 20 -5 25 -25 25 -20 0 -25 5 -25 25 l0
25 130 0 130 0 0 -25z m-6560 -100 c0 -20 5 -25 25 -25 24 0 25 -3 25 -55 l0
-55 -105 0 -105 0 0 25 c0 20 5 25 25 25 24 0 25 3 25 55 l0 55 55 0 c52 0 55
-1 55 -25z m-3180 -160 c0 -20 -5 -25 -25 -25 -20 0 -25 -5 -25 -25 0 -24 -3
-25 -55 -25 -52 0 -55 -1 -55 -25 0 -20 -5 -25 -25 -25 -21 0 -25 -5 -25 -30
0 -25 -4 -30 -25 -30 -20 0 -25 -5 -25 -25 l0 -25 -105 0 -105 0 0 -25 c0 -25
-1 -25 -80 -25 l-80 0 0 50 0 50 80 0 80 0 0 30 c0 25 4 30 25 30 20 0 25 5
25 25 0 20 5 25 25 25 20 0 25 -5 25 -25 0 -24 3 -25 55 -25 52 0 55 1 55 25
0 20 5 25 25 25 20 0 25 5 25 25 0 20 5 25 25 25 20 0 25 5 25 25 0 25 1 25
80 25 79 0 80 0 80 -25z m9580 -100 c0 -20 5 -25 25 -25 21 0 25 -5 25 -30 0
-25 -4 -30 -25 -30 -20 0 -25 -5 -25 -25 0 -20 5 -25 25 -25 20 0 25 -5 25
-25 0 -21 5 -25 30 -25 25 0 30 -4 30 -25 l0 -25 -130 0 -130 0 0 25 c0 21 -5
25 -30 25 -25 0 -30 4 -30 25 0 25 1 25 80 25 l80 0 0 80 c0 79 0 80 25 80 20
0 25 -5 25 -25z m-6870 -160 c0 -20 5 -25 25 -25 23 0 25 -3 25 -50 l0 -50
-80 0 -80 0 0 -55 0 -55 -50 0 c-47 0 -50 2 -50 25 0 20 5 25 25 25 24 0 25 3
25 55 0 52 1 55 25 55 20 0 25 5 25 25 0 20 5 25 25 25 20 0 25 5 25 25 0 21
5 25 30 25 25 0 30 -4 30 -25z m-2920 -155 c0 -25 -4 -30 -25 -30 -24 0 -25
-2 -25 -75 0 -73 -1 -75 -25 -75 -20 0 -25 -5 -25 -25 0 -21 -5 -25 -30 -25
-27 0 -30 -3 -30 -30 0 -27 3 -30 30 -30 25 0 30 -4 30 -25 0 -21 -5 -25 -30
-25 l-30 0 0 -75 c0 -73 -1 -75 -25 -75 -21 0 -25 -5 -25 -30 0 -29 -1 -30
-50 -30 -47 0 -50 -2 -50 -25 0 -24 -3 -25 -55 -25 -52 0 -55 1 -55 25 0 24
-2 25 -75 25 l-75 0 0 30 c0 25 4 30 25 30 20 0 25 5 25 25 0 20 -5 25 -25 25
-23 0 -25 3 -25 50 0 47 2 50 25 50 20 0 25 5 25 25 0 20 5 25 25 25 21 0 25
5 25 30 0 25 4 30 25 30 20 0 25 5 25 25 0 21 5 25 30 25 25 0 30 -4 30 -25 0
-20 5 -25 25 -25 20 0 25 5 25 25 0 23 3 25 50 25 47 0 50 -2 50 -25 0 -20 5
-25 25 -25 23 0 25 3 25 50 l0 50 -50 0 -50 0 0 50 0 50 80 0 80 0 0 30 c0 29
1 30 50 30 49 0 50 -1 50 -30z m4640 -25 l0 -55 -105 0 -105 0 0 25 c0 23 3
25 50 25 49 0 50 1 50 30 0 30 1 30 55 30 l55 0 0 -55z m5930 -235 c0 -79 0
-80 25 -80 24 0 25 -2 25 -75 0 -73 -1 -75 -25 -75 -24 0 -25 2 -25 75 l0 75
-50 0 c-47 0 -50 2 -50 25 0 20 5 25 25 25 24 0 25 3 25 55 0 52 1 55 25 55
25 0 25 -1 25 -80z m1460 -25 l0 -105 -105 0 -105 0 0 25 c0 20 -5 25 -25 25
-20 0 -25 -5 -25 -25 0 -20 -5 -25 -25 -25 -23 0 -25 3 -25 50 l0 50 75 0 75
0 0 55 0 55 80 0 80 0 0 -105z m-8850 -155 c0 -49 -1 -50 -30 -50 -27 0 -30
-3 -30 -30 0 -25 -4 -30 -25 -30 -20 0 -25 -5 -25 -25 0 -20 -5 -25 -25 -25
-25 0 -25 1 -25 80 0 79 0 80 25 80 20 0 25 5 25 25 0 24 3 25 55 25 l55 0 0
-50z m2970 -135 c0 -21 -5 -25 -30 -25 -25 0 -30 -4 -30 -25 0 -20 -5 -25 -25
-25 -24 0 -25 -3 -25 -55 0 -52 -1 -55 -25 -55 -20 0 -25 -5 -25 -25 l0 -25
130 0 130 0 0 25 0 25 155 0 155 0 0 -25 c0 -23 -3 -25 -50 -25 -47 0 -50 -2
-50 -25 l0 -25 -235 0 -235 0 0 -25 0 -25 -210 0 -210 0 0 -25 0 -25 -155 0
-155 0 0 -30 0 -30 -260 0 -260 0 0 -25 c0 -20 -5 -25 -25 -25 -20 0 -25 -5
-25 -25 l0 -25 -130 0 -130 0 0 -25 c0 -24 -3 -25 -55 -25 -52 0 -55 1 -55 25
0 20 -5 25 -25 25 -23 0 -25 -3 -25 -50 0 -47 -2 -50 -25 -50 -23 0 -25 3 -25
50 0 47 -2 50 -25 50 -23 0 -25 -3 -25 -50 l0 -50 -185 0 -185 0 0 -30 c0 -25
-4 -30 -25 -30 -21 0 -25 5 -25 30 0 25 -4 30 -25 30 -21 0 -25 -5 -25 -30 0
-30 -1 -30 -55 -30 -52 0 -55 -1 -55 -25 0 -20 -5 -25 -25 -25 -20 0 -25 5
-25 25 0 20 -5 25 -25 25 -21 0 -25 5 -25 30 0 25 -4 30 -25 30 -24 0 -25 -3
-25 -55 0 -52 -1 -55 -25 -55 -20 0 -25 -5 -25 -25 0 -21 -5 -25 -30 -25 -25
0 -30 4 -30 25 0 20 -5 25 -25 25 -20 0 -25 -5 -25 -25 0 -25 -1 -25 -80 -25
-79 0 -80 0 -80 25 l0 25 -100 0 -100 0 0 -25 c0 -24 -3 -25 -55 -25 -52 0
-55 1 -55 25 0 24 -2 25 -75 25 -73 0 -75 -1 -75 -25 0 -21 -5 -25 -30 -25
-25 0 -30 4 -30 25 0 20 -5 25 -25 25 -20 0 -25 -5 -25 -25 0 -24 -2 -25 -75
-25 -73 0 -75 -1 -75 -25 0 -24 -3 -25 -55 -25 -52 0 -55 1 -55 25 0 23 -3 25
-50 25 -47 0 -50 -2 -50 -25 l0 -25 -260 0 -260 0 0 -25 c0 -25 -1 -25 -80
-25 -79 0 -80 0 -80 25 0 20 -5 25 -25 25 -20 0 -25 -5 -25 -25 0 -20 -5 -25
-25 -25 -21 0 -25 -5 -25 -30 0 -30 -1 -30 -55 -30 -54 0 -55 0 -55 30 l0 30
-75 0 -75 0 0 -30 c0 -30 -1 -30 -55 -30 -52 0 -55 -1 -55 -25 0 -23 -3 -25
-50 -25 -47 0 -50 -2 -50 -25 l0 -25 -130 0 -130 0 0 25 c0 25 -1 25 -80 25
-79 0 -80 0 -80 -25 l0 -25 -155 0 -155 0 0 25 c0 20 -5 25 -25 25 -23 0 -25
-3 -25 -50 0 -49 -1 -50 -30 -50 -25 0 -30 4 -30 25 l0 25 -100 0 -100 0 0 25
c0 21 -5 25 -30 25 -25 0 -30 -4 -30 -25 0 -20 -5 -25 -25 -25 -20 0 -25 5
-25 25 l0 25 -105 0 -105 0 0 25 c0 20 -5 25 -25 25 -21 0 -25 5 -25 30 0 25
-4 30 -25 30 -21 0 -25 -5 -25 -30 0 -25 -4 -30 -25 -30 -21 0 -25 5 -25 30 0
27 -3 30 -30 30 -25 0 -30 4 -30 25 l0 25 -180 0 -180 0 0 25 c0 23 -3 25 -50
25 l-50 0 0 50 c0 49 -1 50 -30 50 -30 0 -30 1 -30 55 0 54 0 55 30 55 25 0
30 4 30 25 0 25 -1 25 -80 25 -79 0 -80 0 -80 25 0 20 5 25 25 25 20 0 25 5
25 25 0 24 3 25 55 25 54 0 55 0 55 30 0 29 1 30 50 30 47 0 50 2 50 25 0 20
5 25 25 25 20 0 25 -5 25 -25 l0 -25 155 0 155 0 0 25 c0 25 1 25 80 25 79 0
80 0 80 -25 0 -24 3 -25 55 -25 54 0 55 0 55 -30 0 -25 4 -30 25 -30 20 0 25
-5 25 -25 0 -20 5 -25 25 -25 20 0 25 -5 25 -25 0 -25 1 -25 80 -25 79 0 80 0
80 25 0 23 3 25 50 25 47 0 50 2 50 25 0 25 1 25 80 25 l80 0 0 30 c0 25 4 30
25 30 20 0 25 5 25 25 0 23 3 25 50 25 47 0 50 2 50 25 l0 25 155 0 155 0 0
25 0 25 105 0 105 0 0 25 c0 25 1 25 80 25 l80 0 0 30 0 30 80 0 c79 0 80 0
80 25 0 23 3 25 50 25 47 0 50 -2 50 -25 0 -23 3 -25 50 -25 49 0 50 -1 50
-30 0 -29 -1 -30 -50 -30 -49 0 -50 1 -50 30 0 29 -1 30 -50 30 l-50 0 0 -55
0 -55 -80 0 -80 0 0 -50 0 -50 -80 0 c-79 0 -80 0 -80 -25 0 -23 -3 -25 -50
-25 -47 0 -50 2 -50 25 0 20 -5 25 -25 25 -20 0 -25 -5 -25 -25 0 -21 -5 -25
-30 -25 -30 0 -30 -1 -30 -55 l0 -55 -75 0 c-73 0 -75 -1 -75 -25 0 -24 -3
-25 -55 -25 -52 0 -55 -1 -55 -25 0 -23 -3 -25 -50 -25 -47 0 -50 -2 -50 -25
0 -25 -1 -25 -80 -25 l-80 0 0 -30 c0 -29 -1 -30 -50 -30 -49 0 -50 1 -50 30
0 25 -4 30 -25 30 -21 0 -25 -5 -25 -30 0 -25 -4 -30 -25 -30 -20 0 -25 -5
-25 -25 0 -25 -1 -25 -80 -25 -79 0 -80 0 -80 -25 0 -23 -3 -25 -50 -25 -47 0
-50 -2 -50 -25 l0 -25 180 0 180 0 0 25 c0 20 5 25 25 25 20 0 25 -5 25 -25 0
-20 5 -25 25 -25 20 0 25 5 25 25 l0 25 160 0 160 0 0 25 0 25 100 0 100 0 0
25 c0 25 1 25 80 25 l80 0 0 30 0 30 105 0 105 0 0 25 c0 23 3 25 50 25 47 0
50 2 50 25 0 25 1 25 80 25 79 0 80 0 80 25 0 25 1 25 80 25 79 0 80 0 80 25
0 24 2 25 75 25 l75 0 0 30 0 30 80 0 80 0 0 -30 0 -30 105 0 105 0 0 -25 c0
-25 -1 -25 -80 -25 -79 0 -80 0 -80 -25 0 -23 -3 -25 -50 -25 -47 0 -50 -2
-50 -25 l0 -25 -105 0 -105 0 0 -25 c0 -24 -3 -25 -55 -25 -54 0 -55 0 -55
-30 l0 -30 105 0 105 0 0 30 0 30 315 0 315 0 0 25 0 25 105 0 105 0 0 50 c0
47 2 50 25 50 20 0 25 5 25 25 l0 25 440 0 440 0 0 -25 c0 -25 1 -25 80 -25
79 0 80 0 80 25 l0 25 260 0 260 0 0 30 0 30 315 0 315 0 0 25 0 25 155 0 155
0 0 25 0 25 310 0 310 0 0 25 c0 24 3 25 55 25 52 0 55 1 55 25 0 24 2 25 75
25 73 0 75 -1 75 -25 0 -21 5 -25 30 -25 25 0 30 4 30 25 0 20 5 25 25 25 24
0 25 3 25 55 0 52 1 55 25 55 20 0 25 5 25 25 0 20 5 25 25 25 20 0 25 5 25
25 0 24 3 25 55 25 52 0 55 -1 55 -25z m-2450 -50 c0 -24 2 -25 75 -25 73 0
75 -1 75 -25 0 -21 5 -25 30 -25 27 0 30 -3 30 -30 0 -27 -3 -30 -30 -30 -25
0 -30 -4 -30 -25 0 -20 -5 -25 -25 -25 -20 0 -25 5 -25 25 0 20 -5 25 -25 25
-21 0 -25 5 -25 30 l0 30 -130 0 -130 0 0 25 c0 20 -5 25 -25 25 -20 0 -25 5
-25 25 l0 25 130 0 130 0 0 -25z m-6410 -50 c0 -20 5 -25 25 -25 20 0 25 5 25
25 0 21 5 25 30 25 l30 0 0 -80 0 -80 -30 0 c-25 0 -30 4 -30 25 0 20 -5 25
-25 25 -21 0 -25 5 -25 30 0 25 -4 30 -25 30 -20 0 -25 5 -25 25 0 20 5 25 25
25 20 0 25 -5 25 -25z m5570 0 c0 -20 -5 -25 -25 -25 -21 0 -25 -5 -25 -30 l0
-30 80 0 80 0 0 -50 c0 -47 -2 -50 -25 -50 -20 0 -25 -5 -25 -25 0 -21 -5 -25
-30 -25 -25 0 -30 4 -30 25 l0 25 -155 0 -155 0 0 25 c0 20 -5 25 -25 25 -20
0 -25 5 -25 25 0 20 5 25 25 25 24 0 25 3 25 55 l0 55 155 0 155 0 0 -25z
m7820 0 c0 -20 5 -25 25 -25 21 0 25 -5 25 -30 0 -25 4 -30 25 -30 24 0 25 -2
25 -75 0 -73 -1 -75 -25 -75 -20 0 -25 5 -25 25 0 24 -3 25 -55 25 l-55 0 0
50 c0 47 -2 50 -25 50 -21 0 -25 5 -25 30 0 25 4 30 25 30 20 0 25 5 25 25 0
21 5 25 30 25 25 0 30 -4 30 -25z m-1100 -110 c0 -24 3 -25 55 -25 52 0 55 -1
55 -25 l0 -25 -160 0 -160 0 0 25 0 25 -100 0 -100 0 0 25 0 25 205 0 205 0 0
-25z m-10620 -930 c0 -20 -5 -25 -25 -25 -21 0 -25 -5 -25 -30 l0 -30 -80 0
-80 0 0 55 0 55 105 0 105 0 0 -25z m10680 -30 c0 -54 0 -55 -30 -55 -25 0
-30 -4 -30 -25 0 -21 5 -25 30 -25 25 0 30 -4 30 -25 0 -20 5 -25 25 -25 20 0
25 -5 25 -25 0 -20 5 -25 25 -25 21 0 25 -5 25 -30 0 -29 -1 -30 -50 -30 l-50
0 0 -50 c0 -47 2 -50 25 -50 20 0 25 -5 25 -25 0 -20 5 -25 25 -25 20 0 25 -5
25 -25 0 -25 1 -25 80 -25 l80 0 0 -30 0 -30 -80 0 -80 0 0 30 0 30 -80 0
c-79 0 -80 0 -80 25 0 23 -3 25 -50 25 -47 0 -50 2 -50 25 0 20 -5 25 -25 25
-20 0 -25 5 -25 25 0 21 -5 25 -30 25 -25 0 -30 4 -30 25 0 25 1 25 80 25 l80
0 0 80 0 80 -50 0 c-47 0 -50 2 -50 25 0 21 -5 25 -30 25 -30 0 -30 1 -30 55
l0 55 135 0 135 0 0 -55z m-8700 -180 c0 -23 3 -25 50 -25 49 0 50 -1 50 -30
l0 -30 -75 0 c-73 0 -75 -1 -75 -25 0 -20 5 -25 25 -25 23 0 25 -3 25 -50 l0
-50 -55 0 -55 0 0 75 0 75 30 0 c30 0 30 1 30 55 0 52 1 55 25 55 20 0 25 -5
25 -25z m22650 -30 l0 -55 -75 0 -75 0 0 55 0 55 75 0 75 0 0 -55z m-23430
-25 l0 -30 75 0 c73 0 75 -1 75 -25 0 -20 5 -25 25 -25 24 0 25 -2 25 -75 l0
-75 -50 0 c-49 0 -50 -1 -50 -30 l0 -30 155 0 155 0 0 -75 c0 -73 -1 -75 -25
-75 -20 0 -25 -5 -25 -25 l0 -25 -130 0 -130 0 0 -30 0 -30 -80 0 c-79 0 -80
0 -80 -25 0 -20 -5 -25 -25 -25 -20 0 -25 5 -25 25 0 20 -5 25 -25 25 -20 0
-25 -5 -25 -25 0 -20 -5 -25 -25 -25 -20 0 -25 5 -25 25 0 24 -3 25 -55 25
-52 0 -55 -1 -55 -25 0 -23 -3 -25 -50 -25 l-50 0 0 -50 0 -50 -80 0 c-79 0
-80 0 -80 25 l0 25 -235 0 -235 0 0 25 0 25 -100 0 -100 0 0 55 c0 54 0 55
-30 55 -25 0 -30 4 -30 25 0 21 5 25 30 25 25 0 30 4 30 25 0 23 3 25 50 25
47 0 50 2 50 25 0 25 1 25 80 25 79 0 80 0 80 25 0 23 3 25 50 25 49 0 50 1
50 30 0 25 4 30 25 30 23 0 25 3 25 50 l0 50 185 0 185 0 0 -50 0 -50 155 0
155 0 0 25 c0 23 -3 25 -50 25 l-50 0 0 75 c0 73 1 75 25 75 21 0 25 5 25 30
l0 30 105 0 105 0 0 -30z m-1620 -260 l0 -130 25 0 c23 0 25 -3 25 -50 0 -47
-2 -50 -25 -50 -21 0 -25 -5 -25 -30 l0 -30 -235 0 -235 0 0 30 0 30 -155 0
-155 0 0 50 c0 47 2 50 25 50 20 0 25 5 25 25 0 25 1 25 80 25 79 0 80 0 80
25 0 23 3 25 50 25 49 0 50 1 50 30 l0 30 80 0 c79 0 80 0 80 25 0 23 3 25 50
25 47 0 50 2 50 25 l0 25 105 0 105 0 0 -130z m10730 55 l0 -25 130 0 130 0 0
-55 c0 -52 -1 -55 -25 -55 -23 0 -25 -3 -25 -50 0 -47 2 -50 25 -50 20 0 25
-5 25 -25 0 -20 5 -25 25 -25 21 0 25 -5 25 -30 0 -27 3 -30 30 -30 29 0 30
-1 30 -50 l0 -50 -55 0 c-52 0 -55 1 -55 25 0 20 -5 25 -25 25 -24 0 -25 3
-25 55 0 52 -1 55 -25 55 -20 0 -25 5 -25 25 0 21 -5 25 -30 25 -25 0 -30 4
-30 25 0 23 -3 25 -50 25 -47 0 -50 2 -50 25 l0 25 -235 0 -235 0 0 25 c0 25
1 25 80 25 l80 0 0 30 c0 29 1 30 50 30 49 0 50 -1 50 -30 0 -30 1 -30 55 -30
54 0 55 0 55 30 0 25 4 30 25 30 20 0 25 5 25 25 0 20 5 25 25 25 20 0 25 -5
25 -25z m-9630 -655 l0 -50 -135 0 -135 0 0 -25 c0 -24 -2 -25 -75 -25 -73 0
-75 1 -75 25 0 20 -5 25 -25 25 -23 0 -25 3 -25 50 l0 50 235 0 235 0 0 -50z
m23900 -780 l0 -100 -25 0 c-21 0 -25 -5 -25 -30 0 -29 1 -30 50 -30 47 0 50
-2 50 -25 0 -24 -2 -25 -75 -25 l-75 0 0 80 c0 79 0 80 25 80 24 0 25 2 25 75
0 73 1 75 25 75 l25 0 0 -100z m-260 -205 l0 -105 -25 0 c-20 0 -25 5 -25 25
0 20 -5 25 -25 25 -20 0 -25 -5 -25 -25 0 -21 -5 -25 -30 -25 -25 0 -30 4 -30
25 0 20 -5 25 -25 25 -20 0 -25 5 -25 25 0 20 -5 25 -25 25 -20 0 -25 5 -25
25 l0 25 105 0 105 0 0 30 c0 25 4 30 25 30 l25 0 0 -105z"/>
<path d="M20010 16490 c0 -47 -2 -50 -25 -50 -20 0 -25 -5 -25 -25 0 -20 5
-25 25 -25 20 0 25 5 25 25 0 20 5 25 25 25 20 0 25 -5 25 -25 0 -25 1 -25 80
-25 l80 0 0 50 c0 49 -1 50 -30 50 -25 0 -30 -4 -30 -25 0 -23 -3 -25 -50 -25
-47 0 -50 2 -50 25 0 20 5 25 25 25 20 0 25 5 25 25 0 23 -3 25 -50 25 l-50 0
0 -50z"/>
<path d="M16000 22170 l0 -100 50 0 c47 0 50 2 50 25 0 24 3 25 55 25 52 0 55
1 55 25 0 21 -5 25 -30 25 -25 0 -30 4 -30 25 0 20 -5 25 -25 25 -20 0 -25 5
-25 25 0 23 -3 25 -50 25 l-50 0 0 -100z"/>
<path d="M16000 21830 c0 -25 -4 -30 -25 -30 -23 0 -25 -3 -25 -50 0 -49 -1
-50 -30 -50 l-30 0 0 -80 0 -80 30 0 c29 0 30 -1 30 -50 l0 -50 100 0 100 0 0
-50 c0 -49 1 -50 30 -50 29 0 30 1 30 50 0 49 -1 50 -30 50 -29 0 -30 1 -30
50 0 47 -2 50 -25 50 -25 0 -25 1 -25 80 0 79 0 80 -25 80 -25 0 -25 1 -25 80
0 79 0 80 -25 80 -21 0 -25 -5 -25 -30z"/>
<path d="M13810 21365 l0 -25 -105 0 -105 0 0 -30 0 -30 -75 0 c-73 0 -75 -1
-75 -25 l0 -25 -130 0 -130 0 0 -25 c0 -24 -3 -25 -55 -25 l-55 0 0 -80 c0
-79 0 -80 -25 -80 -20 0 -25 -5 -25 -25 0 -25 1 -25 80 -25 79 0 80 0 80 25 0
23 3 25 50 25 49 0 50 1 50 30 0 29 1 30 50 30 47 0 50 2 50 25 0 25 1 25 80
25 79 0 80 0 80 25 0 25 1 25 80 25 79 0 80 0 80 25 0 24 2 25 75 25 73 0 75
1 75 25 0 20 5 25 25 25 21 0 25 5 25 30 0 27 3 30 30 30 25 0 30 4 30 25 0
25 -1 25 -80 25 -79 0 -80 0 -80 -25z"/>
<path d="M13450 20685 l0 -75 50 0 50 0 0 -55 c0 -52 1 -55 25 -55 20 0 25 -5
25 -25 0 -20 5 -25 25 -25 20 0 25 -5 25 -25 0 -24 3 -25 55 -25 52 0 55 -1
55 -25 0 -20 5 -25 25 -25 20 0 25 5 25 25 0 20 -5 25 -25 25 -23 0 -25 3 -25
50 0 47 2 50 25 50 20 0 25 5 25 25 0 20 -5 25 -25 25 -21 0 -25 5 -25 30 0
30 -1 30 -55 30 l-55 0 0 50 c0 47 -2 50 -25 50 -20 0 -25 5 -25 25 0 20 -5
25 -25 25 -20 0 -25 -5 -25 -25 0 -20 -5 -25 -25 -25 -20 0 -25 5 -25 25 0 20
-5 25 -25 25 -24 0 -25 -2 -25 -75z"/>
<path d="M7560 13185 c0 -23 -3 -25 -50 -25 -47 0 -50 -2 -50 -25 0 -24 -3
-25 -55 -25 -54 0 -55 0 -55 -30 0 -25 -4 -30 -25 -30 -20 0 -25 -5 -25 -25 0
-20 -5 -25 -25 -25 -20 0 -25 -5 -25 -25 0 -20 -5 -25 -25 -25 -23 0 -25 -3
-25 -50 0 -49 -1 -50 -30 -50 -27 0 -30 -3 -30 -30 0 -25 -4 -30 -25 -30 -24
0 -25 -2 -25 -75 0 -73 -1 -75 -25 -75 l-25 0 0 -420 0 -420 25 0 c24 0 25 -2
25 -75 0 -73 1 -75 25 -75 25 0 25 -1 25 -80 l0 -80 30 0 30 0 0 -75 c0 -73 1
-75 25 -75 21 0 25 -5 25 -30 0 -25 4 -30 25 -30 23 0 25 -3 25 -50 0 -47 2
-50 25 -50 l25 0 0 105 0 105 25 0 25 0 0 155 0 155 30 0 c25 0 30 4 30 25 0
21 -5 25 -30 25 -30 0 -30 1 -30 55 0 54 0 55 30 55 l30 0 0 130 0 130 25 0
c24 0 25 2 25 75 l0 75 -80 0 -80 0 0 80 0 80 105 0 105 0 0 80 0 80 -80 0
-80 0 0 -30 c0 -25 -4 -30 -25 -30 -24 0 -25 3 -25 55 0 52 1 55 25 55 20 0
25 5 25 25 0 24 3 25 55 25 52 0 55 1 55 25 0 24 2 25 75 25 l75 0 0 105 0
105 30 0 c25 0 30 4 30 25 0 21 -5 25 -30 25 -30 0 -30 1 -30 55 0 54 0 55 30
55 29 0 30 1 30 50 l0 50 -80 0 c-79 0 -80 0 -80 -25z"/>
<path d="M7870 13135 c0 -20 -5 -25 -25 -25 -24 0 -25 -3 -25 -55 0 -52 1 -55
25 -55 23 0 25 -3 25 -50 0 -47 -2 -50 -25 -50 -25 0 -25 -1 -25 -80 l0 -80
50 0 c47 0 50 -2 50 -25 0 -21 5 -25 30 -25 25 0 30 -4 30 -25 0 -20 5 -25 25
-25 20 0 25 -5 25 -25 0 -20 -5 -25 -25 -25 -21 0 -25 -5 -25 -30 0 -27 -3
-30 -30 -30 -29 0 -30 -1 -30 -50 0 -47 -2 -50 -25 -50 -20 0 -25 -5 -25 -25
0 -20 5 -25 25 -25 20 0 25 -5 25 -25 0 -21 5 -25 30 -25 25 0 30 4 30 25 0
20 5 25 25 25 20 0 25 5 25 25 0 23 3 25 50 25 47 0 50 2 50 25 0 21 5 25 30
25 30 0 30 1 30 55 0 52 1 55 25 55 20 0 25 5 25 25 0 23 3 25 50 25 47 0 50
2 50 25 0 20 5 25 25 25 23 0 25 3 25 50 0 47 -2 50 -25 50 -21 0 -25 5 -25
30 0 25 -4 30 -25 30 -20 0 -25 5 -25 25 0 20 -5 25 -25 25 -23 0 -25 3 -25
50 l0 50 -80 0 -80 0 0 55 0 55 -50 0 c-47 0 -50 2 -50 25 0 24 -3 25 -55 25
-52 0 -55 -1 -55 -25z"/>
<path d="M8080 12245 c0 -20 -5 -25 -25 -25 -20 0 -25 -5 -25 -25 l0 -25 -105
0 -105 0 0 -50 0 -50 130 0 130 0 0 25 c0 24 3 25 55 25 l55 0 0 75 0 75 -55
0 c-52 0 -55 -1 -55 -25z"/>
<path d="M8190 11985 c0 -21 -5 -25 -30 -25 -25 0 -30 -4 -30 -25 l0 -25 -105
0 -105 0 0 25 c0 23 -3 25 -50 25 l-50 0 0 -50 0 -50 50 0 c49 0 50 -1 50 -30
l0 -30 105 0 105 0 0 30 c0 27 3 30 30 30 25 0 30 4 30 25 0 20 5 25 25 25 23
0 25 3 25 50 0 47 -2 50 -25 50 -20 0 -25 -5 -25 -25z"/>
<path d="M23080 11625 c0 -24 3 -25 55 -25 54 0 55 0 55 -30 0 -25 4 -30 25
-30 23 0 25 -3 25 -50 0 -47 2 -50 25 -50 23 0 25 -3 25 -50 0 -47 -2 -50 -25
-50 -21 0 -25 -5 -25 -30 0 -25 -4 -30 -25 -30 -21 0 -25 5 -25 30 0 30 -1 30
-55 30 -54 0 -55 0 -55 -30 l0 -30 -105 0 -105 0 0 -25 0 -25 -155 0 -155 0 0
-50 c0 -47 -2 -50 -25 -50 -20 0 -25 -5 -25 -25 0 -23 3 -25 50 -25 49 0 50
-1 50 -30 0 -30 1 -30 55 -30 54 0 55 0 55 30 0 29 1 30 50 30 49 0 50 -1 50
-30 0 -25 4 -30 25 -30 24 0 25 3 25 55 0 52 1 55 25 55 20 0 25 -5 25 -25 0
-21 5 -25 30 -25 25 0 30 4 30 25 l0 25 130 0 130 0 0 25 c0 20 5 25 25 25 25
0 25 1 25 80 0 79 0 80 25 80 l25 0 0 100 0 100 -25 0 c-24 0 -25 3 -25 55 l0
55 -105 0 -105 0 0 -25z"/>
<path d="M23340 11625 c0 -20 5 -25 25 -25 21 0 25 -5 25 -30 0 -27 3 -30 30
-30 29 0 30 -1 30 -50 0 -47 2 -50 25 -50 23 0 25 -3 25 -50 0 -47 -2 -50 -25
-50 -21 0 -25 -5 -25 -30 0 -27 -3 -30 -30 -30 l-30 0 0 -75 0 -75 80 0 80 0
0 155 0 155 -25 0 c-23 0 -25 3 -25 50 0 47 -2 50 -25 50 -21 0 -25 5 -25 30
0 27 -3 30 -30 30 -25 0 -30 4 -30 25 0 20 -5 25 -25 25 -20 0 -25 -5 -25 -25z"/>
<path d="M4070 9330 c0 -25 4 -30 25 -30 20 0 25 -5 25 -25 0 -24 3 -25 55
-25 l55 0 0 55 0 55 -80 0 -80 0 0 -30z"/>
<path d="M4440 8785 c0 -54 0 -55 -30 -55 -25 0 -30 -4 -30 -25 0 -21 5 -25
30 -25 25 0 30 -4 30 -25 0 -24 -3 -25 -55 -25 -52 0 -55 -1 -55 -25 0 -20 -5
-25 -25 -25 -24 0 -25 -3 -25 -55 0 -52 1 -55 25 -55 20 0 25 -5 25 -25 0 -20
5 -25 25 -25 20 0 25 -5 25 -25 0 -21 5 -25 30 -25 29 0 30 1 30 50 l0 50 50
0 c47 0 50 2 50 25 0 20 5 25 25 25 21 0 25 5 25 30 0 25 -4 30 -25 30 -23 0
-25 3 -25 50 0 47 -2 50 -25 50 -25 0 -25 1 -25 80 0 79 0 80 -25 80 -24 0
-25 -3 -25 -55z"/>
</g>
</svg>
